<?xml version="1.0" encoding="UTF-8" standalone="no"?>
<!-- Created with Inkscape (http://www.inkscape.org/) -->

<svg
   width="155.8436mm"
   height="126.74936mm"
   viewBox="0 0 155.8436 126.74936"
   version="1.1"
   id="svg5"
   xml:space="preserve"
   inkscape:version="1.2.2 (b0a8486541, 2022-12-01, custom)"
   sodipodi:docname="logos.svg"
   inkscape:export-filename="../bae60e9c/logos.svg"
   inkscape:export-xdpi="96"
   inkscape:export-ydpi="96"
   xmlns:inkscape="http://www.inkscape.org/namespaces/inkscape"
   xmlns:sodipodi="http://sodipodi.sourceforge.net/DTD/sodipodi-0.dtd"
   xmlns="http://www.w3.org/2000/svg"
   xmlns:svg="http://www.w3.org/2000/svg"><sodipodi:namedview
     id="namedview7"
     pagecolor="#ffffff"
     bordercolor="#000000"
     borderopacity="0.25"
     inkscape:showpageshadow="2"
     inkscape:pageopacity="0.0"
     inkscape:pagecheckerboard="0"
     inkscape:deskcolor="#d1d1d1"
     inkscape:document-units="mm"
     showgrid="false"
     showguides="true"
     inkscape:zoom="0.53086315"
     inkscape:cx="265.60518"
     inkscape:cy="664.01294"
     inkscape:window-width="1920"
     inkscape:window-height="1016"
     inkscape:window-x="0"
     inkscape:window-y="27"
     inkscape:window-maximized="1"
     inkscape:current-layer="layer1" /><defs
     id="defs2" /><g
     inkscape:label="Capa 1"
     inkscape:groupmode="layer"
     id="layer1"
     transform="translate(-498.99083,-164.09536)"><path
       style="fill:none;fill-opacity:1;stroke:#d9d9d9;stroke-width:1.15902;stroke-dasharray:none;stroke-opacity:1"
       d="m 546.78414,183.34633 18.67146,-18.67146 h 27.80899 l 9.65227,9.65227 v 16.34382"
       id="path11930-6-6"
       inkscape:export-filename="../f8122c91/auto-blanco.svg"
       inkscape:export-xdpi="96"
       inkscape:export-ydpi="96" /><path
       style="fill:none;fill-opacity:1;stroke:#d9d9d9;stroke-width:1.15902;stroke-dasharray:none;stroke-opacity:1"
       d="m 610.1068,173.43126 h 11.12327 l 20.14141,20.14142 v 15.44612"
       id="path11932-3-1" /><path
       style="fill:none;fill-opacity:1;stroke:#d9d9d9;stroke-width:1.15902;stroke-dasharray:none;stroke-opacity:1"
       d="m 650.18638,213.41015 4.06857,4.06859 V 236.2 l -3.73768,3.73767 h -12.22269"
       id="path11934-4-2" /><path
       style="fill:none;fill-opacity:1;stroke:#d9d9d9;stroke-width:1.15902;stroke-dasharray:none;stroke-opacity:1"
       d="m 631.75349,196.3203 v 12.27604 l -4.9948,4.9948 h -5.656"
       id="path11936-3-7" /><path
       style="fill:none;fill-opacity:1;stroke:#d9d9d9;stroke-width:1.15902;stroke-dasharray:none;stroke-opacity:1"
       d="m 643.43165,219.97878 h -32.90796 l -8.11687,8.11686 h -4.97979"
       id="path11938-2-9"
       sodipodi:nodetypes="cccc" /><path
       style="fill:none;fill-opacity:1;stroke:#d9d9d9;stroke-width:1.15902;stroke-dasharray:none;stroke-opacity:1"
       d="m 611.85593,233.23959 5.24308,-5.24309 h 23.45803"
       id="path11940-8-6" /><path
       style="fill:none;fill-opacity:1;stroke:#d9d9d9;stroke-width:1.15902;stroke-dasharray:none;stroke-opacity:1"
       d="m 623.17301,237.96303 11.13728,11.1373"
       id="path11942-9-7" /><path
       style="fill:none;fill-opacity:1;stroke:#d9d9d9;stroke-width:1.15902;stroke-dasharray:none;stroke-opacity:1"
       d="m 644.30129,247.33388 v 6.1577 l -6.31959,6.31961 h -8.42151"
       id="path11944-0-3" /><path
       style="fill:none;fill-opacity:1;stroke:#d9d9d9;stroke-width:1.15902;stroke-dasharray:none;stroke-opacity:1"
       d="m 634.29858,267.5657 v 13.64578 l -3.92271,2.26479"
       id="path11946-3-6" /><path
       style="fill:none;fill-opacity:1;stroke:#d9d9d9;stroke-width:1.15902;stroke-dasharray:none;stroke-opacity:1"
       d="m 621.3971,289.21771 v -39.77497 l -5.32028,-5.32027"
       id="path11948-5-8" /><path
       style="fill:none;fill-opacity:1;stroke:#d9d9d9;stroke-width:1.15902;stroke-dasharray:none;stroke-opacity:1"
       d="M 612.92665,276.02859 602.12334,265.22526 V 254.42875"
       id="path11950-3-2" /><path
       style="fill:none;fill-opacity:1;stroke:#d9d9d9;stroke-width:1.15902;stroke-dasharray:none;stroke-opacity:1"
       d="M 612.37063,261.66595 V 248.65877 L 597.84881,234.13696"
       id="path11952-4-1" /><path
       style="fill:none;fill-opacity:1;stroke:#d9d9d9;stroke-width:1.15902;stroke-dasharray:none;stroke-opacity:1"
       d="m 594.61204,247.20817 v 10.14099 l -9.72719,9.72719 h -13.41619 l -13.52944,-13.52948"
       id="path11954-0-6" /><path
       style="fill:none;fill-opacity:1;stroke:#d9d9d9;stroke-width:1.15902;stroke-dasharray:none;stroke-opacity:1"
       d="m 577.0256,257.20525 7.58775,-7.58778 v -10.44368"
       id="path11956-3-5"
       sodipodi:nodetypes="ccc" /><path
       style="fill:none;fill-opacity:1;stroke:#d9d9d9;stroke-width:1.15902;stroke-dasharray:none;stroke-opacity:1"
       d="m 569.842,249.18477 3.8692,-3.86917 v -6.86242"
       id="path11958-6-5"
       sodipodi:nodetypes="ccc" /><path
       style="fill:none;fill-opacity:1;stroke:#d9d9d9;stroke-width:1.15902;stroke-dasharray:none;stroke-opacity:1"
       d="m 559.24919,262.45223 h -9.59403 l -7.01992,-7.01994 v -15.59665 l 6.85102,-6.85102"
       id="path11960-2-1" /><path
       style="fill:none;fill-opacity:1;stroke:#d9d9d9;stroke-width:1.15902;stroke-dasharray:none;stroke-opacity:1"
       d="m 593.51207,176.23764 -5.64362,5.64362 v 21.62069"
       id="path11964-0-1"
       sodipodi:nodetypes="ccc" /><path
       style="fill:none;fill-opacity:1;stroke:#d9d9d9;stroke-width:1.15902;stroke-dasharray:none;stroke-opacity:1"
       d="m 578.34628,172.74016 v 25.6987"
       id="path11966-7-5"
       sodipodi:nodetypes="cc" /><path
       style="fill:none;fill-opacity:1;stroke:#d9d9d9;stroke-width:1.15902;stroke-dasharray:none;stroke-opacity:1"
       d="m 566.93296,178.36985 v 23.9407"
       id="path11968-1-7"
       sodipodi:nodetypes="cc" /><path
       style="fill:none;fill-opacity:1;stroke:#d9d9d9;stroke-width:1.15902;stroke-dasharray:none;stroke-opacity:1"
       d="m 552.06512,191.06274 12.11896,13.09494"
       id="path11970-3-7"
       sodipodi:nodetypes="cc" /><path
       style="fill:none;fill-opacity:1;stroke:#d9d9d9;stroke-width:1.15902;stroke-dasharray:none;stroke-opacity:1"
       d="m 557.41269,223.65636 h -30.64574 l -8.22458,-8.22457"
       id="path11972-7-3"
       sodipodi:nodetypes="ccc" /><path
       style="fill:none;fill-opacity:1;stroke:#d9d9d9;stroke-width:1.15902;stroke-dasharray:none;stroke-opacity:1"
       d="M 561.66486,214.5322 H 540.46163 L 524.13832,198.20888 H 514.7341"
       id="path11974-1-4" /><path
       style="fill:none;fill-opacity:1;stroke:#d9d9d9;stroke-width:1.15902;stroke-dasharray:none;stroke-opacity:1"
       d="m 521.7579,186.9594 h -9.45037 l -8.47345,8.47348 v 7.51168"
       id="path11976-8-3" /><path
       style="fill:none;fill-opacity:1;stroke:#d9d9d9;stroke-width:1.15902;stroke-dasharray:none;stroke-opacity:1"
       d="m 549.76732,170.1497 h -13.37021 l -8.75355,8.75357 v 12.63116"
       id="path11978-8-0" /><path
       style="fill:none;fill-opacity:1;stroke:#d9d9d9;stroke-width:1.15902;stroke-dasharray:none;stroke-opacity:1"
       d="m 536.95525,181.65519 v 12.18701 l 8.6922,8.69221"
       id="path11980-6-9" /><path
       style="fill:none;fill-opacity:1;stroke:#d9d9d9;stroke-width:1.15902;stroke-dasharray:none;stroke-opacity:1"
       d="m 524.4453,207.61611 h -18.25182 l -4.89739,4.8974 v 11.0414"
       id="path11982-5-0" /><path
       style="fill:none;fill-opacity:1;stroke:#d9d9d9;stroke-width:1.15902;stroke-dasharray:none;stroke-opacity:1"
       d="m 508.17723,221.02375 v 14.80961 l 10.3803,10.38028 h 10.92869"
       id="path11984-5-6" /><path
       style="fill:none;fill-opacity:1;stroke:#d9d9d9;stroke-width:1.15902;stroke-dasharray:none;stroke-opacity:1"
       d="m 518.17086,226.98472 7.37883,7.37883 h 9.7212"
       id="path11986-4-9" /><path
       id="path58241-1-0"
       style="fill:none;fill-opacity:1;stroke:#d9d9d9;stroke-width:1.12621;stroke-linecap:round;stroke-linejoin:round;stroke-dashoffset:162;stroke-opacity:1"
       d="m 579.80661,198.09037 c -1.54296,0 -3.04655,0.1616 -4.5051,0.45744 v 3.48417 c -1.95394,0.47251 -3.78387,1.23043 -5.4507,2.25267 l -2.46646,-2.4637 c -1.26147,0.83684 -2.41573,1.81864 -3.48562,2.88596 -1.06438,1.06689 -2.04989,2.22126 -2.88326,3.48442 l 2.46096,2.46345 c -1.01921,1.67075 -1.77935,3.49822 -2.25244,5.45495 h -3.47991 c -0.2984,1.45571 -0.46194,2.96247 -0.46194,4.50487 0,1.54239 0.16397,3.04907 0.46194,4.50482 h 3.47991 c 0.47309,1.95674 1.23323,3.78412 2.25244,5.45548 l -2.46096,2.46347 c 0.83337,1.26253 1.81888,2.41679 2.88326,3.48387 1.06989,1.06719 2.22415,2.04912 3.48562,2.88602 l 2.46646,-2.46371 c 1.66683,1.02268 3.49676,1.78027 5.4507,2.25268 v 3.48439 c 1.45855,0.29561 2.96214,0.45722 4.5051,0.45722 1.54284,0 3.05188,-0.16175 4.50463,-0.45722 v -3.48439 c 1.95969,-0.47241 3.78406,-1.23 5.45668,-2.25268 l 2.46623,2.46371 c 1.26146,-0.8369 2.41582,-1.81883 3.48016,-2.88602 1.06988,-1.06708 2.0496,-2.22134 2.88871,-3.48387 l -2.46645,-2.46347 c 1.0247,-1.67136 1.77958,-3.49874 2.25242,-5.45548 h 3.48567 c 0.29841,-1.45575 0.4562,-2.96243 0.4562,-4.50482 0,-1.5424 -0.15756,-3.04916 -0.4562,-4.50487 h -3.48567 c -0.47284,-1.95673 -1.22772,-3.7842 -2.25242,-5.45495 l 2.46645,-2.46345 c -0.83911,-1.26316 -1.81883,-2.41753 -2.88871,-3.48442 -1.06434,-1.06732 -2.2187,-2.04912 -3.48016,-2.88596 l -2.46623,2.4637 c -1.67262,-1.02224 -3.49699,-1.78016 -5.45668,-2.25267 v -3.48417 c -1.45275,-0.29584 -2.96179,-0.45744 -4.50463,-0.45744 z"
       sodipodi:nodetypes="scccccccccscccccccccscccccccccscccccccccs" /><path
       style="fill:none;fill-opacity:1;stroke:#d9d9d9;stroke-width:1.15902;stroke-dasharray:none;stroke-opacity:1"
       d="m 551.51781,253.57724 v -5.69376 l 11.82732,-11.82732"
       id="path17454-5-2" /><path
       style="fill:none;fill-opacity:1;stroke:#d9d9d9;stroke-width:1.15902;stroke-dasharray:none;stroke-opacity:1"
       d="m 596.55386,211.67932 h 15.06234 l 7.88598,-7.88598 v -15.50773"
       id="path17456-6-4" /><path
       style="fill:#d9d9d9;fill-opacity:1;stroke:#d9d9d9;stroke-width:1.15902;stroke-dasharray:none;stroke-opacity:1"
       id="path17458-9-6"
       sodipodi:type="arc"
       sodipodi:cx="549.5672"
       sodipodi:cy="170.30676"
       sodipodi:rx="2.0650058"
       sodipodi:ry="2.0650058"
       sodipodi:start="0"
       sodipodi:end="6.282324"
       sodipodi:open="true"
       sodipodi:arc-type="arc"
       d="m 551.63221,170.30676 a 2.0650058,2.0650058 0 0 1 -2.06457,2.06501 2.0650058,2.0650058 0 0 1 -2.06545,-2.06412 2.0650058,2.0650058 0 0 1 2.06368,-2.06589 2.0650058,2.0650058 0 0 1 2.06633,2.06322" /><path
       style="fill:#d9d9d9;fill-opacity:1;stroke:#d9d9d9;stroke-width:1.15902;stroke-dasharray:none;stroke-opacity:1"
       id="path17458-1-1-3"
       sodipodi:type="arc"
       sodipodi:cx="527.76697"
       sodipodi:cy="192.08258"
       sodipodi:rx="2.0650058"
       sodipodi:ry="2.0650058"
       sodipodi:start="0"
       sodipodi:end="6.282324"
       sodipodi:open="true"
       sodipodi:arc-type="arc"
       d="m 529.83197,192.08258 a 2.0650058,2.0650058 0 0 1 -2.06456,2.06501 2.0650058,2.0650058 0 0 1 -2.06545,-2.06412 2.0650058,2.0650058 0 0 1 2.06367,-2.06589 2.0650058,2.0650058 0 0 1 2.06634,2.06322" /><path
       style="fill:#d9d9d9;fill-opacity:1;stroke:#d9d9d9;stroke-width:1.15902;stroke-dasharray:none;stroke-opacity:1"
       id="path17458-1-1-0-6"
       sodipodi:type="arc"
       sodipodi:cx="521.95007"
       sodipodi:cy="187.20993"
       sodipodi:rx="2.0650058"
       sodipodi:ry="2.0650058"
       sodipodi:start="0"
       sodipodi:end="6.282324"
       sodipodi:open="true"
       sodipodi:arc-type="arc"
       d="m 524.01508,187.20993 a 2.0650058,2.0650058 0 0 1 -2.06456,2.06501 2.0650058,2.0650058 0 0 1 -2.06545,-2.06412 2.0650058,2.0650058 0 0 1 2.06367,-2.06589 2.0650058,2.0650058 0 0 1 2.06634,2.06322" /><path
       style="fill:#d9d9d9;fill-opacity:1;stroke:#d9d9d9;stroke-width:1.15902;stroke-dasharray:none;stroke-opacity:1"
       id="path17458-1-1-0-9-3"
       sodipodi:type="arc"
       sodipodi:cx="504.15002"
       sodipodi:cy="202.93723"
       sodipodi:rx="2.0650058"
       sodipodi:ry="2.0650058"
       sodipodi:start="0"
       sodipodi:end="6.282324"
       sodipodi:open="true"
       sodipodi:arc-type="arc"
       d="m 506.21503,202.93723 a 2.0650058,2.0650058 0 0 1 -2.06456,2.065 2.0650058,2.0650058 0 0 1 -2.06545,-2.06412 2.0650058,2.0650058 0 0 1 2.06367,-2.06589 2.0650058,2.0650058 0 0 1 2.06634,2.06323" /><path
       style="fill:#d9d9d9;fill-opacity:1;stroke:#d9d9d9;stroke-width:1.15902;stroke-dasharray:none;stroke-opacity:1"
       id="path17458-1-9-1-5"
       sodipodi:type="arc"
       sodipodi:cx="545.73761"
       sodipodi:cy="202.76276"
       sodipodi:rx="2.0650058"
       sodipodi:ry="2.0650058"
       sodipodi:start="0"
       sodipodi:end="6.282324"
       sodipodi:open="true"
       sodipodi:arc-type="arc"
       d="m 547.80262,202.76276 a 2.0650058,2.0650058 0 0 1 -2.06457,2.065 2.0650058,2.0650058 0 0 1 -2.06545,-2.06411 2.0650058,2.0650058 0 0 1 2.06368,-2.0659 2.0650058,2.0650058 0 0 1 2.06633,2.06323" /><path
       style="fill:#d9d9d9;fill-opacity:1;stroke:#d9d9d9;stroke-width:1.15902;stroke-dasharray:none;stroke-opacity:1"
       id="path17458-1-9-3-2-4"
       sodipodi:type="arc"
       sodipodi:cx="537.10797"
       sodipodi:cy="181.46613"
       sodipodi:rx="2.0650058"
       sodipodi:ry="2.0650058"
       sodipodi:start="0"
       sodipodi:end="6.282324"
       sodipodi:open="true"
       sodipodi:arc-type="arc"
       d="m 539.17298,181.46613 a 2.0650058,2.0650058 0 0 1 -2.06456,2.065 2.0650058,2.0650058 0 0 1 -2.06545,-2.06412 2.0650058,2.0650058 0 0 1 2.06367,-2.06589 2.0650058,2.0650058 0 0 1 2.06634,2.06323" /><path
       style="fill:#d9d9d9;fill-opacity:1;stroke:#d9d9d9;stroke-width:1.15902;stroke-dasharray:none;stroke-opacity:1"
       id="path17458-1-9-3-7-3-3"
       sodipodi:type="arc"
       sodipodi:cx="551.56927"
       sodipodi:cy="190.17584"
       sodipodi:rx="2.0650058"
       sodipodi:ry="2.0650058"
       sodipodi:start="0"
       sodipodi:end="6.282324"
       sodipodi:open="true"
       sodipodi:arc-type="arc"
       d="m 553.63428,190.17584 a 2.0650058,2.0650058 0 0 1 -2.06456,2.06501 2.0650058,2.0650058 0 0 1 -2.06545,-2.06412 2.0650058,2.0650058 0 0 1 2.06367,-2.06589 2.0650058,2.0650058 0 0 1 2.06634,2.06322" /><path
       style="fill:#d9d9d9;fill-opacity:1;stroke:#d9d9d9;stroke-width:1.15902;stroke-dasharray:none;stroke-opacity:1"
       id="path17458-1-9-3-7-9-1-8"
       sodipodi:type="arc"
       sodipodi:cx="566.87488"
       sodipodi:cy="177.70999"
       sodipodi:rx="2.0650058"
       sodipodi:ry="2.0650058"
       sodipodi:start="0"
       sodipodi:end="6.282324"
       sodipodi:open="true"
       sodipodi:arc-type="arc"
       d="m 568.93988,177.70999 a 2.0650058,2.0650058 0 0 1 -2.06456,2.06501 2.0650058,2.0650058 0 0 1 -2.06545,-2.06412 2.0650058,2.0650058 0 0 1 2.06367,-2.06589 2.0650058,2.0650058 0 0 1 2.06634,2.06322" /><path
       style="fill:#d9d9d9;fill-opacity:1;stroke:#d9d9d9;stroke-width:1.15902;stroke-dasharray:none;stroke-opacity:1"
       id="path17458-1-9-3-7-9-4-2-0"
       sodipodi:type="arc"
       sodipodi:cx="578.39008"
       sodipodi:cy="172.43375"
       sodipodi:rx="2.0650058"
       sodipodi:ry="2.0650058"
       sodipodi:start="0"
       sodipodi:end="6.282324"
       sodipodi:open="true"
       sodipodi:arc-type="arc"
       d="m 580.45508,172.43375 a 2.0650058,2.0650058 0 0 1 -2.06456,2.065 2.0650058,2.0650058 0 0 1 -2.06545,-2.06411 2.0650058,2.0650058 0 0 1 2.06367,-2.0659 2.0650058,2.0650058 0 0 1 2.06634,2.06323" /><path
       style="fill:#d9d9d9;fill-opacity:1;stroke:#d9d9d9;stroke-width:1.15902;stroke-dasharray:none;stroke-opacity:1"
       id="path17458-1-9-3-7-9-4-8-4-1"
       sodipodi:type="arc"
       sodipodi:cx="594.00085"
       sodipodi:cy="175.71103"
       sodipodi:rx="2.0650058"
       sodipodi:ry="2.0650058"
       sodipodi:start="0"
       sodipodi:end="6.282324"
       sodipodi:open="true"
       sodipodi:arc-type="arc"
       d="m 596.06586,175.71103 a 2.0650058,2.0650058 0 0 1 -2.06456,2.065 2.0650058,2.0650058 0 0 1 -2.06545,-2.06411 2.0650058,2.0650058 0 0 1 2.06367,-2.0659 2.0650058,2.0650058 0 0 1 2.06634,2.06323" /><path
       style="fill:#d9d9d9;fill-opacity:1;stroke:#d9d9d9;stroke-width:1.15902;stroke-dasharray:none;stroke-opacity:1"
       id="path17458-1-9-3-7-9-4-8-7-4-0"
       sodipodi:type="arc"
       sodipodi:cx="602.82483"
       sodipodi:cy="191.22314"
       sodipodi:rx="2.0650058"
       sodipodi:ry="2.0650058"
       sodipodi:start="0"
       sodipodi:end="6.282324"
       sodipodi:open="true"
       sodipodi:arc-type="arc"
       d="m 604.88983,191.22314 a 2.0650058,2.0650058 0 0 1 -2.06456,2.06501 2.0650058,2.0650058 0 0 1 -2.06545,-2.06412 2.0650058,2.0650058 0 0 1 2.06368,-2.06589 2.0650058,2.0650058 0 0 1 2.06633,2.06323" /><path
       style="fill:#d9d9d9;fill-opacity:1;stroke:#d9d9d9;stroke-width:1.15902;stroke-dasharray:none;stroke-opacity:1"
       id="path17458-1-9-3-7-9-4-8-7-3-7-4"
       sodipodi:type="arc"
       sodipodi:cx="546.93433"
       sodipodi:cy="183.65979"
       sodipodi:rx="2.0650058"
       sodipodi:ry="2.0650058"
       sodipodi:start="0"
       sodipodi:end="6.282324"
       sodipodi:open="true"
       sodipodi:arc-type="arc"
       d="m 548.99933,183.65979 a 2.0650058,2.0650058 0 0 1 -2.06456,2.06501 2.0650058,2.0650058 0 0 1 -2.06545,-2.06412 2.0650058,2.0650058 0 0 1 2.06367,-2.0659 2.0650058,2.0650058 0 0 1 2.06634,2.06323" /><path
       style="fill:#d9d9d9;fill-opacity:1;stroke:#d9d9d9;stroke-width:1.15902;stroke-dasharray:none;stroke-opacity:1"
       id="path17458-1-9-3-7-9-4-8-7-3-3-7-9"
       sodipodi:type="arc"
       sodipodi:cx="610.16528"
       sodipodi:cy="173.42325"
       sodipodi:rx="2.0650058"
       sodipodi:ry="2.0650058"
       sodipodi:start="0"
       sodipodi:end="6.282324"
       sodipodi:open="true"
       sodipodi:arc-type="arc"
       d="m 612.23029,173.42325 a 2.0650058,2.0650058 0 0 1 -2.06456,2.065 2.0650058,2.0650058 0 0 1 -2.06545,-2.06411 2.0650058,2.0650058 0 0 1 2.06367,-2.0659 2.0650058,2.0650058 0 0 1 2.06634,2.06323" /><path
       style="fill:#d9d9d9;fill-opacity:1;stroke:#d9d9d9;stroke-width:1.15902;stroke-dasharray:none;stroke-opacity:1"
       id="path17458-1-9-3-7-9-4-8-7-3-3-1-0-8"
       sodipodi:type="arc"
       sodipodi:cx="619.38739"
       sodipodi:cy="188.02484"
       sodipodi:rx="2.0650058"
       sodipodi:ry="2.0650058"
       sodipodi:start="0"
       sodipodi:end="6.282324"
       sodipodi:open="true"
       sodipodi:arc-type="arc"
       d="m 621.4524,188.02484 a 2.0650058,2.0650058 0 0 1 -2.06457,2.06501 2.0650058,2.0650058 0 0 1 -2.06545,-2.06412 2.0650058,2.0650058 0 0 1 2.06368,-2.06589 2.0650058,2.0650058 0 0 1 2.06634,2.06322" /><path
       style="fill:#d9d9d9;fill-opacity:1;stroke:#d9d9d9;stroke-width:1.15902;stroke-dasharray:none;stroke-opacity:1"
       id="path17458-1-9-3-7-9-4-8-7-3-3-1-8-93-9"
       sodipodi:type="arc"
       sodipodi:cx="631.8244"
       sodipodi:cy="196.12177"
       sodipodi:rx="2.0650058"
       sodipodi:ry="2.0650058"
       sodipodi:start="0"
       sodipodi:end="6.282324"
       sodipodi:open="true"
       sodipodi:arc-type="arc"
       d="m 633.88941,196.12177 a 2.0650058,2.0650058 0 0 1 -2.06456,2.065 2.0650058,2.0650058 0 0 1 -2.06545,-2.06412 2.0650058,2.0650058 0 0 1 2.06367,-2.06589 2.0650058,2.0650058 0 0 1 2.06634,2.06323" /><path
       style="fill:#d9d9d9;fill-opacity:1;stroke:#d9d9d9;stroke-width:1.15902;stroke-dasharray:none;stroke-opacity:1"
       id="path17458-1-9-3-7-9-4-8-7-3-3-1-8-9-9-2"
       sodipodi:type="arc"
       sodipodi:cx="621.19495"
       sodipodi:cy="213.59338"
       sodipodi:rx="2.0650058"
       sodipodi:ry="2.0650058"
       sodipodi:start="0"
       sodipodi:end="6.282324"
       sodipodi:open="true"
       sodipodi:arc-type="arc"
       d="m 623.25995,213.59338 a 2.0650058,2.0650058 0 0 1 -2.06456,2.06501 2.0650058,2.0650058 0 0 1 -2.06545,-2.06412 2.0650058,2.0650058 0 0 1 2.06367,-2.06589 2.0650058,2.0650058 0 0 1 2.06634,2.06323" /><path
       style="fill:#d9d9d9;fill-opacity:1;stroke:#d9d9d9;stroke-width:1.15902;stroke-dasharray:none;stroke-opacity:1"
       id="path17458-1-9-3-7-9-4-8-7-3-3-1-8-9-0-1-9"
       sodipodi:type="arc"
       sodipodi:cx="641.59753"
       sodipodi:cy="208.88632"
       sodipodi:rx="2.0650058"
       sodipodi:ry="2.0650058"
       sodipodi:start="0"
       sodipodi:end="6.282324"
       sodipodi:open="true"
       sodipodi:arc-type="arc"
       d="m 643.66254,208.88632 a 2.0650058,2.0650058 0 0 1 -2.06456,2.06501 2.0650058,2.0650058 0 0 1 -2.06545,-2.06412 2.0650058,2.0650058 0 0 1 2.06367,-2.06589 2.0650058,2.0650058 0 0 1 2.06634,2.06322" /><path
       style="fill:#d9d9d9;fill-opacity:1;stroke:#d9d9d9;stroke-width:1.15902;stroke-dasharray:none;stroke-opacity:1"
       id="path17458-1-9-3-7-9-4-8-7-3-3-1-8-9-0-9-3-6"
       sodipodi:type="arc"
       sodipodi:cx="650.38879"
       sodipodi:cy="213.42789"
       sodipodi:rx="2.0650058"
       sodipodi:ry="2.0650058"
       sodipodi:start="0"
       sodipodi:end="6.282324"
       sodipodi:open="true"
       sodipodi:arc-type="arc"
       d="m 652.4538,213.42789 a 2.0650058,2.0650058 0 0 1 -2.06456,2.065 2.0650058,2.0650058 0 0 1 -2.06545,-2.06411 2.0650058,2.0650058 0 0 1 2.06367,-2.0659 2.0650058,2.0650058 0 0 1 2.06634,2.06323" /><path
       style="fill:#d9d9d9;fill-opacity:1;stroke:#d9d9d9;stroke-width:1.15902;stroke-dasharray:none;stroke-opacity:1"
       id="path17458-1-9-3-7-9-4-8-7-3-3-1-8-9-0-9-5-6-9"
       sodipodi:type="arc"
       sodipodi:cx="643.59149"
       sodipodi:cy="220.14801"
       sodipodi:rx="2.0650058"
       sodipodi:ry="2.0650058"
       sodipodi:start="0"
       sodipodi:end="6.282324"
       sodipodi:open="true"
       sodipodi:arc-type="arc"
       d="m 645.6565,220.14801 a 2.0650058,2.0650058 0 0 1 -2.06456,2.06501 2.0650058,2.0650058 0 0 1 -2.06545,-2.06412 2.0650058,2.0650058 0 0 1 2.06367,-2.0659 2.0650058,2.0650058 0 0 1 2.06634,2.06323" /><path
       style="fill:#d9d9d9;fill-opacity:1;stroke:#d9d9d9;stroke-width:1.15902;stroke-dasharray:none;stroke-opacity:1"
       id="path17458-1-9-3-7-9-4-8-7-3-3-1-8-9-0-9-5-5-5-7"
       sodipodi:type="arc"
       sodipodi:cx="640.48047"
       sodipodi:cy="228.22098"
       sodipodi:rx="2.0650058"
       sodipodi:ry="2.0650058"
       sodipodi:start="0"
       sodipodi:end="6.282324"
       sodipodi:open="true"
       sodipodi:arc-type="arc"
       d="m 642.54547,228.22098 a 2.0650058,2.0650058 0 0 1 -2.06456,2.065 2.0650058,2.0650058 0 0 1 -2.06545,-2.06411 2.0650058,2.0650058 0 0 1 2.06367,-2.0659 2.0650058,2.0650058 0 0 1 2.06634,2.06323" /><path
       style="fill:#d9d9d9;fill-opacity:1;stroke:#d9d9d9;stroke-width:1.15902;stroke-dasharray:none;stroke-opacity:1"
       id="path17458-1-9-3-7-9-4-8-7-3-3-1-8-9-0-9-5-5-9-8-9"
       sodipodi:type="arc"
       sodipodi:cx="612.24872"
       sodipodi:cy="233.17749"
       sodipodi:rx="2.0650058"
       sodipodi:ry="2.0650058"
       sodipodi:start="0"
       sodipodi:end="6.282324"
       sodipodi:open="true"
       sodipodi:arc-type="arc"
       d="m 614.31372,233.17749 a 2.0650058,2.0650058 0 0 1 -2.06456,2.06501 2.0650058,2.0650058 0 0 1 -2.06545,-2.06412 2.0650058,2.0650058 0 0 1 2.06367,-2.0659 2.0650058,2.0650058 0 0 1 2.06634,2.06323" /><path
       style="fill:#d9d9d9;fill-opacity:1;stroke:#d9d9d9;stroke-width:1.15902;stroke-dasharray:none;stroke-opacity:1"
       id="path17458-1-9-3-7-9-4-8-7-3-3-1-8-9-0-9-5-5-9-7-5-6"
       sodipodi:type="arc"
       sodipodi:cx="638.59937"
       sodipodi:cy="239.841"
       sodipodi:rx="2.0650058"
       sodipodi:ry="2.0650058"
       sodipodi:start="0"
       sodipodi:end="6.282324"
       sodipodi:open="true"
       sodipodi:arc-type="arc"
       d="m 640.66437,239.841 a 2.0650058,2.0650058 0 0 1 -2.06456,2.06501 2.0650058,2.0650058 0 0 1 -2.06545,-2.06412 2.0650058,2.0650058 0 0 1 2.06367,-2.06589 2.0650058,2.0650058 0 0 1 2.06634,2.06322" /><path
       style="fill:#d9d9d9;fill-opacity:1;stroke:#d9d9d9;stroke-width:1.15902;stroke-dasharray:none;stroke-opacity:1"
       id="path17458-1-9-3-7-9-4-8-7-3-3-1-8-9-0-9-5-5-9-7-0-6-2"
       sodipodi:type="arc"
       sodipodi:cx="623.77576"
       sodipodi:cy="238.25"
       sodipodi:rx="2.0650058"
       sodipodi:ry="2.0650058"
       sodipodi:start="0"
       sodipodi:end="6.282324"
       sodipodi:open="true"
       sodipodi:arc-type="arc"
       d="m 625.84076,238.25 a 2.0650058,2.0650058 0 0 1 -2.06456,2.06501 2.0650058,2.0650058 0 0 1 -2.06545,-2.06412 2.0650058,2.0650058 0 0 1 2.06367,-2.0659 2.0650058,2.0650058 0 0 1 2.06634,2.06323" /><path
       style="fill:#d9d9d9;fill-opacity:1;stroke:#d9d9d9;stroke-width:1.15902;stroke-dasharray:none;stroke-opacity:1"
       id="path17458-1-9-3-7-9-4-8-7-3-3-1-8-9-0-9-5-5-9-7-0-7-9-0"
       sodipodi:type="arc"
       sodipodi:cx="634.52332"
       sodipodi:cy="249.13184"
       sodipodi:rx="2.0650058"
       sodipodi:ry="2.0650058"
       sodipodi:start="0"
       sodipodi:end="6.282324"
       sodipodi:open="true"
       sodipodi:arc-type="arc"
       d="m 636.58832,249.13184 a 2.0650058,2.0650058 0 0 1 -2.06456,2.065 2.0650058,2.0650058 0 0 1 -2.06545,-2.06411 2.0650058,2.0650058 0 0 1 2.06367,-2.0659 2.0650058,2.0650058 0 0 1 2.06634,2.06323" /><path
       style="fill:#d9d9d9;fill-opacity:1;stroke:#d9d9d9;stroke-width:1.15902;stroke-dasharray:none;stroke-opacity:1"
       id="path17458-1-9-3-7-9-4-8-7-3-3-1-8-9-0-9-5-5-9-7-0-7-3-6-5"
       sodipodi:type="arc"
       sodipodi:cx="644.26855"
       sodipodi:cy="247.87546"
       sodipodi:rx="2.0650058"
       sodipodi:ry="2.0650058"
       sodipodi:start="0"
       sodipodi:end="6.282324"
       sodipodi:open="true"
       sodipodi:arc-type="arc"
       d="m 646.33356,247.87546 a 2.0650058,2.0650058 0 0 1 -2.06456,2.065 2.0650058,2.0650058 0 0 1 -2.06545,-2.06411 2.0650058,2.0650058 0 0 1 2.06367,-2.0659 2.0650058,2.0650058 0 0 1 2.06634,2.06323" /><path
       style="fill:#d9d9d9;fill-opacity:1;stroke:#d9d9d9;stroke-width:1.15902;stroke-dasharray:none;stroke-opacity:1"
       id="path17458-1-9-3-7-9-4-8-7-3-3-1-8-9-0-9-5-5-9-7-0-7-3-8-2-2"
       sodipodi:type="arc"
       sodipodi:cx="630.46216"
       sodipodi:cy="259.61072"
       sodipodi:rx="2.0650058"
       sodipodi:ry="2.0650058"
       sodipodi:start="0"
       sodipodi:end="6.282324"
       sodipodi:open="true"
       sodipodi:arc-type="arc"
       d="m 632.52716,259.61072 a 2.0650058,2.0650058 0 0 1 -2.06456,2.065 2.0650058,2.0650058 0 0 1 -2.06545,-2.06411 2.0650058,2.0650058 0 0 1 2.06367,-2.0659 2.0650058,2.0650058 0 0 1 2.06634,2.06323" /><path
       style="fill:#d9d9d9;fill-opacity:1;stroke:#d9d9d9;stroke-width:1.15902;stroke-dasharray:none;stroke-opacity:1"
       id="path17458-1-9-3-7-9-4-8-7-3-3-1-8-9-0-9-5-5-9-7-0-7-3-8-4-6-8"
       sodipodi:type="arc"
       sodipodi:cx="616.11346"
       sodipodi:cy="244.49512"
       sodipodi:rx="2.0650058"
       sodipodi:ry="2.0650058"
       sodipodi:start="0"
       sodipodi:end="6.282324"
       sodipodi:open="true"
       sodipodi:arc-type="arc"
       d="m 618.17847,244.49512 a 2.0650058,2.0650058 0 0 1 -2.06456,2.065 2.0650058,2.0650058 0 0 1 -2.06545,-2.06411 2.0650058,2.0650058 0 0 1 2.06367,-2.0659 2.0650058,2.0650058 0 0 1 2.06634,2.06323" /><path
       style="fill:#d9d9d9;fill-opacity:1;stroke:#d9d9d9;stroke-width:1.15902;stroke-dasharray:none;stroke-opacity:1"
       id="path17458-1-9-3-7-9-4-8-7-3-3-1-8-9-0-9-5-5-9-7-0-7-3-8-4-7-3-4"
       sodipodi:type="arc"
       sodipodi:cx="612.65424"
       sodipodi:cy="261.26093"
       sodipodi:rx="2.0650058"
       sodipodi:ry="2.0650058"
       sodipodi:start="0"
       sodipodi:end="6.282324"
       sodipodi:open="true"
       sodipodi:arc-type="arc"
       d="m 614.71924,261.26093 a 2.0650058,2.0650058 0 0 1 -2.06456,2.065 2.0650058,2.0650058 0 0 1 -2.06545,-2.06412 2.0650058,2.0650058 0 0 1 2.06367,-2.06589 2.0650058,2.0650058 0 0 1 2.06634,2.06323" /><path
       style="fill:#d9d9d9;fill-opacity:1;stroke:#d9d9d9;stroke-width:1.15902;stroke-dasharray:none;stroke-opacity:1"
       id="path17458-1-9-3-7-9-4-8-7-3-3-1-8-9-0-9-5-5-9-7-0-7-3-8-4-7-8-7-4"
       sodipodi:type="arc"
       sodipodi:cx="602.11371"
       sodipodi:cy="254.80176"
       sodipodi:rx="2.0650058"
       sodipodi:ry="2.0650058"
       sodipodi:start="0"
       sodipodi:end="6.282324"
       sodipodi:open="true"
       sodipodi:arc-type="arc"
       d="m 604.17871,254.80176 a 2.0650058,2.0650058 0 0 1 -2.06456,2.065 2.0650058,2.0650058 0 0 1 -2.06545,-2.06411 2.0650058,2.0650058 0 0 1 2.06367,-2.0659 2.0650058,2.0650058 0 0 1 2.06634,2.06323" /><path
       style="fill:#d9d9d9;fill-opacity:1;stroke:#d9d9d9;stroke-width:1.15902;stroke-dasharray:none;stroke-opacity:1"
       id="path17458-1-9-3-7-9-4-8-7-3-3-1-8-9-0-9-5-5-9-7-0-7-3-8-4-7-8-1-7-0"
       sodipodi:type="arc"
       sodipodi:cx="594.5155"
       sodipodi:cy="246.5025"
       sodipodi:rx="2.0650058"
       sodipodi:ry="2.0650058"
       sodipodi:start="0"
       sodipodi:end="6.282324"
       sodipodi:open="true"
       sodipodi:arc-type="arc"
       d="m 596.58051,246.5025 a 2.0650058,2.0650058 0 0 1 -2.06456,2.06501 2.0650058,2.0650058 0 0 1 -2.06545,-2.06412 2.0650058,2.0650058 0 0 1 2.06367,-2.06589 2.0650058,2.0650058 0 0 1 2.06634,2.06322" /><path
       style="fill:#d9d9d9;fill-opacity:1;stroke:#d9d9d9;stroke-width:1.15902;stroke-dasharray:none;stroke-opacity:1"
       id="path17458-1-9-3-7-9-4-8-7-3-3-1-8-9-0-9-5-5-9-7-0-7-3-8-4-7-8-1-1-1-0"
       sodipodi:type="arc"
       sodipodi:cx="577.96826"
       sodipodi:cy="256.38788"
       sodipodi:rx="2.0650058"
       sodipodi:ry="2.0650058"
       sodipodi:start="0"
       sodipodi:end="6.282324"
       sodipodi:open="true"
       sodipodi:arc-type="arc"
       d="m 580.03327,256.38788 a 2.0650058,2.0650058 0 0 1 -2.06456,2.065 2.0650058,2.0650058 0 0 1 -2.06545,-2.06411 2.0650058,2.0650058 0 0 1 2.06367,-2.0659 2.0650058,2.0650058 0 0 1 2.06634,2.06323" /><path
       style="fill:#d9d9d9;fill-opacity:1;stroke:#d9d9d9;stroke-width:1.15902;stroke-dasharray:none;stroke-opacity:1"
       id="path17458-1-9-3-7-9-4-8-7-3-3-1-8-9-0-9-5-5-9-7-0-7-3-8-4-7-8-1-1-0-5-0"
       sodipodi:type="arc"
       sodipodi:cx="570.16522"
       sodipodi:cy="248.90863"
       sodipodi:rx="2.0650058"
       sodipodi:ry="2.0650058"
       sodipodi:start="0"
       sodipodi:end="6.282324"
       sodipodi:open="true"
       sodipodi:arc-type="arc"
       d="m 572.23023,248.90863 a 2.0650058,2.0650058 0 0 1 -2.06456,2.06501 2.0650058,2.0650058 0 0 1 -2.06545,-2.06412 2.0650058,2.0650058 0 0 1 2.06367,-2.06589 2.0650058,2.0650058 0 0 1 2.06634,2.06322" /><path
       style="fill:#d9d9d9;fill-opacity:1;stroke:#d9d9d9;stroke-width:1.15902;stroke-dasharray:none;stroke-opacity:1"
       id="path17458-1-9-3-7-9-4-8-7-3-3-1-8-9-0-9-5-5-9-7-0-7-3-8-4-7-8-1-1-0-2-7-5"
       sodipodi:type="arc"
       sodipodi:cx="551.76764"
       sodipodi:cy="253.29251"
       sodipodi:rx="2.0650058"
       sodipodi:ry="2.0650058"
       sodipodi:start="0"
       sodipodi:end="6.282324"
       sodipodi:open="true"
       sodipodi:arc-type="arc"
       d="m 553.83264,253.29251 a 2.0650058,2.0650058 0 0 1 -2.06456,2.06501 2.0650058,2.0650058 0 0 1 -2.06545,-2.06412 2.0650058,2.0650058 0 0 1 2.06368,-2.06589 2.0650058,2.0650058 0 0 1 2.06633,2.06322" /><path
       style="fill:#d9d9d9;fill-opacity:1;stroke:#d9d9d9;stroke-width:1.15902;stroke-dasharray:none;stroke-opacity:1"
       id="path17458-1-9-3-7-9-4-8-7-3-3-1-8-9-0-9-5-5-9-7-0-7-3-8-4-7-8-1-1-0-2-1-2-8"
       sodipodi:type="arc"
       sodipodi:cx="558.96887"
       sodipodi:cy="254.86298"
       sodipodi:rx="2.0650058"
       sodipodi:ry="2.0650058"
       sodipodi:start="0"
       sodipodi:end="6.282324"
       sodipodi:open="true"
       sodipodi:arc-type="arc"
       d="m 561.03388,254.86298 a 2.0650058,2.0650058 0 0 1 -2.06456,2.065 2.0650058,2.0650058 0 0 1 -2.06545,-2.06411 2.0650058,2.0650058 0 0 1 2.06367,-2.0659 2.0650058,2.0650058 0 0 1 2.06634,2.06323" /><path
       style="fill:#d9d9d9;fill-opacity:1;stroke:#d9d9d9;stroke-width:1.15902;stroke-dasharray:none;stroke-opacity:1"
       id="path17458-1-9-3-7-9-4-8-7-3-3-1-8-9-0-9-5-5-9-7-0-7-3-8-4-7-8-1-1-0-2-1-3-8-5"
       sodipodi:type="arc"
       sodipodi:cx="558.01709"
       sodipodi:cy="263.16113"
       sodipodi:rx="2.0650058"
       sodipodi:ry="2.0650058"
       sodipodi:start="0"
       sodipodi:end="6.282324"
       sodipodi:open="true"
       sodipodi:arc-type="arc"
       d="m 560.0821,263.16113 a 2.0650058,2.0650058 0 0 1 -2.06457,2.06501 2.0650058,2.0650058 0 0 1 -2.06545,-2.06412 2.0650058,2.0650058 0 0 1 2.06368,-2.06589 2.0650058,2.0650058 0 0 1 2.06633,2.06322" /><path
       style="fill:#d9d9d9;fill-opacity:1;stroke:#d9d9d9;stroke-width:1.15902;stroke-dasharray:none;stroke-opacity:1"
       id="path17458-1-9-3-7-9-4-8-7-3-3-1-8-9-0-9-5-5-9-7-0-7-3-8-4-7-8-1-1-0-2-1-3-4-15-0"
       sodipodi:type="arc"
       sodipodi:cx="549.71094"
       sodipodi:cy="233.24042"
       sodipodi:rx="2.0650058"
       sodipodi:ry="2.0650058"
       sodipodi:start="0"
       sodipodi:end="6.282324"
       sodipodi:open="true"
       sodipodi:arc-type="arc"
       d="m 551.77594,233.24042 a 2.0650058,2.0650058 0 0 1 -2.06456,2.065 2.0650058,2.0650058 0 0 1 -2.06545,-2.06411 2.0650058,2.0650058 0 0 1 2.06367,-2.0659 2.0650058,2.0650058 0 0 1 2.06634,2.06323" /><path
       style="fill:#d9d9d9;fill-opacity:1;stroke:#d9d9d9;stroke-width:1.15902;stroke-dasharray:none;stroke-opacity:1"
       id="path17458-1-9-3-7-9-4-8-7-3-3-1-8-9-0-9-5-5-9-7-0-7-3-8-4-7-8-1-1-0-2-1-3-4-1-9-2"
       sodipodi:type="arc"
       sodipodi:cx="529.89954"
       sodipodi:cy="246.08252"
       sodipodi:rx="2.0650058"
       sodipodi:ry="2.0650058"
       sodipodi:start="0"
       sodipodi:end="6.282324"
       sodipodi:open="true"
       sodipodi:arc-type="arc"
       d="m 531.96454,246.08252 a 2.0650058,2.0650058 0 0 1 -2.06456,2.06501 2.0650058,2.0650058 0 0 1 -2.06545,-2.06412 2.0650058,2.0650058 0 0 1 2.06367,-2.0659 2.0650058,2.0650058 0 0 1 2.06634,2.06323" /><path
       style="fill:#d9d9d9;fill-opacity:1;stroke:#d9d9d9;stroke-width:1.15902;stroke-dasharray:none;stroke-opacity:1"
       id="path17458-1-9-3-7-9-4-8-7-3-3-1-8-9-0-9-5-5-9-7-0-7-3-8-4-7-8-1-1-0-2-1-3-4-1-0-5-8"
       sodipodi:type="arc"
       sodipodi:cx="508.23315"
       sodipodi:cy="221.7392"
       sodipodi:rx="2.0650058"
       sodipodi:ry="2.0650058"
       sodipodi:start="0"
       sodipodi:end="6.282324"
       sodipodi:open="true"
       sodipodi:arc-type="arc"
       d="m 510.29816,221.7392 a 2.0650058,2.0650058 0 0 1 -2.06456,2.065 2.0650058,2.0650058 0 0 1 -2.06545,-2.06411 2.0650058,2.0650058 0 0 1 2.06367,-2.0659 2.0650058,2.0650058 0 0 1 2.06634,2.06323" /><path
       style="fill:#d9d9d9;fill-opacity:1;stroke:#d9d9d9;stroke-width:1.15902;stroke-dasharray:none;stroke-opacity:1"
       id="path17458-1-9-3-7-9-4-8-7-3-3-1-8-9-0-9-5-5-9-7-0-7-3-8-4-7-8-1-1-0-2-1-3-4-1-0-6-1-8"
       sodipodi:type="arc"
       sodipodi:cx="501.63535"
       sodipodi:cy="223.6969"
       sodipodi:rx="2.0650058"
       sodipodi:ry="2.0650058"
       sodipodi:start="0"
       sodipodi:end="6.282324"
       sodipodi:open="true"
       sodipodi:arc-type="arc"
       d="m 503.70035,223.6969 a 2.0650058,2.0650058 0 0 1 -2.06456,2.06501 2.0650058,2.0650058 0 0 1 -2.06545,-2.06412 2.0650058,2.0650058 0 0 1 2.06367,-2.0659 2.0650058,2.0650058 0 0 1 2.06634,2.06323" /><path
       style="fill:#d9d9d9;fill-opacity:1;stroke:#d9d9d9;stroke-width:1.15902;stroke-dasharray:none;stroke-opacity:1"
       id="path17458-1-9-3-7-9-4-8-7-3-3-1-8-9-0-9-5-5-9-7-0-7-3-8-4-7-8-1-1-0-2-1-3-4-1-0-6-7-6-5"
       sodipodi:type="arc"
       sodipodi:cx="523.73285"
       sodipodi:cy="207.71365"
       sodipodi:rx="2.0650058"
       sodipodi:ry="2.0650058"
       sodipodi:start="0"
       sodipodi:end="6.282324"
       sodipodi:open="true"
       sodipodi:arc-type="arc"
       d="m 525.79785,207.71365 a 2.0650058,2.0650058 0 0 1 -2.06456,2.06501 2.0650058,2.0650058 0 0 1 -2.06545,-2.06412 2.0650058,2.0650058 0 0 1 2.06368,-2.06589 2.0650058,2.0650058 0 0 1 2.06633,2.06322" /><path
       style="fill:#d9d9d9;fill-opacity:1;stroke:#d9d9d9;stroke-width:1.15902;stroke-dasharray:none;stroke-opacity:1"
       id="path17458-1-9-3-7-9-4-8-7-3-3-1-8-9-0-9-5-5-9-7-0-7-3-8-4-7-8-1-1-0-2-1-3-4-1-0-6-7-3-41-2"
       sodipodi:type="arc"
       sodipodi:cx="515.58069"
       sodipodi:cy="198.09479"
       sodipodi:rx="2.0650058"
       sodipodi:ry="2.0650058"
       sodipodi:start="0"
       sodipodi:end="6.282324"
       sodipodi:open="true"
       sodipodi:arc-type="arc"
       d="m 517.64569,198.09479 a 2.0650058,2.0650058 0 0 1 -2.06456,2.065 2.0650058,2.0650058 0 0 1 -2.06545,-2.06411 2.0650058,2.0650058 0 0 1 2.06367,-2.0659 2.0650058,2.0650058 0 0 1 2.06634,2.06323" /><path
       style="fill:#d9d9d9;fill-opacity:1;stroke:#d9d9d9;stroke-width:1.15902;stroke-dasharray:none;stroke-opacity:1"
       id="path17458-1-9-3-7-9-4-8-7-3-3-1-8-9-0-9-5-5-9-7-0-7-3-8-4-7-8-1-1-0-2-1-3-4-1-0-6-7-3-4-8-9"
       sodipodi:type="arc"
       sodipodi:cx="519.14764"
       sodipodi:cy="215.47018"
       sodipodi:rx="2.0650058"
       sodipodi:ry="2.0650058"
       sodipodi:start="0"
       sodipodi:end="6.282324"
       sodipodi:open="true"
       sodipodi:arc-type="arc"
       d="m 521.21265,215.47018 a 2.0650058,2.0650058 0 0 1 -2.06456,2.06501 2.0650058,2.0650058 0 0 1 -2.06545,-2.06412 2.0650058,2.0650058 0 0 1 2.06367,-2.06589 2.0650058,2.0650058 0 0 1 2.06634,2.06323" /><path
       style="fill:#d9d9d9;fill-opacity:1;stroke:#d9d9d9;stroke-width:1.15902;stroke-dasharray:none;stroke-opacity:1"
       id="path17458-1-9-3-7-9-4-8-7-3-3-1-8-9-0-9-5-5-9-7-0-7-3-8-4-7-8-1-1-0-2-1-3-4-1-0-6-7-3-4-6-36-1"
       sodipodi:type="arc"
       sodipodi:cx="518.85815"
       sodipodi:cy="227.51047"
       sodipodi:rx="2.0650058"
       sodipodi:ry="2.0650058"
       sodipodi:start="0"
       sodipodi:end="6.282324"
       sodipodi:open="true"
       sodipodi:arc-type="arc"
       d="m 520.92316,227.51047 a 2.0650058,2.0650058 0 0 1 -2.06456,2.065 2.0650058,2.0650058 0 0 1 -2.06545,-2.06411 2.0650058,2.0650058 0 0 1 2.06367,-2.0659 2.0650058,2.0650058 0 0 1 2.06634,2.06323" /><path
       style="fill:#d9d9d9;fill-opacity:1;stroke:#d9d9d9;stroke-width:1.15902;stroke-dasharray:none;stroke-opacity:1"
       id="path17458-1-9-3-7-9-4-8-7-3-3-1-8-9-0-9-5-5-9-7-0-7-3-8-4-7-8-1-1-0-2-1-3-4-1-0-6-7-3-4-6-3-7-3"
       sodipodi:type="arc"
       sodipodi:cx="535.38434"
       sodipodi:cy="234.3967"
       sodipodi:rx="2.0650058"
       sodipodi:ry="2.0650058"
       sodipodi:start="0"
       sodipodi:end="6.282324"
       sodipodi:open="true"
       sodipodi:arc-type="arc"
       d="m 537.44934,234.3967 a 2.0650058,2.0650058 0 0 1 -2.06456,2.065 2.0650058,2.0650058 0 0 1 -2.06545,-2.06411 2.0650058,2.0650058 0 0 1 2.06367,-2.0659 2.0650058,2.0650058 0 0 1 2.06634,2.06323" /><path
       style="fill:#d9d9d9;fill-opacity:1;stroke:#d9d9d9;stroke-width:1.15902;stroke-dasharray:none;stroke-opacity:1"
       id="path17458-1-9-3-7-9-4-8-7-3-3-1-8-9-0-9-5-5-9-7-0-7-3-8-4-7-8-1-1-0-2-1-3-4-6-7-7"
       sodipodi:type="arc"
       sodipodi:cx="612.72321"
       sodipodi:cy="275.74445"
       sodipodi:rx="2.0650058"
       sodipodi:ry="2.0650058"
       sodipodi:start="0"
       sodipodi:end="6.282324"
       sodipodi:open="true"
       sodipodi:arc-type="arc"
       d="m 614.78821,275.74445 a 2.0650058,2.0650058 0 0 1 -2.06456,2.065 2.0650058,2.0650058 0 0 1 -2.06545,-2.06411 2.0650058,2.0650058 0 0 1 2.06367,-2.0659 2.0650058,2.0650058 0 0 1 2.06634,2.06323" /><path
       style="fill:#d9d9d9;fill-opacity:1;stroke:#d9d9d9;stroke-width:1.15902;stroke-dasharray:none;stroke-opacity:1"
       id="path17458-1-9-3-7-9-4-8-7-3-3-1-8-9-0-9-5-5-9-7-0-7-3-8-4-7-8-1-1-0-2-1-3-4-6-3-1-2"
       sodipodi:type="arc"
       sodipodi:cx="621.4223"
       sodipodi:cy="288.2002"
       sodipodi:rx="2.0650058"
       sodipodi:ry="2.0650058"
       sodipodi:start="0"
       sodipodi:end="6.282324"
       sodipodi:open="true"
       sodipodi:arc-type="arc"
       d="m 623.48731,288.2002 a 2.0650058,2.0650058 0 0 1 -2.06456,2.065 2.0650058,2.0650058 0 0 1 -2.06545,-2.06412 2.0650058,2.0650058 0 0 1 2.06367,-2.06589 2.0650058,2.0650058 0 0 1 2.06634,2.06323" /><path
       style="fill:#d9d9d9;fill-opacity:1;stroke:#d9d9d9;stroke-width:1.15902;stroke-dasharray:none;stroke-opacity:1"
       id="path17458-1-9-3-7-9-4-8-7-3-3-1-8-9-0-9-5-5-9-7-0-7-3-8-4-7-8-1-1-0-2-1-3-4-6-3-3-6-6"
       sodipodi:type="arc"
       sodipodi:cx="630.05804"
       sodipodi:cy="284.00067"
       sodipodi:rx="2.0650058"
       sodipodi:ry="2.0650058"
       sodipodi:start="0"
       sodipodi:end="6.282324"
       sodipodi:open="true"
       sodipodi:arc-type="arc"
       d="m 632.12305,284.00067 a 2.0650058,2.0650058 0 0 1 -2.06456,2.06501 2.0650058,2.0650058 0 0 1 -2.06545,-2.06412 2.0650058,2.0650058 0 0 1 2.06367,-2.06589 2.0650058,2.0650058 0 0 1 2.06634,2.06322" /><path
       style="fill:#d9d9d9;fill-opacity:1;stroke:#d9d9d9;stroke-width:1.15902;stroke-dasharray:none;stroke-opacity:1"
       id="path17458-1-9-3-7-9-4-8-7-3-3-1-8-9-0-9-5-5-9-7-0-7-3-8-4-7-8-1-1-0-2-1-3-4-6-3-3-1-2-8"
       sodipodi:type="arc"
       sodipodi:cx="634.28558"
       sodipodi:cy="268.53952"
       sodipodi:rx="2.0650058"
       sodipodi:ry="2.0650058"
       sodipodi:start="0"
       sodipodi:end="6.282324"
       sodipodi:open="true"
       sodipodi:arc-type="arc"
       d="m 636.35059,268.53952 a 2.0650058,2.0650058 0 0 1 -2.06456,2.06501 2.0650058,2.0650058 0 0 1 -2.06545,-2.06412 2.0650058,2.0650058 0 0 1 2.06367,-2.0659 2.0650058,2.0650058 0 0 1 2.06634,2.06323" /><text
       xml:space="preserve"
       style="font-size:25.8873px;fill:#d9d9d9;fill-opacity:1;stroke:none;stroke-width:0.950328;stroke-dasharray:none;stroke-opacity:1"
       x="567.35339"
       y="230.44809"
       id="text18833-0-9"><tspan
         sodipodi:role="line"
         id="tspan18831-1-5"
         style="fill:#d9d9d9;fill-opacity:1;stroke:none;stroke-width:0.950328;stroke-dasharray:none;stroke-opacity:1"
         x="567.35339"
         y="230.44809">AI</tspan></text></g></svg>
