<svg width="186" height="186" viewBox="0 0 186 186" fill="none" xmlns="http://www.w3.org/2000/svg">
<mask id="mask0_375_500" style="mask-type:alpha" maskUnits="userSpaceOnUse" x="0" y="0" width="186" height="186">
<rect width="186" height="186" fill="#D9D9D9"/>
</mask>
<g mask="url(#mask0_375_500)">
<path d="M50.375 155C38.6208 155 28.5794 150.931 20.2507 142.794C11.9169 134.656 7.75 124.71 7.75 112.956C7.75 102.881 10.7854 93.9042 16.8562 86.025C22.9271 78.1458 30.8708 73.1083 40.6875 70.9125C43.9167 59.0292 50.375 49.4062 60.0625 42.0438C69.75 34.6813 80.7292 31 93 31C108.113 31 120.931 36.2623 131.455 46.7868C141.985 57.3164 147.25 70.1375 147.25 85.25C156.163 86.2833 163.559 90.1247 169.438 96.7742C175.313 103.429 178.25 111.212 178.25 120.125C178.25 129.812 174.861 138.048 168.082 144.832C161.298 151.611 153.062 155 143.375 155H100.75C96.4875 155 92.8398 153.484 89.807 150.451C86.769 147.413 85.25 143.762 85.25 139.5V99.5875L72.85 111.6L62 100.75L93 69.75L124 100.75L113.15 111.6L100.75 99.5875V139.5H143.375C148.8 139.5 153.385 137.627 157.131 133.881C160.877 130.135 162.75 125.55 162.75 120.125C162.75 114.7 160.877 110.115 157.131 106.369C153.385 102.623 148.8 100.75 143.375 100.75H131.75V85.25C131.75 74.5292 127.973 65.3893 120.42 57.8305C112.861 50.2768 103.721 46.5 93 46.5C82.2792 46.5 73.1419 50.2768 65.5883 57.8305C58.0294 65.3893 54.25 74.5292 54.25 85.25H50.375C42.8833 85.25 36.4896 87.8979 31.1938 93.1937C25.8979 98.4896 23.25 104.883 23.25 112.375C23.25 119.867 25.8979 126.26 31.1938 131.556C36.4896 136.852 42.8833 139.5 50.375 139.5H69.75V155H50.375Z" fill="#1C1C1C"/>
</g>
</svg>
