<svg width="217" height="180" viewBox="0 0 217 180" fill="none" xmlns="http://www.w3.org/2000/svg">
<rect x="20.8447" y="159.929" width="19.9643" height="24.4856" transform="rotate(90 20.8447 159.929)" fill="#FFA300"/>
<rect x="143.272" y="179.893" width="24.4856" height="19.9643" transform="rotate(-180 143.272 179.893)" fill="#035EEB"/>
<rect x="94.3018" y="179.893" width="24.4856" height="19.9643" transform="rotate(-180 94.3018 179.893)" fill="#01CBA1"/>
<rect x="192.244" y="139.964" width="19.9643" height="24.4856" transform="rotate(90 192.244 139.964)" fill="#035EEB"/>
<rect x="143.141" y="140" width="19.9643" height="24.4856" transform="rotate(90 143.141 140)" fill="#FFA300"/>
<rect x="69.8164" y="139.964" width="19.9643" height="24.4856" transform="rotate(90 69.8164 139.964)" fill="#1C1C1C"/>
<rect x="167.759" y="120" width="19.9643" height="24.4856" transform="rotate(90 167.759 120)" fill="#FFA300"/>
<rect x="192.2" y="160" width="19.9643" height="24.4856" transform="rotate(90 192.2 160)" fill="#FFA300"/>
<rect x="94.3018" y="120" width="19.9643" height="24.4856" transform="rotate(90 94.3018 120)" fill="#FFA300"/>
<rect x="45.3311" y="139.964" width="24.4856" height="19.9643" transform="rotate(-180 45.3311 139.964)" fill="#035EEB"/>
<rect x="143.272" y="120" width="19.9643" height="24.4856" transform="rotate(90 143.272 120)" fill="#1C1C1C"/>
<rect x="167.759" y="120" width="19.9643" height="24.4856" transform="rotate(90 167.759 120)" fill="#FFA300"/>
<rect x="216.729" y="160" width="19.9643" height="24.4856" transform="rotate(90 216.729 160)" fill="#01CBA1"/>
<rect x="143.142" y="100" width="19.9643" height="24.4856" transform="rotate(90 143.142 100)" fill="#FFA300"/>
<rect x="69.5527" y="40" width="19.9643" height="24.4856" transform="rotate(90 69.5527 40)" fill="#FFA300"/>
<rect x="192.2" y="160" width="19.9643" height="24.4856" transform="rotate(90 192.2 160)" fill="#FFA300"/>
<rect x="94.3018" y="120" width="19.9643" height="24.4856" transform="rotate(90 94.3018 120)" fill="#FFA300"/>
<rect x="118.612" y="160" width="19.9643" height="24.4856" transform="rotate(90 118.612 160)" fill="#FFA300"/>
<rect x="45.0234" y="40.0001" width="19.9643" height="24.4856" transform="rotate(90 45.0234 40.0001)" fill="#01CBA1"/>
<rect x="118.612" y="120" width="19.9643" height="24.4856" transform="rotate(90 118.612 120)" fill="#01CBA1"/>
<rect x="45.3311" y="139.964" width="24.4856" height="19.9643" transform="rotate(-180 45.3311 139.964)" fill="#035EEB"/>
<rect x="143.273" y="120" width="19.9643" height="24.4856" transform="rotate(90 143.273 120)" fill="#1C1C1C"/>
<rect x="69.6846" y="119.893" width="24.4856" height="19.9643" transform="rotate(-180 69.6846 119.893)" fill="#035EEB"/>
<rect x="20.7139" y="119.893" width="24.4856" height="19.9643" transform="rotate(-180 20.7139 119.893)" fill="#01CBA1"/>
<rect x="94.1709" y="79.9641" width="19.9643" height="24.4856" transform="rotate(90 94.1709 79.9641)" fill="#FFA300"/>
<rect x="94.1709" y="60.0001" width="19.9643" height="24.4856" transform="rotate(90 94.1709 60.0001)" fill="#1C1C1C"/>
<rect x="20.7139" y="60.0001" width="19.9643" height="24.4856" transform="rotate(90 20.7139 60.0001)" fill="#FFA300"/>
<rect x="69.6846" y="60.0001" width="19.9643" height="24.4856" transform="rotate(90 69.6846 60.0001)" fill="#035EEB"/>
<rect x="20.626" y="59.893" width="24.4856" height="19.9643" transform="rotate(-180 20.626 59.893)" fill="#035EEB"/>
<rect x="45.0244" y="179.964" width="24.4856" height="19.9643" transform="rotate(-180 45.0244 179.964)" fill="#035EEB"/>
<rect x="45.1123" y="19.9641" width="19.9643" height="24.4856" transform="rotate(90 45.1123 19.9641)" fill="#FFA300"/>
<rect x="20.626" y="6.10352e-05" width="19.9643" height="24.4856" transform="rotate(90 20.626 6.10352e-05)" fill="#1C1C1C"/>
</svg>
