<svg width="93" height="93" viewBox="0 0 93 93" fill="none" xmlns="http://www.w3.org/2000/svg">
  <rect width="93" height="93" rx="17.4375" fill="#1E212A"/>
  <g clip-path="url(#clip0_8_23)">
  <path d="M63.626 42.1044C63.626 43.1698 63.626 43.1698 64.4393 43.1698C65.4849 43.1698 65.4849 43.1698 65.4849 42.2322C65.4849 41.2946 65.4849 41.3109 64.8227 41.3109C63.626 41.3097 63.626 41.3097 63.626 42.1044Z" fill="#2FD5E0"/>
  <path d="M60.1477 32.0209C58.9858 32.0209 58.9858 32.0209 58.9858 32.7842C58.9858 33.8775 58.9858 33.8775 59.7643 33.8775C60.8436 33.8775 60.8436 33.8775 60.8436 32.9701C60.8389 32.0209 60.8389 32.0209 60.1477 32.0209Z" fill="#2FD5E0"/>
  <path d="M49.4435 28.303C50.6181 28.303 50.6181 28.303 50.6181 27.6059C50.6181 26.4441 50.6181 26.4441 49.9083 26.4441C48.7627 26.4441 48.7627 26.4441 48.7627 27.3433C48.7627 28.3019 48.7627 28.3019 49.4435 28.303Z" fill="#2FD5E0"/>
  <path d="M42.2914 28.3031C43.186 28.3031 43.186 28.3031 43.186 27.3853C43.186 26.4465 43.186 26.4465 42.2566 26.4465C41.3271 26.4465 41.3341 26.4465 41.3329 27.3353C41.3294 28.3031 41.3294 28.3031 42.2914 28.3031Z" fill="#2FD5E0"/>
  <path d="M28.3228 45.9756C28.3228 45.0264 28.3228 45.0264 27.6257 45.0264C26.4639 45.0264 26.4639 45.0264 26.4639 45.7351C26.4639 46.8865 26.4639 46.8865 27.2446 46.8865C28.3228 46.8876 28.3228 46.8876 28.3228 45.9756Z" fill="#2FD5E0"/>
  <path d="M32.9666 58.9881C32.9666 58.0354 32.9666 58.0354 32.0476 58.0354C31.1089 58.0354 31.1089 58.0354 31.1089 58.9649C31.1089 59.8943 31.1089 59.8885 32.0581 59.8885C32.9678 59.8932 32.9678 59.8932 32.9666 58.9881Z" fill="#2FD5E0"/>
  <path d="M42.1962 66.3959C41.3271 66.3959 41.3271 66.3959 41.3271 67.273C41.3271 68.2571 41.3271 68.2571 42.3193 68.2571C43.1884 68.2571 43.1884 68.2571 43.1884 67.3799C43.1884 66.3959 43.1884 66.3959 42.1962 66.3959Z" fill="#2FD5E0"/>
  <path d="M32.9665 33.1816C32.9665 32.0198 32.9665 32.0198 32.0242 32.0198C31.1099 32.0198 31.1099 32.0198 31.1099 32.6878C31.1099 33.8764 31.1099 33.8764 31.7907 33.8764C32.9665 33.8787 32.9665 33.8787 32.9665 33.1816Z" fill="#2FD5E0"/>
  <path d="M58.981 58.9591C58.981 59.8885 58.981 59.8885 59.9197 59.8885C60.8387 59.8885 60.8387 59.8885 60.8387 58.9939C60.8387 58.0308 60.8387 58.0308 59.929 58.0308C58.981 58.0354 58.981 58.0354 58.981 58.9591Z" fill="#2FD5E0"/>
  <path d="M49.7471 63.6086C48.7607 63.6086 48.7607 63.6086 48.7607 64.5985C48.7607 65.4687 48.7607 65.4687 49.6344 65.4687C50.6208 65.4687 50.6208 65.4687 50.6208 64.48C50.6208 63.6086 50.6208 63.6086 49.7471 63.6086Z" fill="#2FD5E0"/>
  <path d="M65.4863 49.6528C65.4863 50.6009 65.4863 50.6009 66.4077 50.6009H66.4657C67.3406 50.6009 67.3406 50.6009 67.3406 49.7225C67.3406 48.7466 67.3406 48.7466 66.3902 48.7466C65.4875 48.7466 65.4875 48.7466 65.4863 49.6528Z" fill="#2FD5E0"/>
  <path d="M52.4645 44.8626C52.4064 43.961 52.0218 43.1733 51.2294 42.7538C50.6729 42.4599 50.5486 42.1102 50.6183 41.5723C50.6265 41.4562 50.6265 41.3398 50.6183 41.2237C50.599 40.3114 50.3114 39.425 49.7916 38.675C49.2718 37.9251 48.5428 37.3447 47.6953 37.0064C46.8479 36.668 45.9196 36.5866 45.0262 36.7723C44.1328 36.9581 43.3138 37.4027 42.6714 38.0508C41.6444 39.0964 41.2447 40.3686 41.3353 41.8046C41.3621 42.2182 41.247 42.4448 40.8613 42.6551C40.4447 42.8685 40.0954 43.1932 39.8522 43.5931C39.6089 43.9931 39.4813 44.4526 39.4834 44.9206C39.4532 46.3497 39.4834 47.7787 39.4904 49.2089C39.4846 50.2139 39.4729 51.2177 39.4729 52.2227C39.4729 54.1072 40.608 55.2435 42.4937 55.2435C44.7743 55.2435 47.0562 55.2028 49.3357 55.2586C50.8739 55.2969 52.447 54.479 52.4726 52.2204C52.4947 50.2453 52.4668 48.2783 52.4598 46.3067C52.4621 45.8269 52.4958 45.3424 52.4645 44.8626ZM46.1081 38.5271C47.823 38.6038 49.1928 40.4302 48.7641 42.0486C48.692 42.3182 48.5073 42.2333 48.3574 42.2357C47.5662 42.2438 46.775 42.2357 45.9838 42.2357C45.1705 42.2357 44.3642 42.2357 43.5533 42.2357C43.3895 42.2357 43.2326 42.2775 43.1815 42.0033C42.8341 40.1711 44.2748 38.4481 46.1081 38.5271ZM50.6206 52.1577C50.6206 53.0732 50.3151 53.3857 49.417 53.3869C47.1189 53.3869 44.8204 53.3869 42.5216 53.3869C41.6467 53.3869 41.3342 53.0767 41.3272 52.2192C41.3202 51.2123 41.3144 50.2085 41.3098 49.2078C41.3168 47.8957 41.3237 46.584 41.3307 45.2727C41.3307 44.4106 41.6502 44.0992 42.5262 44.0981C44.8235 44.0981 47.1197 44.0981 49.4147 44.0981C50.3139 44.0981 50.6125 44.4083 50.6195 45.325C50.6195 45.6514 50.6323 45.9791 50.6392 46.3067C50.6338 48.2586 50.6276 50.2089 50.6206 52.1577Z" fill="#2FD5E0"/>
  <path d="M71.1535 54.2489C70.7449 54.2486 70.341 54.3366 69.9696 54.5069C69.8811 54.5047 69.7945 54.4809 69.7174 54.4375C69.6402 54.3942 69.5748 54.3326 69.5269 54.2582C69.5012 54.229 69.4736 54.2015 69.4444 54.1758C68.8635 53.6099 68.3721 52.8338 67.6773 52.5411C67.0011 52.2564 66.117 52.4632 65.3234 52.4621C63.3692 52.4621 61.4151 52.4528 59.4609 52.469C59.096 52.469 58.9682 52.3924 58.9694 51.9985C58.9694 50.6043 58.9531 50.6043 60.3264 50.6043C61.2745 50.6043 62.2225 50.5904 63.1706 50.6113C63.511 50.6182 63.6353 50.5462 63.6353 50.1709C63.6446 48.75 63.6609 48.75 62.2411 48.75C61.3697 48.75 60.4984 48.7187 59.6293 48.7616C59.1123 48.7872 58.8765 48.6513 58.9729 48.1099C58.9792 48.0132 58.9745 47.9162 58.959 47.8206C59.0124 46.8911 59.0124 46.8911 59.9732 46.8911C60.2236 46.8744 60.4748 46.8764 60.7249 46.8969C63.2194 47.2675 65.3595 46.3694 67.3938 45.067C67.6448 44.9067 67.9492 44.8347 68.2071 44.6778C68.5684 44.4582 68.8821 44.3537 69.2434 44.4373C69.6194 44.7432 70.0673 44.9479 70.5446 45.0321C71.0219 45.1163 71.5128 45.0771 71.9707 44.9184C72.4287 44.7597 72.8385 44.4866 73.1613 44.125C73.4841 43.7635 73.7092 43.3255 73.8152 42.8526C73.8253 42.8428 73.8362 42.8339 73.8478 42.8259V42.6899C73.8973 42.3844 73.8973 42.073 73.8478 41.7675V41.6641L73.8268 41.6524C73.685 40.9609 73.2912 40.3468 72.722 39.9293C72.1528 39.5118 71.4487 39.3206 70.7465 39.393C70.0443 39.4654 69.3941 39.7962 68.922 40.321C68.45 40.8459 68.1898 41.5274 68.192 42.2333C68.192 42.2736 68.192 42.3143 68.192 42.3553C67.9422 42.8085 67.5065 43.0269 66.9895 43.2488C66.6667 43.3762 66.3556 43.5317 66.06 43.7135C64.3289 44.8486 62.4433 45.2088 60.3892 45.0531C58.9346 44.9439 58.9404 45.0322 58.9729 43.5787C58.9799 43.2302 59.0972 43.1605 59.4097 43.1698C60.0476 43.1907 60.6877 43.1547 61.3244 43.1837C61.6846 43.2 61.7764 43.0884 61.7787 42.7318C61.788 41.3167 61.8019 41.3167 60.3845 41.3167C58.9264 41.3167 58.9404 41.3167 58.9764 39.8516C58.9845 39.4938 59.1228 39.4496 59.4237 39.4531C60.4879 39.4682 61.5521 39.4531 62.6164 39.4659C62.7674 39.4711 62.9179 39.4446 63.058 39.3879C63.1981 39.3313 63.3247 39.2458 63.4297 39.1371C64.2429 38.3958 64.8796 37.4931 65.7324 36.7867C65.8855 36.6393 66.0817 36.5449 66.2924 36.5172C66.9088 36.7562 67.5892 36.773 68.2166 36.5647C68.844 36.3565 69.3793 35.9361 69.7305 35.376C70.0816 34.8159 70.2266 34.1509 70.1406 33.4954C70.0546 32.8399 69.743 32.2349 69.2592 31.7843C68.7755 31.3337 68.1499 31.0656 67.49 31.0263C66.8301 30.9869 66.177 31.1787 65.6432 31.5686C65.1093 31.9585 64.7279 32.5222 64.5646 33.1628C64.4013 33.8034 64.4663 34.4809 64.7483 35.0788C64.7251 35.1694 64.6744 35.2506 64.6031 35.3112C63.8293 36.0408 63.2008 37.0435 62.2946 37.4768C61.5196 37.8475 60.4356 37.5779 59.4946 37.593C59.4752 37.5918 59.4558 37.5918 59.4365 37.593C59.103 37.6453 58.9973 37.5291 58.9508 37.1666C58.6929 35.159 57.6 33.8171 55.6721 33.1409C55.233 32.9875 54.5789 33.1967 54.3814 32.7621C54.1838 32.3276 54.3744 31.7711 54.3256 31.2727C54.2721 30.7382 54.4813 30.3839 54.8496 30.0144C56.1194 28.7469 57.4358 27.527 58.6302 26.1769C58.9531 25.8133 59.2994 25.4252 59.756 25.3485C60.3216 25.5748 60.9448 25.6136 61.5341 25.4594C62.1235 25.3051 62.6477 24.9658 63.0299 24.4914C63.4121 24.017 63.632 23.4325 63.6572 22.8239C63.6825 22.2152 63.5119 21.6145 63.1704 21.1101C62.8289 20.6056 62.3346 20.224 61.7601 20.0213C61.1857 19.8187 60.5613 19.8057 59.9789 19.9842C59.3965 20.1628 58.8867 20.5235 58.5245 21.0133C58.1623 21.5031 57.9668 22.0962 57.9668 22.7054C57.9662 23.1128 58.0538 23.5155 58.2235 23.8858C58.1828 24.0446 58.0929 24.1865 57.9668 24.2913C56.547 25.6855 55.1993 27.1668 53.7156 28.4924C52.7536 29.3522 52.34 30.2549 52.4458 31.5492C52.5619 32.9992 52.4736 32.9933 51.0132 32.9597C50.6647 32.9515 50.5996 32.826 50.6089 32.5182C50.6275 31.8803 50.5915 31.2402 50.6229 30.6023C50.6403 30.234 50.5136 30.1562 50.1651 30.1538C48.757 30.1445 48.757 30.1318 48.757 31.5597C48.757 32.9875 48.757 32.9689 47.3419 32.9538C46.984 32.9538 46.8864 32.8574 46.8899 32.4996C46.9077 30.5632 46.9077 28.6268 46.8899 26.6904C46.8754 26.5355 46.9217 26.3809 47.0189 26.2594C47.6319 26.0083 48.1381 25.5512 48.4505 24.967C48.7629 24.3828 48.8618 23.708 48.7302 23.0587C48.5986 22.4095 48.2448 21.8264 47.7296 21.4099C47.2145 20.9934 46.5702 20.7696 45.9078 20.7769C45.2454 20.7842 44.6062 21.0223 44.1004 21.4501C43.5946 21.8778 43.2538 22.4686 43.1366 23.1206C43.0194 23.7726 43.1332 24.4451 43.4584 25.0223C43.7836 25.5994 44.2999 26.0451 44.9183 26.2826C45.0203 26.422 45.0679 26.5939 45.0519 26.766C45.031 28.3519 45.0426 29.9389 45.0426 31.5294C45.0426 33.0398 45.0426 33.0317 43.5322 32.9515C43.2522 32.9364 43.1686 32.8539 43.1744 32.5821C43.1895 31.9047 43.1663 31.2274 43.1848 30.55C43.193 30.2549 43.1128 30.1585 42.8003 30.148C41.3224 30.0992 41.3224 30.0876 41.3224 31.5422V31.6003C41.3224 32.9573 41.3224 32.9329 39.977 32.9573C39.5123 32.9655 39.4507 32.7982 39.4542 32.395C39.474 30.4594 39.4542 28.525 39.4693 26.5859C39.4798 26.4159 39.452 26.2458 39.3881 26.0879C39.3242 25.9301 39.2257 25.7886 39.0999 25.6738C38.0043 24.6085 36.9412 23.5094 35.8467 22.444C35.655 22.2569 35.5667 22.0954 35.5726 21.8782C35.8118 21.2679 35.8327 20.5937 35.6319 19.9697C35.4311 19.3457 35.0208 18.8103 34.4705 18.4541C33.9203 18.0979 33.2638 17.9428 32.6123 18.015C31.9608 18.0873 31.3543 18.3824 30.8954 18.8505C30.4365 19.3186 30.1535 19.9309 30.0943 20.5838C30.035 21.2366 30.2032 21.8898 30.5703 22.4329C30.9374 22.9759 31.4809 23.3754 32.1088 23.5638C32.7366 23.7521 33.4103 23.7177 34.0157 23.4664C34.1048 23.4668 34.1926 23.4869 34.273 23.5252C34.3533 23.5636 34.4242 23.6193 34.4804 23.6883C35.4099 24.6445 36.3568 25.5855 37.3095 26.5208C37.4092 26.6087 37.4881 26.7177 37.5403 26.8399C37.5926 26.9621 37.6169 27.0944 37.6116 27.2272C37.5976 28.9684 37.5976 30.7111 37.6116 32.4554C37.6116 32.804 37.5465 32.9306 37.1538 32.9748C34.8627 33.235 33.2512 34.8709 32.9828 37.1875C32.9457 37.5163 32.8504 37.6023 32.5367 37.5953C31.6851 37.5767 30.8335 37.5837 29.9807 37.5953C29.8762 37.6041 29.7712 37.5894 29.6731 37.5524C29.575 37.5155 29.4864 37.4571 29.4137 37.3816C28.7387 36.6845 28.0648 35.9874 27.3573 35.3344C27.298 35.2879 27.2513 35.2273 27.2214 35.1581C27.1916 35.0889 27.1796 35.0133 27.1865 34.9382C27.4363 34.3301 27.4679 33.6542 27.276 33.0254C27.084 32.3966 26.6802 31.8536 26.1333 31.4887C25.5864 31.1238 24.93 30.9595 24.2757 31.0237C23.6213 31.0879 23.0094 31.3766 22.5438 31.8408C22.0782 32.305 21.7876 32.9161 21.7215 33.5702C21.6554 34.2244 21.8177 34.8812 22.181 35.4293C22.5442 35.9773 23.086 36.3826 23.7142 36.5765C24.3424 36.7704 25.0184 36.7408 25.6273 36.4928C25.9573 36.5381 26.2245 36.7855 26.5033 37.1016C27.1447 37.8231 27.8766 38.4632 28.5482 39.158C28.6457 39.262 28.7653 39.3428 28.8982 39.3945C29.0311 39.4462 29.1739 39.4674 29.3161 39.4566C30.3792 39.4426 31.4446 39.4647 32.5077 39.4426C32.8562 39.4357 32.9643 39.5275 32.9724 39.8911C32.9817 41.3085 32.9956 41.3085 31.5782 41.3085C30.2235 41.3085 28.8688 41.3178 27.5118 41.3016C27.2042 41.2914 26.9049 41.4019 26.6776 41.6094C25.3194 42.7585 23.9415 43.8855 22.5833 45.0368C22.3243 45.2564 22.1302 45.3285 21.7701 45.196C21.3671 45.0472 20.9343 44.9976 20.5081 45.0516C20.082 45.1056 19.6752 45.2616 19.3221 45.5062C18.8864 45.7802 18.5331 46.1671 18.2999 46.6259C18.0666 47.0846 17.9621 47.5981 17.9974 48.1115C18.0328 48.625 18.2067 49.1192 18.5007 49.5417C18.7946 49.9641 19.1976 50.299 19.6667 50.5106C20.1359 50.7223 20.6536 50.8028 21.1649 50.7435C21.6761 50.6843 22.1617 50.4875 22.57 50.1742C22.9783 49.8609 23.2941 49.4428 23.4836 48.9643C23.6731 48.4858 23.7294 47.9648 23.6464 47.4569C23.6438 47.4176 23.6372 47.3787 23.6267 47.3407C23.6024 47.2225 23.5702 47.1061 23.5302 46.9922C23.5105 46.7319 23.6371 46.5275 23.8881 46.3206C25.1219 45.3226 26.3418 44.3084 27.5606 43.2929C27.75 43.1349 27.9579 43.1686 28.1648 43.1686C29.5369 43.1686 30.9101 43.1977 32.2811 43.1512C32.8446 43.1326 32.9945 43.2813 32.9712 43.8483C32.9236 45.0264 32.9573 45.0101 31.8001 45.0333C31.268 45.0426 30.5221 44.7836 30.2595 45.1495C29.997 45.5155 30.1945 46.2231 30.1898 46.7761C30.1759 46.8493 30.2061 46.8795 30.2804 46.8655L32.9526 46.8992C32.9526 47.3256 32.9306 47.7532 32.9666 48.1772C33.0026 48.6013 32.8841 48.7663 32.4089 48.7582C30.2409 48.7303 28.0741 48.7465 25.9027 48.7465C24.5852 48.7465 24.6038 48.7465 24.5828 50.0652C24.5759 50.4928 24.677 50.6171 25.1196 50.6113C27.2678 50.5869 29.4184 50.6008 31.5643 50.6008C32.9852 50.6008 32.9654 50.6008 32.9666 52.0124C32.9666 52.4319 32.8016 52.4714 32.4589 52.4679C31.0647 52.4528 29.6705 52.4748 28.2763 52.4528C27.9196 52.447 27.7221 52.569 27.5327 52.8594C26.494 54.4441 25.4275 56.0114 24.3958 57.5985C24.2976 57.772 24.1455 57.9087 23.9624 57.9877C23.8537 57.9748 23.7443 57.9678 23.6348 57.9668C23.054 57.965 22.4865 58.1411 22.0087 58.4712C21.5308 58.8014 21.1655 59.2699 20.9617 59.8138C20.7579 60.3578 20.7255 60.951 20.8687 61.5139C21.012 62.0768 21.3241 62.5823 21.7631 62.9626L21.8107 63.0045L21.8398 63.0277C21.9366 63.1078 22.0391 63.1808 22.1465 63.2461L22.186 63.2694L22.2511 63.3065C22.6745 63.5406 23.1509 63.6622 23.6348 63.6597C23.7462 63.6596 23.8576 63.653 23.9682 63.64C24.6112 63.5934 25.212 63.3024 25.6471 62.8267C26.1482 62.3258 26.4444 61.656 26.478 60.9482C26.5115 60.2405 26.2798 59.5457 25.8283 58.9997C25.8089 58.9331 25.8058 58.8629 25.8193 58.7949C25.8329 58.7269 25.8627 58.6633 25.9062 58.6093C26.8395 57.2515 27.7632 55.8887 28.6771 54.5208C28.7234 54.4488 28.7891 54.3914 28.8666 54.355C28.944 54.3186 29.0302 54.3048 29.1151 54.3152C30.277 54.3152 31.4388 54.3233 32.6006 54.3152C32.8574 54.3152 32.9492 54.3663 32.9805 54.6637C33.1769 56.9479 34.8487 58.6697 37.1492 58.9392C37.5151 58.9822 37.6278 59.067 37.6232 59.4411C37.6038 61.1831 37.6038 62.9258 37.6232 64.6694C37.629 64.8021 37.6055 64.9344 37.5545 65.0571C37.5035 65.1798 37.4262 65.2897 37.3281 65.3792C36.5566 66.1402 35.7805 66.8966 35.0311 67.6797C34.7221 68.0026 34.4305 68.3407 34.0506 68.429C33.445 68.1703 32.7685 68.1294 32.1362 68.3133C31.504 68.4973 30.955 68.8947 30.5827 69.4378C30.2104 69.981 30.0379 70.6364 30.0946 71.2925C30.1512 71.9486 30.4334 72.5647 30.8933 73.0361C31.3531 73.5075 31.9621 73.8049 32.6165 73.8778C33.271 73.9507 33.9305 73.7945 34.4827 73.4358C35.0349 73.0771 35.4458 72.5381 35.6454 71.9106C35.8449 71.2831 35.8208 70.6058 35.5772 69.994C35.576 69.909 35.5935 69.8248 35.6285 69.7473C35.6634 69.6698 35.7149 69.601 35.7794 69.5455C36.9191 68.4023 38.103 67.3009 39.1719 66.0891C39.2719 65.9902 39.3509 65.8721 39.4042 65.742C39.4575 65.6118 39.484 65.4722 39.4821 65.3316C39.467 63.6667 39.474 62.003 39.474 60.3358C39.474 58.9509 39.474 58.9636 40.8531 58.9625C41.2202 58.9625 41.3503 59.0438 41.3422 59.4365C41.3155 60.6738 41.3317 61.9135 41.3317 63.1543C41.3317 64.5776 41.3317 64.5578 42.7387 64.5602C43.1523 64.5602 43.2034 64.4045 43.1976 64.0571C43.1802 62.7988 43.1907 61.5406 43.1907 60.2835C43.1907 58.9648 43.1907 58.9927 44.5082 58.959C45.0031 58.9462 45.06 59.1344 45.0565 59.5515C45.0391 61.7962 45.0565 64.042 45.0368 66.2901C45.0368 66.7409 45.153 67.0139 45.555 67.2567C47.0944 68.1862 48.6013 69.1621 50.1337 70.0986C50.3661 70.2392 50.5218 70.3786 50.5984 70.5819C50.5192 70.9567 50.5165 71.3436 50.5903 71.7194C50.6642 72.0953 50.8131 72.4524 51.0283 72.7693C51.2434 73.0863 51.5203 73.3565 51.8424 73.5639C52.1644 73.7713 52.525 73.9115 52.9026 73.9762C53.2802 74.0409 53.6669 74.0287 54.0396 73.9404C54.4124 73.8521 54.7634 73.6895 55.0718 73.4623C55.3802 73.235 55.6396 72.9479 55.8344 72.6181C56.0291 72.2882 56.1554 71.9225 56.2054 71.5427C56.2905 71.1327 56.2771 70.7083 56.1664 70.3044C56.0557 69.9005 55.8509 69.5285 55.5687 69.2191C55.1622 68.7473 54.6081 68.4268 53.9964 68.3098C53.3847 68.1927 52.7515 68.2859 52.1994 68.5743C52.1309 68.6056 52.0635 68.6393 51.9985 68.6753C51.6917 68.8101 51.4663 68.7578 51.1631 68.5592C49.8851 67.7285 48.5838 66.9233 47.2791 66.1286C46.9956 65.9567 46.9004 65.7626 46.9027 65.4315C46.9166 63.4386 46.9166 61.4453 46.9027 59.4516C46.9027 59.0903 46.9712 58.9555 47.3674 58.9567C48.7616 58.9567 48.7616 58.9416 48.7616 60.3148V60.3729C48.7616 61.8194 48.7616 61.8089 50.2394 61.7671C50.5497 61.7578 50.6345 61.6684 50.6252 61.3686C50.6054 60.711 50.6345 60.0523 50.6136 59.3935C50.6031 59.0775 50.6833 58.9671 51.0237 58.9602C52.4783 58.9311 52.4783 58.9183 52.4771 60.3764C52.4771 62.1958 52.4899 64.0153 52.4667 65.837C52.4609 66.2738 52.5503 66.4272 53.0267 66.4179C54.8856 66.3865 56.7445 66.4121 58.6034 66.3982C58.774 66.3837 58.945 66.42 59.0949 66.5027C59.3366 67.1217 59.7872 67.6367 60.3687 67.9583C60.9502 68.2799 61.6259 68.388 62.2787 68.2637C62.9315 68.1395 63.5202 67.7907 63.9429 67.2779C64.3656 66.7652 64.5955 66.1207 64.5929 65.4562C64.5902 64.7916 64.3552 64.149 63.9285 63.6396C63.5018 63.1302 62.9103 62.7861 62.2565 62.6671C61.6027 62.548 60.9279 62.6614 60.349 62.9876C59.7701 63.3139 59.3235 63.8324 59.0868 64.4533C58.9386 64.5321 58.7706 64.566 58.6034 64.5509C57.3649 64.5346 56.1253 64.5183 54.8856 64.5578C54.4023 64.5729 54.3209 64.4045 54.3279 63.9769C54.3523 62.4863 54.3465 60.9957 54.3279 59.505C54.3279 59.1495 54.357 59.002 54.7985 58.9509C57.0547 58.6894 58.7998 56.7852 58.9578 54.6963C58.981 54.3826 59.0879 54.321 59.3737 54.3221C61.7942 54.3322 64.2135 54.3322 66.6316 54.3221C66.7363 54.3149 66.8411 54.3321 66.9379 54.3725C67.0347 54.4128 67.1208 54.4751 67.1893 54.5545C67.3527 54.7461 67.5314 54.9241 67.7238 55.0866C68.1885 55.4619 68.4383 55.8314 68.3883 56.4216C68.3565 56.5519 68.3336 56.6843 68.3198 56.8177C68.0944 57.7925 68.6044 58.7928 69.434 59.3738C69.7938 59.6474 70.2136 59.8315 70.6586 59.9107C71.1037 59.9898 71.5612 59.9619 71.9933 59.8291C72.4254 59.6963 72.8197 59.4625 73.1435 59.1471C73.4673 58.8317 73.7113 58.4436 73.8554 58.0151C73.9994 57.5866 74.0393 57.13 73.9718 56.683C73.9043 56.236 73.7313 55.8116 73.4671 55.4447C73.2029 55.0779 72.8552 54.7793 72.4526 54.5736C72.0501 54.3678 71.6044 54.2609 71.1523 54.2617L71.1535 54.2489ZM71.0373 41.3771C71.2048 41.3771 71.3686 41.4268 71.5078 41.5198C71.6471 41.6129 71.7557 41.7452 71.8198 41.8999C71.8839 42.0547 71.9007 42.225 71.868 42.3893C71.8353 42.5536 71.7546 42.7045 71.6362 42.823C71.5177 42.9414 71.3668 43.0221 71.2025 43.0547C71.0382 43.0874 70.8679 43.0707 70.7132 43.0065C70.5584 42.9424 70.4261 42.8339 70.3331 42.6946C70.24 42.5553 70.1903 42.3916 70.1903 42.2241C70.1903 41.9994 70.2796 41.784 70.4384 41.6252C70.5972 41.4663 70.8127 41.3771 71.0373 41.3771ZM67.3195 33.0119C67.487 33.0119 67.6507 33.0616 67.79 33.1547C67.9293 33.2477 68.0378 33.38 68.102 33.5348C68.1661 33.6895 68.1828 33.8598 68.1502 34.0241C68.1175 34.1884 68.0368 34.3394 67.9184 34.4578C67.7999 34.5763 67.649 34.6569 67.4847 34.6896C67.3204 34.7223 67.1501 34.7055 66.9953 34.6414C66.8406 34.5773 66.7083 34.4687 66.6152 34.3295C66.5222 34.1902 66.4725 34.0264 66.4725 33.8589C66.4725 33.6343 66.5617 33.4188 66.7206 33.26C66.8794 33.1012 67.0948 33.0119 67.3195 33.0119ZM60.8132 21.8584C60.9807 21.8584 61.1445 21.9081 61.2838 22.0011C61.4231 22.0942 61.5316 22.2265 61.5957 22.3813C61.6598 22.536 61.6766 22.7063 61.6439 22.8706C61.6112 23.0349 61.5306 23.1858 61.4121 23.3043C61.2937 23.4227 61.1428 23.5034 60.9785 23.5361C60.8142 23.5688 60.6439 23.552 60.4891 23.4879C60.3343 23.4238 60.2021 23.3152 60.109 23.1759C60.0159 23.0366 59.9663 22.8729 59.9663 22.7054C59.9663 22.4807 60.0555 22.2653 60.2143 22.1065C60.3732 21.9476 60.5886 21.8584 60.8132 21.8584ZM32.9294 21.6934C32.7619 21.6934 32.5981 21.6438 32.4589 21.5507C32.3196 21.4576 32.211 21.3253 32.1469 21.1706C32.0828 21.0158 32.066 20.8455 32.0987 20.6812C32.1314 20.5169 32.2121 20.366 32.3305 20.2476C32.449 20.1291 32.5999 20.0484 32.7642 20.0158C32.9285 19.9831 33.0988 19.9999 33.2535 20.064C33.4083 20.1281 33.5406 20.2366 33.6336 20.3759C33.7267 20.5152 33.7764 20.6789 33.7764 20.8465C33.7764 20.9577 33.7545 21.0678 33.7119 21.1706C33.6693 21.2733 33.607 21.3667 33.5283 21.4454C33.4497 21.524 33.3563 21.5864 33.2535 21.629C33.1508 21.6715 33.0406 21.6934 32.9294 21.6934ZM24.5643 34.7059C24.3967 34.7059 24.233 34.6562 24.0937 34.5631C23.9544 34.4701 23.8459 34.3378 23.7818 34.183C23.7177 34.0283 23.7009 33.858 23.7336 33.6937C23.7662 33.5294 23.8469 33.3785 23.9654 33.26C24.0838 33.1416 24.2347 33.0609 24.399 33.0282C24.5633 32.9955 24.7336 33.0123 24.8884 33.0764C25.0431 33.1405 25.1754 33.2491 25.2685 33.3884C25.3616 33.5276 25.4112 33.6914 25.4112 33.8589C25.4112 34.0835 25.322 34.299 25.1632 34.4578C25.0043 34.6166 24.7889 34.7059 24.5643 34.7059ZM21.2124 48.6803C21.0999 48.7179 20.9824 48.7383 20.8638 48.7407C20.7587 48.7461 20.6533 48.7355 20.5513 48.7094C20.3685 48.6408 20.2151 48.5111 20.1169 48.3424C20.0187 48.1737 19.9818 47.9762 20.0125 47.7834C20.0431 47.5906 20.1394 47.4143 20.2851 47.2844C20.4308 47.1544 20.6169 47.0788 20.8119 47.0702C21.0069 47.0617 21.1989 47.1208 21.3554 47.2375C21.5118 47.3543 21.6232 47.5215 21.6706 47.7108C21.718 47.9002 21.6985 48.1001 21.6154 48.2768C21.5323 48.4535 21.3908 48.596 21.2147 48.6803H21.2124ZM23.6348 61.6602C23.4673 61.6602 23.3035 61.6106 23.1642 61.5175C23.025 61.4244 22.9164 61.2921 22.8523 61.1374C22.7882 60.9826 22.7714 60.8123 22.8041 60.648C22.8368 60.4837 22.9174 60.3328 23.0359 60.2144C23.1543 60.0959 23.3053 60.0152 23.4696 59.9826C23.6339 59.9499 23.8042 59.9667 23.9589 60.0308C24.1137 60.0949 24.246 60.2034 24.339 60.3427C24.4321 60.482 24.4818 60.6457 24.4818 60.8133C24.4818 61.0379 24.3925 61.2533 24.2337 61.4122C24.0749 61.571 23.8594 61.6602 23.6348 61.6602ZM32.9294 71.8843C32.7619 71.8843 32.5981 71.8346 32.4589 71.7416C32.3196 71.6485 32.211 71.5162 32.1469 71.3615C32.0828 71.2067 32.066 71.0364 32.0987 70.8721C32.1314 70.7078 32.2121 70.5569 32.3305 70.4384C32.449 70.32 32.5999 70.2393 32.7642 70.2066C32.9285 70.174 33.0988 70.1907 33.2535 70.2548C33.4083 70.3189 33.5406 70.4275 33.6336 70.5668C33.7267 70.7061 33.7764 70.8698 33.7764 71.0373C33.7764 71.1486 33.7545 71.2587 33.7119 71.3615C33.6693 71.4642 33.607 71.5576 33.5283 71.6362C33.4497 71.7149 33.3563 71.7773 33.2535 71.8198C33.1508 71.8624 33.0406 71.8843 32.9294 71.8843ZM53.3775 70.3065C53.5518 70.3064 53.7218 70.3601 53.8645 70.4601C54.0072 70.5602 54.1155 70.7019 54.1747 70.8657C54.2339 71.0296 54.2411 71.2078 54.1953 71.3759C54.1496 71.5441 54.0531 71.694 53.919 71.8053C53.7548 71.9193 53.5574 71.9757 53.3578 71.9656C53.2048 71.957 53.0564 71.9107 52.9256 71.8308C52.7949 71.751 52.6859 71.64 52.6084 71.5079C52.549 71.3788 52.5229 71.2369 52.5327 71.0952C52.5425 70.9535 52.5878 70.8165 52.6644 70.6968C52.741 70.5772 52.8465 70.4787 52.9711 70.4105C53.0957 70.3423 53.2355 70.3066 53.3775 70.3065ZM61.7427 64.6136C61.9102 64.6136 62.074 64.6633 62.2132 64.7563C62.3525 64.8494 62.4611 64.9817 62.5252 65.1364C62.5893 65.2912 62.6061 65.4615 62.5734 65.6258C62.5407 65.7901 62.46 65.941 62.3416 66.0595C62.2231 66.1779 62.0722 66.2586 61.9079 66.2913C61.7436 66.3239 61.5733 66.3072 61.4186 66.2431C61.2638 66.179 61.1315 66.0704 61.0385 65.9311C60.9454 65.7918 60.8957 65.6281 60.8957 65.4606C60.8957 65.3493 60.9176 65.2392 60.9602 65.1364C61.0028 65.0337 61.0651 64.9403 61.1438 64.8617C61.2224 64.783 61.3158 64.7206 61.4186 64.6781C61.5213 64.6355 61.6315 64.6136 61.7427 64.6136ZM45.9419 22.7879C46.1094 22.7879 46.2731 22.8375 46.4124 22.9306C46.5517 23.0237 46.6602 23.156 46.7244 23.3107C46.7885 23.4655 46.8052 23.6358 46.7726 23.8001C46.7399 23.9644 46.6592 24.1153 46.5408 24.2337C46.4223 24.3522 46.2714 24.4329 46.1071 24.4655C45.9428 24.4982 45.7725 24.4814 45.6177 24.4173C45.463 24.3532 45.3307 24.2447 45.2376 24.1054C45.1446 23.9661 45.0949 23.8024 45.0949 23.6348C45.0949 23.5236 45.1168 23.4135 45.1594 23.3107C45.2019 23.208 45.2643 23.1146 45.343 23.0359C45.4216 22.9573 45.515 22.8949 45.6177 22.8523C45.7205 22.8098 45.8306 22.7879 45.9419 22.7879ZM57.1244 54.0863C57.1186 55.9452 55.9707 57.107 54.1304 57.107C48.6931 57.107 43.2561 57.107 37.8195 57.107C35.9792 57.107 34.829 55.9452 34.8243 54.0863C34.8174 51.6077 34.8112 49.1315 34.8058 46.6576C34.8127 43.7379 34.8743 40.8171 34.8058 37.8997C34.7581 35.8747 36.3359 34.7733 37.9032 34.7884C43.2975 34.8383 48.6919 34.8058 54.0874 34.8081C55.9696 34.8081 57.1175 35.9583 57.1209 37.8416C57.1279 41.1668 57.1345 44.4919 57.1407 47.8171L57.1244 54.0863ZM71.8657 57.5543C71.7709 57.7015 71.6328 57.8156 71.4705 57.8811C71.3082 57.9465 71.1296 57.9601 70.9593 57.9199C70.7889 57.8798 70.6352 57.7878 70.5193 57.6567C70.4033 57.5256 70.3308 57.3618 70.3118 57.1878C70.2927 57.0138 70.328 56.8382 70.4128 56.6851C70.4977 56.532 70.6278 56.409 70.7854 56.3329C70.943 56.2568 71.1203 56.2314 71.293 56.2601C71.4656 56.2889 71.6251 56.3705 71.7495 56.4936C71.8786 56.6354 71.9594 56.8144 71.9803 57.0051C72.0011 57.1957 71.961 57.388 71.8657 57.5543Z" fill="#2FD5E0"/>
  <path d="M45.9872 44.9544C45.3057 44.9536 44.6455 45.1914 44.121 45.6265C43.5966 46.0616 43.241 46.6666 43.1159 47.3365C42.9909 48.0064 43.1043 48.6989 43.4365 49.2939C43.7687 49.8889 44.2987 50.3488 44.9346 50.5939C44.9305 50.615 44.9282 50.6364 44.9276 50.6578V52.059C44.9276 52.1659 44.9701 52.2684 45.0457 52.344C45.1213 52.4197 45.2239 52.4621 45.3308 52.4621H46.4996C46.6065 52.4621 46.709 52.4197 46.7846 52.344C46.8602 52.2684 46.9027 52.1659 46.9027 52.059V50.6578C46.9027 50.6578 46.9027 50.6485 46.9027 50.6427C47.5652 50.4283 48.1292 49.9841 48.4927 49.3902C48.8563 48.7963 48.9954 48.0919 48.885 47.4044C48.7746 46.7169 48.4219 46.0916 47.8906 45.6414C47.3594 45.1912 46.6847 44.9459 45.9884 44.9498L45.9872 44.9544ZM45.9872 48.7408C45.8153 48.741 45.6471 48.6903 45.5041 48.5949C45.361 48.4995 45.2494 48.3639 45.1835 48.2051C45.1175 48.0463 45.1002 47.8716 45.1336 47.7029C45.167 47.5343 45.2496 47.3793 45.3711 47.2576C45.4926 47.136 45.6475 47.0531 45.8161 47.0195C45.9847 46.9859 46.1595 47.003 46.3183 47.0687C46.4772 47.1345 46.613 47.2459 46.7085 47.3888C46.8041 47.5317 46.8551 47.6998 46.8551 47.8717C46.8551 48.102 46.7637 48.3229 46.601 48.4858C46.4382 48.6488 46.2175 48.7405 45.9872 48.7408Z" fill="#2FD5E0"/>
  </g>
  <defs>
  <clipPath id="clip0_8_23">
  <rect width="56" height="56" fill="white" transform="translate(18 18)"/>
  </clipPath>
  </defs>
  </svg>
  