<svg width="321" height="68" viewBox="0 0 321 68" fill="none" xmlns="http://www.w3.org/2000/svg">
<path d="M53.5006 57.9703V22.8664H60.0928V37.3593H73.0773V22.8664H79.6695V57.9703H73.0773V43.3771H60.0928V57.9703H53.5006Z" fill="white"/>
<path d="M94.1648 58.6724C92.4002 58.6724 90.8188 58.3715 89.4204 57.7697C88.0221 57.1345 86.9067 56.2318 86.0744 55.0617C85.2753 53.8581 84.8758 52.4038 84.8758 50.6988C84.8758 48.9937 85.2753 47.5729 86.0744 46.4362C86.9067 45.266 88.0387 44.3968 89.4704 43.8285C90.9353 43.2267 92.6 42.9258 94.4644 42.9258H101.256V41.5216C101.256 40.3515 100.89 39.3987 100.158 38.6632C99.4252 37.8942 98.2599 37.5098 96.6618 37.5098C95.097 37.5098 93.9317 37.8775 93.166 38.613C92.4002 39.3151 91.9008 40.2345 91.6678 41.3712L85.8746 39.4154C86.2742 38.145 86.9067 36.9916 87.7724 35.9552C88.6713 34.8853 89.8532 34.0328 91.3182 33.3976C92.8164 32.7289 94.6309 32.3946 96.7617 32.3946C100.024 32.3946 102.605 33.2137 104.503 34.8519C106.4 36.4901 107.349 38.8638 107.349 41.973V51.2504C107.349 52.2534 107.815 52.7549 108.747 52.7549H110.745V57.9703H106.55C105.318 57.9703 104.303 57.6694 103.504 57.0676C102.705 56.4659 102.305 55.6635 102.305 54.6605V54.6104H101.356C101.223 55.0116 100.923 55.5465 100.457 56.2151C99.9912 56.8503 99.2587 57.4187 98.2599 57.9202C97.2611 58.4217 95.8961 58.6724 94.1648 58.6724ZM95.2635 53.5573C97.028 53.5573 98.4597 53.0725 99.5584 52.1029C100.69 51.1 101.256 49.7794 101.256 48.1412V47.6397H94.9139C93.7486 47.6397 92.833 47.8905 92.1672 48.392C91.5013 48.8934 91.1683 49.5955 91.1683 50.4982C91.1683 51.4009 91.5179 52.1364 92.2171 52.7047C92.9163 53.2731 93.9317 53.5573 95.2635 53.5573Z" fill="white"/>
<path d="M126.494 58.6724C124.097 58.6724 121.916 58.1709 119.952 57.1679C118.021 56.165 116.49 54.7107 115.358 52.805C114.226 50.8994 113.66 48.5926 113.66 45.8845V45.1825C113.66 42.4744 114.226 40.1676 115.358 38.262C116.49 36.3563 118.021 34.902 119.952 33.8991C121.916 32.8961 124.097 32.3946 126.494 32.3946C128.858 32.3946 130.889 32.8125 132.587 33.6483C134.285 34.4841 135.65 35.6375 136.682 37.1086C137.748 38.5462 138.447 40.1843 138.78 42.0231L132.687 43.327C132.554 42.324 132.254 41.4213 131.788 40.619C131.322 39.8166 130.656 39.1814 129.79 38.7133C128.958 38.2453 127.909 38.0112 126.644 38.0112C125.379 38.0112 124.23 38.2954 123.198 38.8638C122.199 39.3987 121.4 40.2178 120.801 41.321C120.235 42.3909 119.952 43.7114 119.952 45.2828V45.7842C119.952 47.3556 120.235 48.6929 120.801 49.7961C121.4 50.866 122.199 51.685 123.198 52.2534C124.23 52.7883 125.379 53.0558 126.644 53.0558C128.542 53.0558 129.974 52.571 130.939 51.6015C131.938 50.5985 132.57 49.2946 132.837 47.6899L138.93 49.1442C138.497 50.9161 137.748 52.5376 136.682 54.0086C135.65 55.4462 134.285 56.5829 132.587 57.4187C130.889 58.2545 128.858 58.6724 126.494 58.6724Z" fill="white"/>
<path d="M144.12 57.9703V22.8664H150.413V42.2739H151.312L159.502 33.0967H167.692L156.256 45.1323L168.092 57.9703H160.001L151.312 48.0911H150.413V57.9703H144.12Z" fill="white"/>
<path d="M172.11 57.9703V22.8664H178.702V57.9703H172.11Z" fill="white"/>
<path d="M193.368 57.9703V28.8842H183.18V22.8664H210.148V28.8842H199.96V57.9703H193.368Z" fill="white"/>
<path d="M210.742 68L225.424 22.8664H231.118L216.435 68H210.742Z" fill="#FFA300"/>
<path d="M232.805 57.9703V52.1531H237.4V28.6836H232.805V22.8664H250.784C252.915 22.8664 254.762 23.2342 256.327 23.9697C257.925 24.6718 259.157 25.6914 260.023 27.0287C260.922 28.3326 261.371 29.9039 261.371 31.7427V32.2442C261.371 33.8489 261.072 35.1695 260.472 36.2059C259.873 37.2089 259.157 37.9945 258.325 38.5629C257.526 39.0978 256.76 39.4823 256.028 39.7163V40.619C256.76 40.8196 257.559 41.204 258.425 41.7724C259.29 42.3073 260.023 43.0929 260.622 44.1293C261.255 45.1657 261.571 46.5198 261.571 48.1914V48.6929C261.571 50.6319 261.121 52.3035 260.223 53.7077C259.324 55.0784 258.075 56.1315 256.477 56.867C254.912 57.6026 253.081 57.9703 250.984 57.9703H232.805ZM243.992 51.9525H250.185C251.616 51.9525 252.765 51.6015 253.63 50.8994C254.529 50.1973 254.979 49.1943 254.979 47.8905V47.389C254.979 46.0851 254.546 45.0822 253.68 44.3801C252.815 43.678 251.649 43.327 250.185 43.327H243.992V51.9525ZM243.992 37.3092H250.085C251.45 37.3092 252.565 36.9581 253.431 36.256C254.33 35.554 254.779 34.5844 254.779 33.3474V32.846C254.779 31.5755 254.346 30.606 253.481 29.9373C252.615 29.2353 251.483 28.8842 250.085 28.8842H243.992V37.3092Z" fill="white"/>
<path d="M264.278 57.9703L273.467 22.8664H284.953L294.142 57.9703H287.351L285.453 50.2475H272.968L271.07 57.9703H264.278ZM274.516 44.1293H283.905L279.66 27.0287H278.761L274.516 44.1293Z" fill="white"/>
<path d="M300.025 51.451V45.8845L315.407 40.8195V40.0172L300.025 34.9522V29.3857L321 36.8578V43.9789L300.025 51.451Z" fill="#FFA300"/>
<path d="M7.93614 17.3634V25.3326H0L3.46899e-07 17.3634H7.93614Z" fill="#FFA300"/>
<path d="M50.2045 3.48343e-07L50.2045 7.96915H42.2684V0L50.2045 3.48343e-07Z" fill="#FFA300"/>
<path d="M7.93614 42.4441V50.4132H0L3.46899e-07 42.4441L7.93614 42.4441Z" fill="#035EEB"/>
<path d="M36.7441 42.4441V54.2604H24.9767V42.4441L36.7441 42.4441Z" fill="#FFA300"/>
<path d="M25.1993 25.0806V42.6677L7.68505 42.6677L7.68505 25.0806L25.1993 25.0806Z" fill="#035EEB"/>
<path d="M42.4908 7.71717V25.3043H24.9766V7.71717L42.4908 7.71717Z" fill="#01CBA1"/>
</svg>
