<svg width="93" height="93" viewBox="0 0 93 93" fill="none" xmlns="http://www.w3.org/2000/svg">
  <rect width="93" height="93" rx="17.4375" fill="#1E212A"/>
  <g clip-path="url(#clip0_8_22)">
  <path d="M49.9652 41.4594C49.6991 40.9743 49.3177 40.5621 48.8547 40.2591C48.3917 39.9561 47.8613 39.7717 47.3103 39.722C46.9088 39.6748 46.8875 39.5095 46.8875 39.1946C46.8875 37.8261 46.8796 37.8452 45.4931 37.8745C45.1557 37.8824 45.086 38.0072 45.104 38.3029C45.1242 38.6403 45.0916 38.9776 45.1152 39.315C45.1366 39.6163 45.0174 39.6894 44.7307 39.695C44.2708 39.704 43.6287 39.4701 43.3993 39.7918C43.1699 40.1134 43.325 40.7228 43.3149 41.2052C43.3149 41.2986 43.3149 41.3919 43.3228 41.4852L45.1029 41.492C46.0362 41.51 46.9909 41.2727 47.8849 41.7371C48.1038 41.6242 48.3499 41.5743 48.5956 41.5932C48.3499 41.5743 48.1038 41.6242 47.8849 41.7371C48.9037 42.7177 48.97 43.8399 48.0513 44.6372C47.8668 44.7962 47.6524 44.9165 47.4206 44.9913C47.1889 45.066 46.9445 45.0936 46.7019 45.0724C46.1858 45.0443 45.5234 45.2973 45.1928 44.9678C44.887 44.6653 45.113 44.0097 45.1029 43.506C45.0883 42.8313 45.1029 42.1566 45.1029 41.4886L43.3228 41.4819C43.3161 44.9442 43.3138 48.4054 43.2981 51.8677C43.2981 52.1983 43.4105 52.2815 43.7209 52.2703C44.1493 52.2546 44.7003 52.1207 44.9781 52.3299C45.3154 52.5829 45.0905 53.1688 45.0905 53.6051C45.0905 53.9807 45.212 54.0706 45.5707 54.0717C46.8875 54.0717 46.8987 54.0897 46.892 52.7819C46.892 52.4311 46.9459 52.2872 47.3519 52.2197C50.2756 51.762 51.472 48.5595 49.5773 46.2846C49.3625 46.026 49.3737 45.9068 49.5773 45.6448C50.6658 44.2459 50.7883 42.7537 49.9652 41.4594ZM47.0415 50.4554C46.5006 50.4902 45.9575 50.4554 45.4155 50.47C45.1625 50.4767 45.0961 50.3632 45.1006 50.1326C45.1108 49.6468 45.1006 49.1611 45.1006 48.6708C45.1006 48.1805 45.1119 47.6981 45.1006 47.2089C45.0916 46.9413 45.1895 46.848 45.456 46.8558C45.9789 46.8716 46.504 46.8379 47.0246 46.8693C47.4787 46.8971 47.9052 47.0964 48.2177 47.427C48.5302 47.7575 48.7054 48.1945 48.7077 48.6494C48.71 49.1043 48.5392 49.5431 48.23 49.8767C47.9209 50.2104 47.4964 50.414 47.0426 50.4464L47.0415 50.4554Z" fill="#2FD5E0"/>
  <path d="M67.2834 58.2469C67.027 57.9928 66.8774 57.9692 66.6166 58.2469C65.88 59.0195 65.0962 59.747 64.3676 60.5252C64.0302 60.8771 63.8132 60.8535 63.5096 60.5083C63.0159 59.946 62.4975 59.4085 61.9746 58.8766C61.0031 57.8916 61.0098 57.9073 60.0427 58.8991C59.7852 59.1634 59.837 59.2995 60.0686 59.5255C60.9266 60.361 61.77 61.2122 62.6133 62.0646C62.8562 62.3097 63.2611 62.5425 63.0519 62.9372C62.9046 63.2172 62.5099 63.0497 62.2288 63.0553C61.2909 63.0721 61.2898 63.0609 61.2898 64.0044C61.2898 64.8623 61.2898 64.8635 62.1444 64.8635C63.089 64.8635 63.089 64.8635 63.0879 65.8002C63.0879 66.6571 63.0879 66.6571 62.2321 66.6571C61.2898 66.6571 61.2898 66.6571 61.2887 67.5949C61.2887 68.4619 61.2887 68.4619 62.1332 68.4619C63.0868 68.4619 63.0868 68.4619 63.0856 69.3885C63.0856 70.2622 63.0856 70.2622 63.9796 70.2622C64.895 70.2622 64.895 70.2622 64.8938 69.3525C64.8938 69.1838 64.9073 69.0151 64.8938 68.8465C64.8657 68.5608 64.9636 68.4383 65.2683 68.4574C65.6225 68.4799 65.9801 68.4506 66.3354 68.4652C66.5941 68.4765 66.6852 68.3955 66.702 68.1212C66.792 66.6784 66.801 66.6795 65.3762 66.6593C65.2829 66.6593 65.1896 66.6593 65.0962 66.6593C65.0029 66.6593 64.9073 66.6166 64.9062 66.5007C64.9062 65.9958 64.7848 65.4426 64.9546 65.0007C65.076 64.6847 65.6293 64.9208 65.9868 64.8713C66.0801 64.8584 66.1747 64.8584 66.268 64.8713C66.6301 64.9276 66.6964 64.7533 66.7009 64.4215C66.7155 63.0823 66.7268 63.0845 65.3796 63.0609C65.2244 63.0609 65.0052 63.1509 64.9298 62.9664C64.8865 62.8717 64.8735 62.7658 64.8927 62.6634C64.9118 62.5609 64.9621 62.4669 65.0366 62.3941C65.1783 62.2479 65.2829 62.0668 65.4291 61.9252C66.0453 61.3269 66.6795 60.7478 67.2913 60.1451C68.2471 59.1859 68.2325 59.1893 67.2834 58.2469Z" fill="#2FD5E0"/>
  <path d="M29.3576 59.4547C30.788 59.4806 30.7891 59.4603 30.7149 58.0378C30.7132 58.0191 30.7132 58.0003 30.7149 57.9816C30.743 57.7365 30.6294 57.6544 30.3899 57.6589C29.8479 57.6712 29.3037 57.651 28.7617 57.6679C27.6653 57.71 26.6214 58.1486 25.824 58.9023C25.0265 59.6559 24.5296 60.6733 24.4256 61.7655C24.3862 62.1872 24.6201 62.7607 24.2985 62.9867C24.0073 63.1925 23.4686 63.0643 23.0402 63.0508C22.7422 63.0418 22.6185 63.1093 22.6084 63.4478C22.5657 64.8388 22.5522 64.8545 23.9286 64.8478C24.3289 64.8478 24.4301 64.9658 24.4233 65.3538C24.4009 66.8325 24.4233 68.3124 24.4042 69.7911C24.4042 70.1509 24.4931 70.2768 24.8698 70.2667C25.7694 70.2397 26.669 70.2577 27.5686 70.2577H29.4217C30.7374 70.2577 30.7228 70.2577 30.7295 68.9477C30.7295 68.5631 30.6396 68.4315 30.2359 68.4405C29.0563 68.4675 27.8744 68.4405 26.6971 68.4574C26.3485 68.4574 26.2012 68.3888 26.2135 68.0009C26.242 67.1013 26.242 66.2017 26.2135 65.3021C26.2 64.9074 26.3575 64.8264 26.7016 64.8523C27.0457 64.8781 27.3763 64.8523 27.7136 64.8523C27.8711 64.8523 28.0251 64.8523 28.0184 64.6274C28.0026 64.1258 28.1859 63.5512 27.9363 63.1464C27.7653 62.8687 27.2042 63.0846 26.8196 63.052C26.7073 63.0441 26.5946 63.0441 26.4823 63.052C26.2855 63.0632 26.2293 62.9642 26.2214 62.781C26.1888 62.0613 26.2214 61.3393 26.6094 60.7186C27.238 59.7189 28.2219 59.4344 29.3576 59.4547Z" fill="#2FD5E0"/>
  <path d="M24.4099 26.0683C24.3098 27.5728 25.6705 28.9582 27.2346 28.8862C27.6462 28.8683 28.0589 28.8862 28.4716 28.8862C29.5837 28.8862 29.8468 29.1741 29.821 30.2986C29.8142 30.5752 29.7647 30.6989 29.4533 30.6899C28.6852 30.6686 27.9172 30.6832 27.1492 30.6809C26.8039 30.6809 26.4643 30.5516 26.3688 30.2311C26.2305 29.7813 25.9505 29.7476 25.576 29.7757C25.3141 29.7983 25.0507 29.7983 24.7888 29.7757C24.429 29.7397 24.393 29.9073 24.4425 30.2042C24.5244 30.7453 24.773 31.2475 25.1538 31.6408C25.5345 32.034 26.0284 32.2987 26.5667 32.3981C27.0637 32.4835 27.1289 32.6781 27.1233 33.1099C27.0963 34.2805 27.1154 34.2467 28.2635 34.294C28.8157 34.3176 28.9506 34.1579 28.9292 33.6193C28.8843 32.4801 28.9158 32.4835 30.038 32.4779C30.5407 32.4779 31.2109 32.6454 31.4998 32.3913C31.8372 32.0933 31.5594 31.4062 31.6123 30.9947C31.6123 30.4965 31.6235 30.103 31.6123 29.7105C31.5929 29.0194 31.309 28.3621 30.8192 27.8742C30.3294 27.3862 29.671 27.1049 28.9798 27.0882C28.5121 27.0736 28.0443 27.0882 27.5754 27.0882C26.4205 27.0882 26.1225 26.7508 26.208 25.5915C26.2271 25.334 26.3204 25.2834 26.5453 25.2856C27.3325 25.2957 28.1196 25.2856 28.9068 25.2924C29.2509 25.2924 29.5882 25.4374 29.6725 25.759C29.7917 26.2156 30.0717 26.2088 30.4226 26.1919C30.6845 26.1688 30.9479 26.1688 31.2097 26.1919C31.6011 26.2381 31.6382 26.057 31.5797 25.7421C31.3672 24.5839 30.5159 23.7349 29.27 23.519C28.9855 23.4695 28.8933 23.3886 28.9079 23.1097C28.9292 22.7364 28.9079 22.3608 28.9079 21.9852C28.9079 21.8255 28.9079 21.6816 28.683 21.6895C28.1815 21.7052 27.608 21.577 27.2031 21.7783C26.9321 21.9155 27.1469 22.5396 27.1132 22.9433C27.107 22.9993 27.107 23.0559 27.1132 23.1119C27.1559 23.4066 27.0345 23.5021 26.7376 23.492C26.1394 23.4718 25.5389 23.5111 24.9384 23.4785C24.537 23.456 24.3762 23.5438 24.4009 23.9891C24.4472 24.6813 24.4502 25.3757 24.4099 26.0683Z" fill="#2FD5E0"/>
  <path d="M59.277 28.8683C58.7148 28.8447 58.5495 28.9875 58.5753 29.5633C58.627 30.681 58.5911 30.7091 59.6773 30.6709C60.1856 30.6529 60.388 30.7552 60.4735 31.3197C60.7389 33.0762 62.2997 34.3143 64.0719 34.2783C64.9305 34.2504 65.7515 33.9195 66.3895 33.3442C67.0276 32.769 67.4414 31.9865 67.5578 31.1353C67.5994 30.8227 67.5713 30.6338 67.1766 30.6743C66.8398 30.7003 66.5014 30.7003 66.1646 30.6743C65.8992 30.6608 65.7968 30.7339 65.7316 31.0206C65.5405 31.8584 64.9209 32.3936 64.1495 32.4701C63.4039 32.5432 62.637 32.0956 62.2794 31.376C62.0489 30.9115 62.167 30.6878 62.6449 30.681C64.0471 30.6608 64.0359 30.6608 63.9875 29.2462C63.9774 28.9414 63.8751 28.8605 63.5973 28.8762C63.224 28.8953 62.8484 28.8762 62.4728 28.8762C62.3109 28.8762 62.1726 28.8661 62.1793 28.6513C62.1962 28.1498 62.0669 27.5774 62.2704 27.1726C62.4065 26.9027 63.0306 27.1164 63.4354 27.0838C63.5102 27.0758 63.5855 27.0758 63.6603 27.0838C63.9043 27.1119 63.9684 27.0073 63.9853 26.7655C64.0854 25.3037 64.0977 25.3037 62.6359 25.2834C62.6172 25.2817 62.5984 25.2817 62.5797 25.2834C62.1917 25.343 62.1422 25.171 62.2356 24.8336C62.3388 24.4516 62.5634 24.1134 62.8756 23.87C63.1877 23.6266 63.5704 23.4912 63.9662 23.4842C64.3728 23.476 64.7696 23.6098 65.0882 23.8627C65.4068 24.1156 65.6272 24.4717 65.7114 24.8696C65.7912 25.2373 65.9363 25.3194 66.2601 25.2846C66.3909 25.2778 66.5219 25.2778 66.6526 25.2846C66.8207 25.2739 66.9894 25.2739 67.1575 25.2846C67.5196 25.334 67.6073 25.1879 67.5589 24.8438C67.4478 24.0207 67.0593 23.2602 66.4576 22.6878C65.856 22.1154 65.0771 21.7652 64.2495 21.6952C62.5302 21.5748 60.9266 22.723 60.5061 24.3726C60.2812 25.2857 60.2812 25.2857 59.3366 25.2857C58.5888 25.2857 58.5888 25.2857 58.5877 26.0144C58.5877 27.0849 58.5877 27.1186 59.6683 27.0714C60.2418 27.0467 60.4319 27.1838 60.4015 27.7899C60.3509 28.8807 60.3936 28.9167 59.277 28.8683Z" fill="#2FD5E0"/>
  <path d="M28.064 37.8755C30.0212 37.8755 31.9344 37.2951 33.5617 36.2078C35.189 35.1205 36.4574 33.575 37.2064 31.7668C37.9553 29.9586 38.1513 27.969 37.7695 26.0494C37.3877 24.1298 36.4452 22.3666 35.0613 20.9827C33.6774 19.5988 31.9141 18.6563 29.9946 18.2745C28.075 17.8927 26.0853 18.0886 24.2772 18.8376C22.469 19.5866 20.9235 20.8549 19.8362 22.4822C18.7488 24.1096 18.1685 26.0228 18.1685 27.9799C18.1685 30.6044 19.211 33.1214 21.0668 34.9772C22.9226 36.8329 25.4396 37.8755 28.064 37.8755ZM28.064 19.7711C29.6876 19.7711 31.2747 20.2525 32.6246 21.1545C33.9746 22.0565 35.0267 23.3386 35.648 24.8385C36.2693 26.3385 36.4319 27.989 36.1151 29.5814C35.7984 31.1738 35.0166 32.6364 33.8686 33.7845C32.7205 34.9325 31.2579 35.7143 29.6655 36.031C28.0731 36.3478 26.4226 36.1852 24.9227 35.5639C23.4227 34.9426 22.1406 33.8905 21.2386 32.5405C20.3366 31.1906 19.8552 29.6035 19.8552 27.9799C19.8552 25.8028 20.7201 23.7149 22.2595 22.1754C23.799 20.636 25.8869 19.7711 28.064 19.7711Z" fill="#2FD5E0"/>
  <path d="M28.064 54.0682C26.1069 54.0682 24.1937 54.6486 22.5664 55.7359C20.939 56.8233 19.6707 58.3688 18.9217 60.1769C18.1727 61.9851 17.9768 63.9748 18.3586 65.8944C18.7404 67.8139 19.6829 69.5771 21.0668 70.9611C22.4507 72.345 24.214 73.2875 26.1335 73.6693C28.0531 74.0511 30.0427 73.8551 31.8509 73.1062C33.6591 72.3572 35.2046 71.0888 36.2919 69.4615C37.3793 67.8342 37.9596 65.921 37.9596 63.9638C37.9596 61.3394 36.9171 58.8224 35.0613 56.9666C33.2055 55.1108 30.6885 54.0682 28.064 54.0682ZM28.064 72.1727C26.4405 72.1727 24.8534 71.6912 23.5035 70.7892C22.1535 69.8872 21.1014 68.6052 20.4801 67.1052C19.8588 65.6052 19.6962 63.9547 20.0129 62.3624C20.3297 60.77 21.1115 59.3073 22.2595 58.1593C23.4075 57.0113 24.8702 56.2295 26.4626 55.9127C28.0549 55.596 29.7055 55.7585 31.2054 56.3798C32.7054 57.0012 33.9874 58.0533 34.8894 59.4032C35.7914 60.7532 36.2729 62.3403 36.2729 63.9638C36.2729 66.1409 35.408 68.2289 33.8686 69.7684C32.3291 71.3078 30.2412 72.1727 28.064 72.1727Z" fill="#2FD5E0"/>
  <path d="M63.9361 54.0682C61.9789 54.0682 60.0657 54.6486 58.4384 55.7359C56.8111 56.8233 55.5428 58.3688 54.7938 60.1769C54.0448 61.9851 53.8488 63.9748 54.2307 65.8944C54.6125 67.8139 55.555 69.5771 56.9389 70.9611C58.3228 72.345 60.086 73.2875 62.0056 73.6693C63.9251 74.0511 65.9148 73.8551 67.723 73.1062C69.5312 72.3572 71.0766 71.0888 72.164 69.4615C73.2513 67.8342 73.8317 65.921 73.8317 63.9638C73.8317 61.3394 72.7891 58.8224 70.9333 56.9666C69.0776 55.1108 66.5606 54.0682 63.9361 54.0682ZM63.9361 72.1727C62.3126 72.1727 60.7255 71.6912 59.3755 70.7892C58.0256 69.8872 56.9734 68.6052 56.3521 67.1052C55.7308 65.6052 55.5683 63.9547 55.885 62.3624C56.2017 60.77 56.9836 59.3073 58.1316 58.1593C59.2796 57.0113 60.7423 56.2295 62.3346 55.9127C63.927 55.596 65.5775 55.7585 67.0775 56.3798C68.5775 57.0012 69.8595 58.0533 70.7615 59.4032C71.6635 60.7532 72.1449 62.3403 72.1449 63.9638C72.1449 66.1409 71.2801 68.2289 69.7406 69.7684C68.2012 71.3078 66.1132 72.1727 63.9361 72.1727Z" fill="#2FD5E0"/>
  <path d="M63.9361 37.8755C65.8933 37.8755 67.8065 37.2951 69.4338 36.2078C71.0611 35.1205 72.3295 33.575 73.0784 31.7668C73.8274 29.9586 74.0234 27.969 73.6415 26.0494C73.2597 24.1298 72.3173 22.3666 70.9333 20.9827C69.5494 19.5988 67.7862 18.6563 65.8666 18.2745C63.9471 17.8927 61.9574 18.0886 60.1492 18.8376C58.341 19.5866 56.7956 20.8549 55.7082 22.4822C54.6209 24.1096 54.0405 26.0228 54.0405 27.9799C54.0405 30.6044 55.0831 33.1214 56.9389 34.9772C58.7947 36.8329 61.3116 37.8755 63.9361 37.8755ZM63.9361 19.7711C65.5597 19.7711 67.1468 20.2525 68.4967 21.1545C69.8466 22.0565 70.8988 23.3386 71.5201 24.8385C72.1414 26.3385 72.3039 27.989 71.9872 29.5814C71.6705 31.1738 70.8886 32.6364 69.7406 33.7845C68.5926 34.9325 67.1299 35.7143 65.5376 36.031C63.9452 36.3478 62.2947 36.1852 60.7947 35.5639C59.2948 34.9426 58.0127 33.8905 57.1107 32.5405C56.2087 31.1906 55.7273 29.6035 55.7273 27.9799C55.7273 25.8028 56.5921 23.7149 58.1316 22.1754C59.671 20.636 61.759 19.7711 63.9361 19.7711Z" fill="#2FD5E0"/>
  <path d="M71.7061 46.93C71.1499 46.8157 70.5718 46.8839 70.0574 47.1244C69.5431 47.3648 69.12 47.7647 68.851 48.2647C68.6891 48.5717 68.5137 48.6864 68.1662 48.6786C67.0631 48.6538 65.9577 48.6448 64.8545 48.6786C64.3924 48.6943 64.0674 48.5481 63.802 48.1961C63.7357 48.1073 63.6772 48.0117 63.6052 47.9274C63.043 47.2628 62.4807 46.7219 61.4484 46.84C60.3408 46.9671 59.2062 46.8602 58.0828 46.8737C57.7725 46.8737 57.6712 46.7939 57.6724 46.4633C57.678 45.0689 57.6656 45.0689 59.0578 45.0689C60.0698 45.0689 61.0819 45.0577 62.0939 45.0689C62.4155 45.0745 62.6876 45.0273 62.881 44.7518C63.7627 43.4732 64.967 43.0212 66.4929 43.2506C67.0788 43.3383 67.6894 43.2686 68.2921 43.2618C68.5103 43.2618 68.6666 43.2877 68.7858 43.5205C69.1951 44.3267 69.8068 44.8373 70.6007 44.9969C70.9721 45.1028 71.3619 45.1278 71.7437 45.0701C72.1256 45.0125 72.4906 44.8736 72.8141 44.6627C73.1377 44.4519 73.4122 44.1741 73.6192 43.8481C73.8262 43.5221 73.9608 43.1554 74.0139 42.7729C74.067 42.3904 74.0375 42.001 73.9272 41.6309C73.8169 41.2608 73.6285 40.9187 73.3746 40.6277C73.1208 40.3366 72.8075 40.1035 72.4558 39.9439C72.1041 39.7844 71.7223 39.7021 71.3361 39.7028C70.1914 39.6297 69.3199 40.1683 68.7824 41.2119C68.6868 41.3974 68.5856 41.5166 68.3663 41.4919C66.8876 41.4919 65.4089 41.4829 63.9313 41.4694C63.8295 41.4628 63.7274 41.4796 63.6331 41.5186C63.5387 41.5576 63.4546 41.6177 63.3871 41.6943C63.1869 41.9192 62.9193 42.0845 62.7529 42.3263C62.1659 43.1786 61.3641 43.381 60.3779 43.2888C59.5615 43.2124 58.7317 43.2528 57.904 43.2821C57.5059 43.2967 57.308 43.1932 57.2136 42.7772C57.1011 42.2914 56.9651 41.8 56.6851 41.3704C56.1116 41.6257 55.4706 41.3479 54.896 41.5953C55.8057 43.6487 56.1532 45.7683 55.6764 47.9926C55.2007 50.215 53.9798 52.2081 52.216 53.6414C50.4522 55.0747 48.2514 55.8621 45.9787 55.8731C39.9739 55.9338 34.8462 50.1516 36.3654 43.6891C36.4036 43.525 36.4295 43.3597 36.461 43.1944C37.473 40.1459 39.4072 37.934 42.4208 36.7521C44.612 35.8944 47.0374 35.8471 49.2603 36.6188C51.4833 37.3904 53.3578 38.9303 54.5463 40.9611C54.67 41.1703 54.7858 41.3839 54.9061 41.5942C55.4807 41.3479 56.1217 41.6257 56.6952 41.3693C55.7551 39.0798 54.1628 37.3436 52.0994 36.0279C51.1817 35.4497 50.1831 35.0112 49.1363 34.7269C48.8653 34.6516 48.6764 34.5818 48.6955 34.222C48.7315 33.5687 48.7866 32.8996 48.6899 32.2598C48.465 30.7495 48.9215 29.57 50.1675 28.694C50.4598 28.4882 50.5149 28.2082 50.5104 27.8652C50.4936 26.5361 50.5183 25.2069 50.4936 23.8777C50.4868 23.5033 50.5858 23.2761 50.8939 23.0692C51.1752 22.9155 51.4269 22.713 51.6372 22.471C51.8567 22.2443 52.0282 21.9757 52.1416 21.6813C52.2551 21.3869 52.308 21.0726 52.2973 20.7573C52.2973 20.737 52.2973 20.7179 52.2973 20.6988C52.2973 19.983 52.0129 19.2966 51.5068 18.7904C51.0007 18.2843 50.3142 18 49.5985 18C48.8827 18 48.1963 18.2843 47.6901 18.7904C47.184 19.2966 46.8997 19.983 46.8997 20.6988C46.8994 20.7919 46.9043 20.885 46.9143 20.9777C46.9593 21.9087 47.4394 22.6419 48.3008 23.1142C48.6112 23.2851 48.7146 23.4516 48.7079 23.799C48.6854 24.9235 48.6888 26.048 48.7079 27.1725C48.7079 27.4761 48.6606 27.728 48.4031 27.9046C47.0953 28.7952 46.6872 30.0299 46.8851 31.5682C46.9851 32.3418 46.8907 33.1425 46.9076 33.9296C46.9143 34.2265 46.8243 34.3378 46.5252 34.2951C46.3384 34.277 46.1505 34.2725 45.963 34.2816C45.105 34.2816 45.105 34.2816 45.105 33.3989C45.105 32.2193 45.0971 31.0374 45.105 29.8589C45.105 29.5621 45.0746 29.2967 44.8137 29.1213C43.5003 28.2138 43.0494 26.969 43.2867 25.4104C43.3733 24.8482 43.3035 24.2511 43.299 23.6708C43.299 23.4549 43.3339 23.311 43.5566 23.1749C43.669 23.1041 43.7815 23.031 43.8939 22.95C44.0601 22.8394 44.2136 22.7108 44.3516 22.5666C44.8385 22.0875 45.1387 21.4949 45.1016 20.7303C45.1016 20.7202 45.1016 20.71 45.1016 20.6999C45.102 20.3331 45.0277 19.97 44.8831 19.6329C44.7385 19.2958 44.5267 18.9917 44.2606 18.7392C43.9946 18.4867 43.6798 18.291 43.3356 18.1643C42.9914 18.0375 42.625 17.9822 42.2587 18.0018C41.8924 18.0214 41.5339 18.1154 41.2052 18.2782C40.8765 18.441 40.5844 18.6691 40.3468 18.9485C40.1092 19.228 39.931 19.5529 39.8232 19.9036C39.7154 20.2542 39.6802 20.6231 39.7198 20.9878C39.7625 21.9672 40.2966 22.7195 41.2513 23.1952C41.4852 23.3076 41.51 23.4684 41.5088 23.6866C41.501 24.5108 41.5954 25.3475 41.4864 26.1605C41.2749 27.7235 41.7011 28.9717 43.0157 29.8713C43.0314 29.8814 43.0427 29.8983 43.0573 29.9096C43.1443 29.9789 43.2129 30.0686 43.2568 30.1708C43.3008 30.2731 43.3187 30.3846 43.3092 30.4954C43.2968 31.7324 43.2867 32.9693 43.3092 34.2063C43.317 34.5436 43.1765 34.6561 42.8886 34.728C41.712 35.0316 40.5964 35.5352 39.5904 36.2169C37.1402 37.8924 35.4568 40.1222 34.7394 43.0347C34.6438 43.2652 34.4537 43.2765 34.2378 43.2753C33.0009 43.2686 31.7718 43.2663 30.5394 43.2753C30.4004 43.2837 30.2613 43.2606 30.1324 43.2078C30.0035 43.1551 29.8882 43.074 29.7949 42.9706C29.6825 42.8458 29.57 42.7243 29.4655 42.5928C28.9032 41.8708 28.3039 41.3457 27.239 41.4424C25.9435 41.5616 24.6279 41.4626 23.3201 41.4581C23.2942 41.475 23.2684 41.4885 23.2425 41.502C23.2684 41.4885 23.2942 41.475 23.3201 41.4581C23.2672 41.3603 23.2133 41.2636 23.1627 41.1647C22.6589 40.1751 21.6907 39.6128 20.6269 39.6882C20.5482 39.6938 20.4684 39.7051 20.3885 39.7185C20.0177 39.7581 19.6591 39.8741 19.3354 40.0592C19.0116 40.2443 18.7298 40.4945 18.5075 40.7939C18.2853 41.0934 18.1276 41.4357 18.0443 41.7992C17.961 42.1627 17.9539 42.5395 18.0235 42.9059C18.0931 43.2722 18.2379 43.6202 18.4487 43.9278C18.6595 44.2354 18.9318 44.496 19.2484 44.6931C19.565 44.8902 19.9189 45.0196 20.288 45.073C20.6571 45.1265 21.0332 45.1029 21.3927 45.0037C22.1281 44.8654 22.723 44.4257 23.1188 43.7173C23.3145 43.3732 23.5124 43.2551 23.8947 43.2675C25.0001 43.2933 26.1055 43.2866 27.2097 43.2675C27.5156 43.2675 27.7596 43.3271 27.9429 43.5767C27.953 43.5913 27.971 43.6014 27.9823 43.6161C28.8549 44.8811 30.0502 45.2938 31.5548 45.0903C32.3284 44.9857 33.1291 45.0824 33.9162 45.0667C34.2221 45.061 34.3334 45.1375 34.3323 45.4726C34.3323 46.8715 34.3435 46.8715 32.9492 46.8715C31.9371 46.8715 30.9251 46.8827 29.913 46.8659C29.7664 46.8532 29.619 46.875 29.4823 46.9295C29.3456 46.984 29.2236 47.0696 29.1259 47.1796C28.7357 47.608 28.3027 47.9971 27.9047 48.4165C27.824 48.5056 27.7239 48.5751 27.6123 48.6195C27.5006 48.664 27.3802 48.6822 27.2603 48.6729C26.0998 48.6617 24.9379 48.6617 23.7744 48.6729C23.4831 48.6729 23.2886 48.6122 23.1537 48.3277C22.6769 47.3235 21.8313 46.8659 20.7574 46.8805C20.5409 46.8834 20.3255 46.911 20.1153 46.9626C19.7624 47.0398 19.4286 47.1871 19.1337 47.3957C18.8388 47.6043 18.5888 47.87 18.3985 48.177C18.2082 48.4841 18.0814 48.8262 18.0258 49.1831C17.9701 49.54 17.9867 49.9044 18.0744 50.2548C18.1622 50.6052 18.3195 50.9344 18.5368 51.2229C18.7542 51.5114 19.0273 51.7534 19.3399 51.9344C19.6525 52.1154 19.9982 52.2318 20.3566 52.2768C20.715 52.3217 21.0788 52.2942 21.4264 52.196C22.1472 52.0464 22.7264 51.609 23.1222 50.9084C23.319 50.5632 23.518 50.4496 23.8992 50.4586C25.2295 50.4811 26.5598 50.4586 27.89 50.4744C28.2274 50.4744 28.5164 50.4316 28.7233 50.137C29.5982 48.8866 30.7823 48.4278 32.2913 48.6538C32.9143 48.7471 33.5643 48.6909 34.203 48.6606C34.5561 48.6437 34.6775 48.7843 34.7709 49.1025C35.7829 52.5727 37.9487 55.0623 41.2007 56.6164C41.736 56.8716 42.3185 57.0358 42.8875 57.2124C43.1652 57.2978 43.3249 57.3855 43.3182 57.733C43.2923 58.97 43.3035 60.2069 43.3114 61.4439C43.3216 61.5456 43.3077 61.6483 43.2708 61.7437C43.2339 61.839 43.175 61.9243 43.0989 61.9926C43.0562 62.0286 43.0258 62.0803 42.9808 62.1107C41.6955 62.9957 41.2941 64.2146 41.4886 65.7349C41.5932 66.5648 41.501 67.4217 41.5088 68.2617C41.5088 68.4866 41.4672 68.6316 41.2401 68.7475C40.2427 69.2524 39.7029 70.0643 39.7029 71.1438C39.7029 71.1955 39.7029 71.2484 39.7029 71.3012C39.6996 72.017 39.9808 72.7047 40.4846 73.2132C40.9884 73.7216 41.6736 74.0091 42.3893 74.0124C43.1051 74.0156 43.7928 73.7345 44.3013 73.2307C44.8097 72.7269 45.0972 72.0417 45.1005 71.3259C45.1315 70.8216 45.0183 70.3188 44.7741 69.8764C44.53 69.4339 44.1651 69.0701 43.7219 68.8273C43.3845 68.6406 43.2923 68.4495 43.299 68.093C43.3193 66.9685 43.3114 65.844 43.299 64.7195C43.2885 64.5736 43.315 64.4274 43.3761 64.2945C43.4373 64.1615 43.5311 64.0463 43.6488 63.9594C44.0289 63.6268 44.3894 63.2724 44.7283 62.8978C44.8589 62.7681 44.9605 62.6121 45.0264 62.4401C45.0923 62.2682 45.121 62.0842 45.1106 61.9004C45.0825 60.6466 45.1106 59.3928 45.0915 58.139C45.0847 57.7589 45.1691 57.5767 45.5829 57.6453C45.9967 57.7139 46.5522 57.4508 46.8198 57.7409C47.0875 58.031 46.8952 58.564 46.8986 58.9902C46.9087 60.0382 46.9098 61.0863 46.8986 62.1388C46.8986 62.4188 46.9289 62.6639 47.1741 62.8247C48.5235 63.7097 48.9586 64.9714 48.7056 66.5243C48.6843 66.7292 48.6843 66.9357 48.7056 67.1406C48.745 67.9558 48.7056 68.5844 47.8578 69.1894C47.0099 69.7944 46.7434 70.7558 46.9323 71.6633C47.0242 72.339 47.3685 72.9549 47.896 73.3871C48.4234 73.8194 49.095 74.0359 49.7756 73.9931C50.4562 73.9504 51.0954 73.6516 51.5647 73.1568C52.034 72.662 52.2985 72.0079 52.3051 71.3259C52.3408 70.8191 52.228 70.3129 51.9806 69.8692C51.7332 69.4254 51.3618 69.0634 50.9119 68.8273C50.5678 68.6429 50.4902 68.4405 50.4947 68.0896C50.5104 66.7402 50.4947 65.3908 50.506 64.0471C50.506 63.7232 50.4553 63.4533 50.181 63.2599C48.8945 62.3806 48.465 61.1661 48.6854 59.6458C48.772 59.0397 48.7225 58.4088 48.6854 57.7949C48.6663 57.4204 48.8158 57.3001 49.1577 57.1933C53.0563 55.9855 55.727 53.4824 57.0865 49.613C57.4239 48.6673 57.4092 48.6639 58.4359 48.6639C59.1848 48.6639 59.9394 48.7224 60.6849 48.6482C61.5092 48.565 62.1468 48.8011 62.6145 49.4657C63.2117 50.3079 64.0022 50.5711 65.0266 50.4777C66.0859 50.3867 67.1631 50.4586 68.2258 50.4575C68.4507 50.4575 68.6419 50.444 68.7757 50.7116C69.1805 51.5168 69.7877 52.0262 70.5749 52.1881C70.9296 52.2876 71.301 52.3134 71.6662 52.2639C72.0313 52.2144 72.3824 52.0907 72.6979 51.9003C73.0134 51.71 73.2866 51.457 73.5006 51.1571C73.7146 50.8571 73.8649 50.5165 73.9423 50.1563C74.0197 49.796 74.0224 49.4238 73.9505 49.0624C73.8785 48.701 73.7333 48.3582 73.5238 48.0551C73.3143 47.752 73.0449 47.495 72.7323 47.2999C72.4197 47.1049 72.0705 46.9759 71.7061 46.921V46.93ZM70.4017 41.8697C71.1607 41.177 71.8635 41.3839 72.0997 42.3679C71.9085 43.0729 71.4677 43.3979 70.9302 43.2304C70.3927 43.0628 70.1925 42.5804 70.4017 41.8697ZM48.6989 20.7989C48.6962 20.6204 48.7467 20.4452 48.8439 20.2955C48.9411 20.1457 49.0806 20.0283 49.2448 19.9582C49.4089 19.888 49.5902 19.8683 49.7656 19.9014C49.941 19.9346 50.1025 20.0192 50.2297 20.1445C50.3568 20.2697 50.4439 20.43 50.4797 20.6048C50.5155 20.7797 50.4985 20.9613 50.4308 21.1264C50.3631 21.2916 50.2479 21.4329 50.0996 21.5324C49.9514 21.6318 49.777 21.6849 49.5985 21.685C49.3627 21.6833 49.1369 21.5898 48.969 21.4244C48.801 21.2589 48.7041 21.0346 48.6989 20.7989ZM42.4118 21.685C42.2333 21.6881 42.0578 21.638 41.9078 21.5411C41.7578 21.4441 41.6401 21.3048 41.5696 21.1407C41.499 20.9766 41.479 20.7952 41.5119 20.6197C41.5448 20.4442 41.6292 20.2824 41.7544 20.155C41.8795 20.0276 42.0398 19.9404 42.2147 19.9044C42.3896 19.8684 42.5713 19.8852 42.7366 19.9529C42.9019 20.0205 43.0433 20.1357 43.1429 20.284C43.2425 20.4322 43.2956 20.6068 43.2957 20.7854C43.2943 21.0203 43.2017 21.2454 43.0374 21.4133C42.8731 21.5811 42.65 21.6786 42.4152 21.685H42.4118ZM21.7019 42.2892C21.7514 42.6782 21.5692 42.9773 21.2218 43.164C21.0746 43.2501 20.9041 43.2877 20.7344 43.2715C20.5647 43.2554 20.4044 43.1863 20.2761 43.074C20.1285 42.9706 20.0184 42.8221 19.9622 42.6508C19.9061 42.4795 19.9069 42.2946 19.9646 42.1238C20.0182 41.9863 20.0833 41.8535 20.1591 41.7269C20.5984 41.3836 21.0385 41.3836 21.4793 41.7269C21.6425 41.6437 21.8235 41.6013 22.0067 41.6032C21.8234 41.6008 21.6424 41.6433 21.4793 41.7269C21.5569 41.9102 21.6772 42.0935 21.7019 42.2892ZM22.6375 41.5953C22.687 41.5953 22.7376 41.5953 22.7871 41.5953C22.7376 41.5987 22.687 41.5976 22.6375 41.5953ZM20.8113 50.4631C20.6867 50.4708 20.5618 50.4525 20.4446 50.4093C20.3274 50.3661 20.2204 50.2989 20.1306 50.2121C20.0408 50.1253 19.97 50.0208 19.9228 49.9051C19.8757 49.7895 19.8531 49.6653 19.8565 49.5404C19.86 49.4155 19.8894 49.2928 19.9429 49.1799C19.9964 49.067 20.0728 48.9665 20.1673 48.8848C20.2618 48.8031 20.3722 48.742 20.4916 48.7053C20.611 48.6686 20.7368 48.6572 20.8608 48.6718C21.084 48.698 21.2892 48.8068 21.4362 48.9768C21.5832 49.1467 21.6612 49.3655 21.655 49.5901C21.6488 49.8147 21.5588 50.0288 21.4027 50.1904C21.2465 50.352 21.0356 50.4492 20.8113 50.4631ZM42.4084 72.0389C42.2329 72.0402 42.061 71.9895 41.9143 71.8932C41.7675 71.7969 41.6526 71.6593 41.5841 71.4977C41.5155 71.3362 41.4963 71.1579 41.5289 70.9855C41.5615 70.813 41.6445 70.6541 41.7673 70.5288C41.8901 70.4034 42.0473 70.3173 42.2191 70.2812C42.3909 70.2451 42.5695 70.2607 42.7323 70.326C42.8952 70.3913 43.0352 70.5034 43.1344 70.6481C43.2337 70.7929 43.2878 70.9638 43.29 71.1393C43.2901 71.3748 43.1978 71.6009 43.033 71.7691C42.8681 71.9373 42.6439 72.0342 42.4084 72.0389ZM49.621 70.2633C49.797 70.2676 49.9678 70.3242 50.1116 70.4258C50.2554 70.5274 50.3658 70.6695 50.4288 70.8339C50.4917 70.9984 50.5043 71.1779 50.465 71.3495C50.4257 71.5212 50.3363 71.6773 50.2082 71.798C50.08 71.9188 49.9188 71.9987 49.7451 72.0276C49.5714 72.0566 49.393 72.0333 49.2326 71.9606C49.0722 71.888 48.937 71.7693 48.8441 71.6196C48.7513 71.47 48.7051 71.2962 48.7112 71.1202C48.7237 70.8878 48.8251 70.6691 48.9945 70.5096C49.1639 70.35 49.3883 70.2618 49.621 70.2633ZM71.1697 50.4631C70.9914 50.4615 70.8176 50.407 70.6704 50.3064C70.5232 50.2059 70.4091 50.0638 70.3428 49.8984C70.2764 49.7329 70.2607 49.5514 70.2977 49.377C70.3347 49.2025 70.4227 49.043 70.5505 48.9187C70.6783 48.7944 70.8402 48.7109 71.0155 48.6787C71.1909 48.6466 71.3719 48.6672 71.5355 48.7382C71.6991 48.8091 71.8379 48.927 71.9344 49.0769C72.0308 49.2269 72.0805 49.4021 72.0772 49.5804C72.071 49.8169 71.9727 50.0415 71.8031 50.2065C71.6336 50.3714 71.4063 50.4635 71.1697 50.4631Z" fill="#2FD5E0"/>
  </g>
  <defs>
  <clipPath id="clip0_8_22">
  <rect width="56" height="56" fill="white" transform="translate(18 18)"/>
  </clipPath>
  </defs>
  </svg>
  