<?xml version="1.0" encoding="UTF-8" standalone="no"?>
<!-- Created with Inkscape (http://www.inkscape.org/) -->

<svg
   width="124.03571mm"
   height="123.96344mm"
   viewBox="0 0 124.03571 123.96344"
   version="1.1"
   id="svg5"
   xml:space="preserve"
   inkscape:version="1.2.2 (b0a8486541, 2022-12-01, custom)"
   sodipodi:docname="logos.svg"
   inkscape:export-filename="../bae60e9c/logos.svg"
   inkscape:export-xdpi="96"
   inkscape:export-ydpi="96"
   xmlns:inkscape="http://www.inkscape.org/namespaces/inkscape"
   xmlns:sodipodi="http://sodipodi.sourceforge.net/DTD/sodipodi-0.dtd"
   xmlns="http://www.w3.org/2000/svg"
   xmlns:svg="http://www.w3.org/2000/svg"><sodipodi:namedview
     id="namedview7"
     pagecolor="#ffffff"
     bordercolor="#000000"
     borderopacity="0.25"
     inkscape:showpageshadow="2"
     inkscape:pageopacity="0.0"
     inkscape:pagecheckerboard="0"
     inkscape:deskcolor="#d1d1d1"
     inkscape:document-units="mm"
     showgrid="false"
     showguides="true"
     inkscape:zoom="0.53086315"
     inkscape:cx="265.60518"
     inkscape:cy="664.01294"
     inkscape:window-width="1920"
     inkscape:window-height="1016"
     inkscape:window-x="0"
     inkscape:window-y="27"
     inkscape:window-maximized="1"
     inkscape:current-layer="layer1" /><defs
     id="defs2" /><g
     inkscape:label="Capa 1"
     inkscape:groupmode="layer"
     id="layer1"
     transform="translate(-516.78828,-21.687114)"><path
       style="fill:none;fill-opacity:1;stroke:#d9d9d9;stroke-width:1.27547;stroke-dasharray:none;stroke-opacity:1"
       id="path2744-9-6-4-5-5-3-3-5"
       sodipodi:type="arc"
       sodipodi:cx="565.67987"
       sodipodi:cy="110.56046"
       sodipodi:rx="4.9081445"
       sodipodi:ry="4.9081445"
       sodipodi:start="0"
       sodipodi:end="6.282324"
       sodipodi:open="true"
       sodipodi:arc-type="arc"
       d="m 570.58802,110.56046 a 4.9081445,4.9081445 0 0 1 -4.90709,4.90815 4.9081445,4.9081445 0 0 1 -4.9092,-4.90603 4.9081445,4.9081445 0 0 1 4.90497,-4.91026 4.9081445,4.9081445 0 0 1 4.91131,4.90392"
       inkscape:export-filename="../d7d102cc/eco-blanco.svg"
       inkscape:export-xdpi="96"
       inkscape:export-ydpi="96" /><path
       style="fill:none;fill-opacity:1;stroke:#d9d9d9;stroke-width:1.27547;stroke-dasharray:none;stroke-opacity:1"
       id="path2744-9-6-4-5-5-3-9-8-0-5"
       sodipodi:type="arc"
       sodipodi:cx="540.31909"
       sodipodi:cy="123.89429"
       sodipodi:rx="4.9081445"
       sodipodi:ry="4.9081445"
       sodipodi:start="0"
       sodipodi:end="6.282324"
       sodipodi:open="true"
       sodipodi:arc-type="arc"
       d="m 545.22724,123.89429 a 4.9081445,4.9081445 0 0 1 -4.90709,4.90814 4.9081445,4.9081445 0 0 1 -4.9092,-4.90603 4.9081445,4.9081445 0 0 1 4.90497,-4.91026 4.9081445,4.9081445 0 0 1 4.91131,4.90392" /><path
       style="fill:none;fill-opacity:1;stroke:#d9d9d9;stroke-width:1.27547;stroke-dasharray:none;stroke-opacity:1"
       id="path2744-9-6-4-5-5-3-9-8-9-5-3"
       sodipodi:type="arc"
       sodipodi:cx="579.3739"
       sodipodi:cy="140.10468"
       sodipodi:rx="4.9081445"
       sodipodi:ry="4.9081445"
       sodipodi:start="0"
       sodipodi:end="6.282324"
       sodipodi:open="true"
       sodipodi:arc-type="arc"
       d="m 584.28205,140.10468 a 4.9081445,4.9081445 0 0 1 -4.90709,4.90814 4.9081445,4.9081445 0 0 1 -4.9092,-4.90603 4.9081445,4.9081445 0 0 1 4.90497,-4.91026 4.9081445,4.9081445 0 0 1 4.91131,4.90392" /><path
       style="fill:none;fill-opacity:1;stroke:#d9d9d9;stroke-width:1.27547;stroke-dasharray:none;stroke-opacity:1"
       id="path2744-9-6-4-5-5-3-9-8-9-7-0-2"
       sodipodi:type="arc"
       sodipodi:cx="620.53101"
       sodipodi:cy="124.81293"
       sodipodi:rx="4.9081445"
       sodipodi:ry="4.9081445"
       sodipodi:start="0"
       sodipodi:end="6.282324"
       sodipodi:open="true"
       sodipodi:arc-type="arc"
       d="m 625.43915,124.81293 a 4.9081445,4.9081445 0 0 1 -4.90709,4.90814 4.9081445,4.9081445 0 0 1 -4.9092,-4.90603 4.9081445,4.9081445 0 0 1 4.90498,-4.91026 4.9081445,4.9081445 0 0 1 4.91131,4.90392" /><path
       id="path2744-9-6-4-5-5-3-9-8-9-7-2-7-0-5"
       style="fill:none;fill-opacity:1;stroke:#d9d9d9;stroke-width:1.27547;stroke-dasharray:none;stroke-opacity:1"
       d="m 640.14067,83.84342 a 4.9081444,4.9081444 0 0 1 0.0381,0.60678" /><path
       id="path9715-2-4"
       style="fill:none;fill-opacity:1;stroke:#d9d9d9;stroke-width:1.27547;stroke-dasharray:none;stroke-opacity:1"
       d="m 640.17887,84.45443 a 4.9081444,4.9081444 0 0 1 -4.90712,4.90814 4.9081444,4.9081444 0 0 1 -3.1612,-1.15273" /><path
       style="fill:#ffffff;fill-opacity:1;stroke:#d9d9d9;stroke-width:1.27547;stroke-dasharray:none;stroke-opacity:1"
       d="m 563.23575,101.434 1.47492,3.86533"
       id="path5268-5-7" /><path
       style="fill:#ffffff;fill-opacity:1;stroke:#d9d9d9;stroke-width:1.27547;stroke-dasharray:none;stroke-opacity:1"
       d="M 570.30039,108.73843 584.76576,92.71161"
       id="path5270-1-4" /><path
       style="fill:#ffffff;fill-opacity:1;stroke:#d9d9d9;stroke-width:1.27547;stroke-dasharray:none;stroke-opacity:1"
       d="m 570.76623,109.41897 21.76903,-7.58856"
       id="path5280-7-6" /><path
       style="fill:#ffffff;fill-opacity:1;stroke:#d9d9d9;stroke-width:1.27547;stroke-dasharray:none;stroke-opacity:1"
       d="m 634.62123,89.58005 -11.57011,30.8371"
       id="path5282-2-6" /><path
       style="fill:#ffffff;fill-opacity:1;stroke:#d9d9d9;stroke-width:1.27547;stroke-dasharray:none;stroke-opacity:1"
       d="m 611.55175,98.98959 8.72789,20.82901"
       id="path5284-9-7" /><path
       style="fill:#ffffff;fill-opacity:1;stroke:#d9d9d9;stroke-width:1.27546;stroke-dasharray:none;stroke-opacity:1"
       d="m 615.69638,126.99624 -31.12472,11.8854"
       id="path5286-0-3" /><path
       style="fill:#ffffff;fill-opacity:1;stroke:#d9d9d9;stroke-width:1.27546;stroke-dasharray:none;stroke-opacity:1"
       d="M 574.20371,140.76608 543.8521,127.60502"
       id="path5288-3-7" /><path
       style="fill:#ffffff;fill-opacity:1;stroke:#d9d9d9;stroke-width:1.27546;stroke-dasharray:none;stroke-opacity:1"
       d="m 544.69881,120.98729 16.74706,-7.59308"
       id="path5290-1-3" /><path
       style="fill:#ffffff;fill-opacity:1;stroke:#d9d9d9;stroke-width:1.27546;stroke-dasharray:none;stroke-opacity:1"
       d="m 568.54679,114.77356 9.89358,20.36002"
       id="path5302-2-7" /><path
       style="fill:#ffffff;fill-opacity:1;stroke:#d9d9d9;stroke-width:1.27547;stroke-dasharray:none;stroke-opacity:1"
       d="m 606.55408,101.80031 -26.32113,33.36723"
       id="path5304-7-5" /><path
       id="path5631-1-7-3-56-9"
       style="fill:none;fill-opacity:1;stroke:#d9d9d9;stroke-width:1.27547;stroke-dasharray:none;stroke-opacity:1"
       d="m 637.83788,67.16331 c 1.49513,5.35385 2.25555,10.88612 2.26035,16.44484 m -2.26035,-16.44484 c -7.4064,-26.52125 -31.57941,-44.85623 -59.1154,-44.83845 -33.86985,0.0219 -61.31107,27.49268 -61.29649,61.36253 0.006,13.70638 4.60251,27.01583 13.05635,37.80458 l 52.15595,-31.72735 14.85441,16.99641 43.02608,-23.44746"
       sodipodi:nodetypes="cccsscccc" /><path
       id="path5631-1-7-3-5-3-8"
       style="fill:#d9d9d9;fill-opacity:1;stroke:none;stroke-width:0;stroke-dasharray:none;stroke-opacity:1"
       d="m 576.39652,42.53586 v 10.57005 c -6.1171,0.4198 -10.8098,2.03904 -14.07825,4.8577 -3.26845,2.81867 -4.90267,6.67183 -4.90267,11.55952 0,4.49787 1.49924,8.03621 4.49784,10.61499 3.02855,2.57879 7.85623,4.40795 14.48308,5.48744 v 7.34496 l 4.49797,-2.73626 v -3.70913 c 3.98813,0.71965 6.8967,1.85919 8.72584,3.41845 1.85912,1.55927 2.78874,3.65822 2.78874,6.29697 0,1.21521 -0.19828,2.32364 -0.59348,3.32605 l 5.41546,6.19652 c 2.33186,-2.73317 3.49914,-6.19174 3.49914,-10.37718 0,-4.67779 -1.60429,-8.36606 -4.81277,-11.06478 -3.20848,-2.69873 -8.21613,-4.57279 -15.02293,-5.62229 V 59.49291 c 2.75869,0.11994 5.44239,0.52482 8.05114,1.21449 2.63877,0.68967 5.2026,1.66419 7.69143,2.92359 v -7.87133 c -2.48883,-0.80962 -5.03769,-1.43926 -7.64647,-1.88905 -2.60875,-0.47977 -5.30741,-0.77962 -8.0961,-0.89956 V 42.53586 Z m 0,16.91209 v 18.44126 c -3.7482,-0.6297 -6.47693,-1.66421 -8.18612,-3.10353 -1.67921,-1.43932 -2.51876,-3.44835 -2.51876,-6.02713 0,-2.63876 0.91452,-4.7528 2.74365,-6.34206 1.82914,-1.58924 4.48289,-2.57872 7.96123,-2.96854 z m -18.98092,40.84078 v 4.22813 l 3.60197,-2.19107 c -1.20523,-0.6083 -2.40593,-1.2866 -3.60197,-2.03706 z" /><path
       style="fill:#ffffff;fill-opacity:1;stroke:#d9d9d9;stroke-width:1.27547;stroke-dasharray:none;stroke-opacity:1"
       d="m 542.15455,119.35399 2.09761,-6.04783"
       id="path9720-0-4" /><path
       style="fill:#ffffff;fill-opacity:1;stroke:#d9d9d9;stroke-width:1.27547;stroke-dasharray:none;stroke-opacity:1"
       d="m 536.54411,121.14693 -2.03066,-2.38504"
       id="path9722-2-3" /></g></svg>
