<svg width="660" height="146" viewBox="0 0 660 146" fill="none" xmlns="http://www.w3.org/2000/svg">
<path d="M113.601 103.679V43.4793H124.953V68.3333H147.313V43.4793H158.665V103.679H147.313V78.6533H124.953V103.679H113.601ZM183.626 104.883C180.587 104.883 177.864 104.367 175.456 103.335C173.048 102.246 171.127 100.698 169.694 98.6913C168.318 96.6273 167.63 94.1333 167.63 91.2093C167.63 88.2853 168.318 85.8487 169.694 83.8993C171.127 81.8927 173.077 80.402 175.542 79.4273C178.065 78.3953 180.931 77.8793 184.142 77.8793H195.838V75.4713C195.838 73.4647 195.207 71.8307 193.946 70.5693C192.685 69.2507 190.678 68.5913 187.926 68.5913C185.231 68.5913 183.225 69.222 181.906 70.4833C180.587 71.6873 179.727 73.264 179.326 75.2133L169.35 71.8593C170.038 69.6807 171.127 67.7027 172.618 65.9253C174.166 64.0907 176.201 62.6287 178.724 61.5393C181.304 60.3927 184.429 59.8193 188.098 59.8193C193.717 59.8193 198.16 61.224 201.428 64.0333C204.696 66.8427 206.33 70.9133 206.33 76.2453V92.1553C206.33 93.8753 207.133 94.7353 208.738 94.7353H212.178V103.679H204.954C202.833 103.679 201.084 103.163 199.708 102.131C198.332 101.099 197.644 99.7233 197.644 98.0033V97.9173H196.01C195.781 98.6053 195.265 99.5227 194.462 100.669C193.659 101.759 192.398 102.733 190.678 103.593C188.958 104.453 186.607 104.883 183.626 104.883ZM185.518 96.1113C188.557 96.1113 191.022 95.28 192.914 93.6173C194.863 91.8973 195.838 89.6327 195.838 86.8233V85.9633H184.916C182.909 85.9633 181.333 86.3933 180.186 87.2533C179.039 88.1133 178.466 89.3173 178.466 90.8653C178.466 92.4133 179.068 93.6747 180.272 94.6493C181.476 95.624 183.225 96.1113 185.518 96.1113ZM239.299 104.883C235.171 104.883 231.416 104.023 228.033 102.303C224.708 100.583 222.07 98.0893 220.121 94.8213C218.172 91.5533 217.197 87.5973 217.197 82.9533V81.7493C217.197 77.1053 218.172 73.1493 220.121 69.8813C222.07 66.6133 224.708 64.1193 228.033 62.3993C231.416 60.6793 235.171 59.8193 239.299 59.8193C243.37 59.8193 246.867 60.536 249.791 61.9693C252.715 63.4027 255.066 65.3807 256.843 67.9033C258.678 70.3687 259.882 73.178 260.455 76.3313L249.963 78.5673C249.734 76.8473 249.218 75.2993 248.415 73.9233C247.612 72.5473 246.466 71.458 244.975 70.6553C243.542 69.8527 241.736 69.4513 239.557 69.4513C237.378 69.4513 235.4 69.9387 233.623 70.9133C231.903 71.8307 230.527 73.2353 229.495 75.1273C228.52 76.962 228.033 79.2267 228.033 81.9213V82.7813C228.033 85.476 228.52 87.7693 229.495 89.6613C230.527 91.496 231.903 92.9007 233.623 93.8753C235.4 94.7927 237.378 95.2513 239.557 95.2513C242.825 95.2513 245.29 94.42 246.953 92.7573C248.673 91.0373 249.762 88.8013 250.221 86.0493L260.713 88.5433C259.968 91.582 258.678 94.3627 256.843 96.8853C255.066 99.3507 252.715 101.3 249.791 102.733C246.867 104.167 243.37 104.883 239.299 104.883ZM269.652 103.679V43.4793H280.488V76.7613H282.036L296.14 61.0233H310.244L290.55 81.6633L310.932 103.679H297L282.036 86.7373H280.488V103.679H269.652ZM317.851 103.679V43.4793H329.203V103.679H317.851ZM354.458 103.679V53.7993H336.914V43.4793H383.354V53.7993H365.81V103.679H354.458ZM421.951 103.679V93.7033H429.863V53.4553H421.951V43.4793H452.911C456.58 43.4793 459.762 44.11 462.457 45.3713C465.209 46.5753 467.33 48.324 468.821 50.6173C470.369 52.8533 471.143 55.548 471.143 58.7013V59.5613C471.143 62.3133 470.627 64.578 469.595 66.3553C468.563 68.0753 467.33 69.4227 465.897 70.3973C464.521 71.3147 463.202 71.974 461.941 72.3753V73.9233C463.202 74.2673 464.578 74.9267 466.069 75.9013C467.56 76.8187 468.821 78.166 469.853 79.9433C470.942 81.7207 471.487 84.0427 471.487 86.9093V87.7693C471.487 91.0947 470.713 93.9613 469.165 96.3693C467.617 98.72 465.467 100.526 462.715 101.787C460.02 103.049 456.867 103.679 453.255 103.679H421.951ZM441.215 93.3593H451.879C454.344 93.3593 456.322 92.7573 457.813 91.5533C459.361 90.3493 460.135 88.6293 460.135 86.3933V85.5333C460.135 83.2973 459.39 81.5773 457.899 80.3733C456.408 79.1693 454.402 78.5673 451.879 78.5673H441.215V93.3593ZM441.215 68.2473H451.707C454.058 68.2473 455.978 67.6453 457.469 66.4413C459.017 65.2373 459.791 63.5747 459.791 61.4533V60.5933C459.791 58.4147 459.046 56.752 457.555 55.6053C456.064 54.4013 454.115 53.7993 451.707 53.7993H441.215V68.2473ZM476.148 103.679L491.972 43.4793H511.752L527.576 103.679H515.88L512.612 90.4353H491.112L487.844 103.679H476.148ZM493.778 79.9433H509.946L502.636 50.6173H501.088L493.778 79.9433Z" fill="#1C1C1C"/>
<path d="M384.721 120.879L410.005 43.4793H418.863L393.579 120.879H384.721ZM537.706 92.4993V83.6413L565.14 74.2673V72.8913L537.706 63.5173V54.6593L573.826 67.9893V79.1693L537.706 92.4993Z" fill="#FFA300"/>
<rect x="17.146" y="37.3586" width="17.1461" height="17.1461" transform="rotate(90 17.146 37.3586)" fill="#FFA300"/>
<rect x="108.467" y="0.00012207" width="17.1461" height="17.1461" transform="rotate(90 108.467 0.00012207)" fill="#FFA300"/>
<rect x="17.1462" y="91.3208" width="17.1461" height="17.1461" transform="rotate(90 17.1462 91.3208)" fill="#035EEB"/>
<rect x="79.3857" y="91.3208" width="25.4235" height="25.4235" transform="rotate(90 79.3857 91.3208)" fill="#FFA300"/>
<rect x="54.4434" y="53.9624" width="37.8396" height="37.8396" transform="rotate(90 54.4434 53.9624)" fill="#035EEB"/>
<rect x="91.8018" y="16.6039" width="37.8396" height="37.8396" transform="rotate(90 91.8018 16.6039)" fill="#01CBA1"/>
</svg>
