<svg width="499" height="153" viewBox="0 0 499 153" fill="none" xmlns="http://www.w3.org/2000/svg">
<g clip-path="url(#clip0_762_690)">
<path d="M149.593 152.667C149.492 152.667 149.388 152.657 149.284 152.633C148.485 152.463 147.976 151.677 148.147 150.88L180.039 1.17602C180.208 0.377356 180.989 -0.138631 181.793 0.040036C182.592 0.209369 183.101 0.99469 182.932 1.79336L151.039 151.495C150.891 152.19 150.276 152.667 149.593 152.667Z" fill="white"/>
<path d="M217.527 38.3312C213.929 38.2927 213.02 38.2927 209.272 38.4443L209.12 38.2547C209.12 34.8473 209.159 31.4776 209.197 28.1073C209.233 25.9495 209.272 23.7907 209.272 21.6312C209.272 18.3 209.197 15.8387 209.044 11.7853L209.233 11.5973C212.945 11.6347 213.74 11.6347 217.451 11.484L217.603 11.6734C217.489 15.46 217.413 17.732 217.413 22.0869C217.413 27.4255 217.527 32.8407 217.679 38.1416L217.527 38.3312Z" fill="white"/>
<path d="M231.456 27.2745V32.4995C234.409 32.4995 237.173 32.4235 241.073 32.2724L241.301 32.4995L240.921 38.1031L240.581 38.3312C235.393 38.3312 234.523 38.2927 233.387 38.2927C229.223 38.2927 227.063 38.3693 223.465 38.4443L223.276 38.1803C223.391 33.8249 223.428 31.4776 223.428 26.3271C223.428 17.24 223.352 15.6867 223.163 11.824L223.391 11.5973H240.429L240.619 11.7493L240.355 16.9747L240.127 17.164H231.38V21.9724L239.672 21.8208L239.9 22.0869L239.597 27.0464L239.332 27.2745H231.456Z" fill="white"/>
<path d="M253.524 27.2745V32.4995C256.476 32.4995 259.241 32.4235 263.141 32.2724L263.368 32.4995L262.989 38.1031L262.648 38.3312C257.461 38.3312 256.589 38.2927 255.455 38.2927C251.289 38.2927 249.131 38.3693 245.533 38.4443L245.344 38.1803C245.459 33.8249 245.495 31.4776 245.495 26.3271C245.495 17.24 245.42 15.6867 245.231 11.824L245.459 11.5973H262.497L262.687 11.7493L262.421 16.9747L262.195 17.164H253.447V21.9724L261.74 21.8208L261.968 22.0869L261.664 27.0464L261.399 27.2745H253.524Z" fill="white"/>
<path d="M275.589 27.2745V32.4995C278.545 32.4995 281.309 32.4235 285.208 32.2724L285.436 32.4995L285.057 38.1031L284.716 38.3312C279.531 38.3312 278.659 38.2927 277.523 38.2927C273.357 38.2927 271.197 38.3693 267.6 38.4443L267.412 38.1803C267.527 33.8249 267.563 31.4776 267.563 26.3271C267.563 17.24 267.487 15.6867 267.299 11.824L267.527 11.5973H284.565L284.755 11.7493L284.489 16.9747L284.263 17.164H275.515V21.9724L283.809 21.8208L284.033 22.0869L283.732 27.0464L283.467 27.2745H275.589Z" fill="white"/>
<path d="M218.763 60.0219C217.079 59.1713 215.388 58.7464 213.689 58.7464C211.641 58.7464 209.767 59.2505 208.067 60.2563C206.367 61.2631 205.031 62.6323 204.06 64.3672C203.088 66.1027 202.603 68.0287 202.603 70.1443C202.603 72.2615 203.088 74.1964 204.06 75.9473C205.031 77.7005 206.367 79.088 208.067 80.1104C209.767 81.1355 211.641 81.6469 213.689 81.6469C215.319 81.6469 216.976 81.2563 218.659 80.4749C220.341 79.6953 221.841 78.6459 223.161 77.3265L228.001 82.5828C226.057 84.5964 223.777 86.1912 221.157 87.3719C218.537 88.5505 215.908 89.1416 213.272 89.1416C209.697 89.1416 206.455 88.3161 203.54 86.6661C200.624 85.0203 198.336 82.7573 196.669 79.8771C195.004 76.9969 194.172 73.7875 194.172 70.2484C194.172 66.7448 195.021 63.5688 196.721 60.724C198.421 57.8792 200.755 55.6416 203.721 54.0109C206.688 52.3797 209.976 51.564 213.584 51.564C216.221 51.564 218.824 52.1104 221.392 53.2036C223.957 54.2973 226.144 55.7803 227.948 57.6541L223.161 63.5349C221.911 62.0437 220.445 60.8719 218.763 60.0219Z" fill="white"/>
<path d="M244.187 60.2823C242.449 61.3057 241.08 62.7016 240.075 64.4708C239.068 66.2407 238.565 68.1849 238.565 70.3005C238.565 72.4516 239.076 74.4125 240.101 76.1817C241.123 77.9516 242.495 79.3568 244.212 80.3969C245.929 81.4369 247.793 81.9593 249.808 81.9593C251.817 81.9593 253.667 81.4473 255.349 80.424C257.032 79.4011 258.367 77.9959 259.357 76.2079C260.347 74.4213 260.841 72.4516 260.841 70.3005C260.841 68.1849 260.347 66.2407 259.357 64.4708C258.367 62.7016 257.032 61.3057 255.349 60.2823C253.667 59.2583 251.817 58.7464 249.808 58.7464C247.793 58.7464 245.92 59.2583 244.187 60.2823ZM259.643 54.0109C262.627 55.6416 264.977 57.8869 266.696 60.7511C268.413 63.6131 269.272 66.7964 269.272 70.3005C269.272 73.8057 268.413 76.9969 266.696 79.8771C264.977 82.7573 262.627 85.0203 259.643 86.6661C256.659 88.3161 253.345 89.1416 249.703 89.1416C246.06 89.1416 242.747 88.3161 239.763 86.6661C236.777 85.0203 234.428 82.7651 232.711 79.9021C230.992 77.0401 230.135 73.8396 230.135 70.3005C230.135 66.7964 230.992 63.6131 232.711 60.7511C234.428 57.8869 236.769 55.6416 239.736 54.0109C242.703 52.3797 246.024 51.564 249.703 51.564C253.345 51.564 256.659 52.3797 259.643 54.0109Z" fill="white"/>
<path d="M275.204 52.137H284.364L295.711 74.5167L306.952 52.137H316.061V88.5688H308.671V63.9517L298.313 84.8735H293.005L282.595 63.9517V88.5688H275.204V52.137Z" fill="white"/>
<path d="M345.023 69.7017C346.253 68.6443 346.871 67.0907 346.871 65.0438C346.871 63.0323 346.253 61.514 345.023 60.4896C343.791 59.4672 342.012 58.9547 339.688 58.9547H332.871V71.2886H339.688C342.012 71.2886 343.791 70.7615 345.023 69.7017ZM350.879 55.4416C353.412 57.6459 354.677 60.7589 354.677 64.7839C354.677 69.0167 353.401 72.3042 350.852 74.647C348.301 76.988 344.717 78.1599 340.104 78.1599H332.871V88.5688H324.645V52.137H340.104C344.753 52.137 348.345 53.2396 350.879 55.4416Z" fill="white"/>
<path d="M370.264 79.6953C371.741 81.2041 373.708 81.9593 376.172 81.9593C378.567 81.9593 380.473 81.212 381.896 79.7197C383.319 78.2292 384.031 76.1651 384.031 73.5271V52.1369H392.255V73.5271C392.255 76.7197 391.604 79.4864 390.304 81.8281C389.003 84.1703 387.136 85.974 384.707 87.2407C382.28 88.5088 379.416 89.1416 376.121 89.1416C372.824 89.1416 369.943 88.5088 367.48 87.2407C365.017 85.974 363.125 84.1703 361.809 81.8281C360.489 79.4864 359.831 76.7197 359.831 73.5271V52.1369H368.053V73.5271C368.053 76.1297 368.791 78.1849 370.264 79.6953Z" fill="white"/>
<path d="M396.573 52.137H427.02V59.1104H415.881V88.5688H407.657V59.1104H396.573V52.137Z" fill="white"/>
<path d="M431.964 52.137H459.704V58.9547H440.188V66.8656H457.728V73.6834H440.188V81.7511H460.277V88.5688H431.964V52.137Z" fill="white"/>
<path d="M475.473 71.2886H483.071C485.361 71.2886 487.12 70.7615 488.355 69.7017C489.587 68.6443 490.201 67.0907 490.201 65.0438C490.201 63.0323 489.587 61.514 488.355 60.4896C487.12 59.4672 485.361 58.9547 483.071 58.9547H475.473V71.2886ZM489.629 88.5688L483.852 78.1599H475.473V88.5688H467.251V52.137H483.071C487.825 52.137 491.503 53.2396 494.104 55.4416C496.708 57.6459 498.009 60.7589 498.009 64.7839C498.009 67.5933 497.425 69.997 496.264 71.9916C495.103 73.9864 493.409 75.5047 491.192 76.5454L498.944 88.5688H489.629Z" fill="white"/>
<path d="M202.108 111.597C200.008 110.921 198.212 110.583 196.721 110.583C195.299 110.583 194.171 110.843 193.337 111.363C192.505 111.884 192.089 112.648 192.089 113.653C192.089 114.937 192.688 115.916 193.884 116.593C195.083 117.27 196.929 117.974 199.428 118.701C201.927 119.431 203.981 120.158 205.595 120.889C207.208 121.617 208.588 122.709 209.732 124.166C210.877 125.625 211.449 127.549 211.449 129.945C211.449 132.269 210.833 134.272 209.603 135.955C208.371 137.638 206.679 138.912 204.528 139.78C202.377 140.648 199.931 141.081 197.189 141.081C194.24 141.081 191.343 140.56 188.499 139.52C185.653 138.479 183.189 137.056 181.108 135.251L184.387 128.538C186.225 130.203 188.341 131.539 190.736 132.546C193.131 133.553 195.316 134.055 197.295 134.055C198.993 134.055 200.32 133.743 201.275 133.119C202.229 132.493 202.705 131.592 202.705 130.411C202.705 129.476 202.385 128.704 201.744 128.096C201.101 127.49 200.285 126.994 199.297 126.613C198.309 126.233 196.947 125.798 195.212 125.313C192.715 124.617 190.675 123.924 189.096 123.229C187.517 122.536 186.156 121.478 185.011 120.054C183.865 118.634 183.293 116.742 183.293 114.382C183.293 112.195 183.884 110.28 185.063 108.63C186.243 106.983 187.891 105.717 190.008 104.833C192.124 103.947 194.588 103.504 197.399 103.504C199.896 103.504 202.36 103.869 204.788 104.597C207.217 105.327 209.368 106.296 211.243 107.513L208.067 114.33C206.193 113.183 204.207 112.274 202.108 111.597Z" fill="white"/>
<path d="M229.197 112.327C227.461 113.35 226.091 114.746 225.085 116.515C224.079 118.285 223.577 120.23 223.577 122.343C223.577 124.497 224.087 126.457 225.112 128.226C226.135 129.996 227.505 131.401 229.223 132.442C230.941 133.481 232.805 134.004 234.819 134.004C236.829 134.004 238.677 133.491 240.361 132.467C242.044 131.444 243.379 130.039 244.368 128.251C245.357 126.466 245.852 124.497 245.852 122.343C245.852 120.23 245.357 118.285 244.368 116.515C243.379 114.746 242.044 113.35 240.361 112.327C238.677 111.303 236.829 110.79 234.819 110.79C232.805 110.79 230.931 111.303 229.197 112.327ZM244.655 106.054C247.639 107.686 249.989 109.931 251.705 112.795C253.423 115.658 254.283 118.842 254.283 122.343C254.283 125.852 253.423 129.041 251.705 131.923C249.989 134.8 247.639 137.065 244.655 138.712C241.671 140.361 238.356 141.185 234.715 141.185C231.071 141.185 227.757 140.361 224.773 138.712C221.788 137.065 219.439 134.809 217.721 131.947C216.004 129.085 215.145 125.884 215.145 122.343C215.145 118.842 216.004 115.658 217.721 112.795C219.439 109.931 221.781 107.686 224.747 106.054C227.715 104.423 231.035 103.608 234.715 103.608C238.356 103.608 241.671 104.423 244.655 106.054Z" fill="white"/>
<path d="M281.267 112.066C279.585 111.216 277.893 110.79 276.195 110.79C274.147 110.79 272.273 111.294 270.572 112.302C268.871 113.307 267.536 114.677 266.564 116.411C265.592 118.147 265.108 120.073 265.108 122.19C265.108 124.306 265.592 126.242 266.564 127.992C267.536 129.743 268.871 131.132 270.572 132.156C272.273 133.18 274.147 133.692 276.195 133.692C277.824 133.692 279.48 133.302 281.163 132.52C282.847 131.74 284.347 130.691 285.665 129.372L290.505 134.627C288.563 136.64 286.283 138.237 283.663 139.416C281.043 140.595 278.415 141.185 275.777 141.185C272.203 141.185 268.959 140.361 266.044 138.712C263.129 137.065 260.84 134.8 259.175 131.923C257.508 129.041 256.677 125.833 256.677 122.293C256.677 118.789 257.527 115.614 259.225 112.768C260.925 109.924 263.259 107.686 266.227 106.054C269.193 104.423 272.48 103.608 276.089 103.608C278.725 103.608 281.329 104.156 283.896 105.248C286.463 106.341 288.649 107.824 290.455 109.697L285.665 115.579C284.416 114.087 282.951 112.916 281.267 112.066Z" fill="white"/>
<path d="M295.919 104.181H304.141V140.614H295.919V104.181Z" fill="white"/>
<path d="M312.728 104.181H340.467V110.998H320.949V118.911H338.489V125.729H320.949V133.795H341.039V140.614H312.728V104.181Z" fill="white"/>
<path d="M344.421 104.181H374.868V111.156H363.731V140.614H355.509V111.156H344.421V104.181Z" fill="white"/>
<path d="M410.624 104.181L397.352 128.85V140.614H389.129V129.059L375.649 104.181H383.924L393.243 120.524L402.349 104.181H410.624Z" fill="white"/>
<path d="M82.3271 105.418C82.3375 113.979 82.9417 114.277 88.9156 114.671L95.0781 115.034L95.3459 115.175C96.6713 115.892 97.088 117.582 96.9131 118.942C96.7245 120.405 95.8891 121.486 94.7312 121.77L94.5417 121.814L94.3464 121.806C89.5041 121.59 81.0708 121.462 71.7885 121.462C62.0031 121.462 53.5724 121.587 48.6579 121.806L48.4625 121.814L48.2729 121.77C47.1151 121.486 46.2803 120.405 46.0912 118.942C45.9161 117.582 46.3328 115.892 47.6584 115.175L47.926 115.034L54.0984 114.671C60.0677 114.277 60.6672 113.979 60.6781 105.399C37.1552 102.755 22.5005 91.364 22.5005 74.8891C22.5005 58.2959 35.1401 47.6677 57.6407 44.6776C57.7213 46.8213 57.7855 49.7005 57.8307 53.0099C56.4573 53.3609 55.1448 53.7505 53.9713 54.2099L53.3875 54.4265C48.6969 56.1839 45.5027 59.4656 44.0959 63.9438L44.0432 64.0932C43.2265 66.0531 42.7776 69.7547 42.7776 74.5194L42.7781 74.7172L42.7776 74.9136C42.7776 79.6782 43.2265 83.3798 44.0432 85.338L44.1031 85.5131C45.1896 88.9672 47.3645 91.7042 50.4432 93.574C54.8703 96.5203 63.3281 98.0412 71.7203 98.0412C80.9027 98.0412 90.1604 96.2198 94.1323 92.7016C96.5469 90.8812 98.2781 88.4552 99.2109 85.4916L99.2636 85.338C100.08 83.3798 100.529 79.6782 100.529 74.9136L100.528 74.7328L100.529 74.5194C100.529 69.7547 100.08 66.0531 99.2636 64.0932L99.2125 63.949C97.8036 59.4656 94.6093 56.1839 89.9745 54.4495L89.3703 54.224C87.314 53.4151 84.9297 52.7724 82.3255 52.3083V94.1079C79.3063 94.6662 75.7396 95.0183 71.7203 95.0183C67.5041 95.0183 63.7891 94.6298 60.6787 94.0246V84.3448C60.8697 75.325 61.064 61.0287 60.8464 50.912L60.8484 50.9136C60.8479 50.6713 60.6771 43.824 60.676 43.5973C60.6349 36.976 60.0052 36.2746 55.0312 35.7292L48.0344 34.923C46.974 34.4474 46.2584 33.2386 46.1683 31.7698C46.0781 30.3094 46.6255 29.035 47.5979 28.449L47.8531 28.2927L48.1489 28.2588C53.2688 27.6547 59.7287 26.5136 66.3375 25.0464C69.8183 24.2156 73.0516 23.1631 75.4136 22.3938C77.7661 21.626 78.7464 21.3161 79.3755 21.3161C80.6817 21.3161 82.214 22.0088 82.6932 23.5552L82.7776 23.8265L82.7469 24.112C82.4833 26.5542 82.3255 31.6412 82.3255 37.7099V44.2855C106.84 46.6651 120.656 57.5194 120.656 74.8891C120.656 91.4011 105.94 102.807 82.3271 105.418ZM71.4197 8.69069C31.976 8.69069 0 37.9386 0 74.0151C0 110.093 31.976 139.339 71.4197 139.339C110.864 139.339 142.84 110.093 142.84 74.0151C142.84 37.9386 110.864 8.69069 71.4197 8.69069Z" fill="#F89A0F"/>
<path d="M121.288 135.307H123.098L126.105 141.496L129.091 135.307H130.921V144.46H129.505V137.486L126.606 143.502H125.604L122.705 137.486V144.46H121.288V135.307ZM112.876 135.307H119.937V136.659H117.17V144.46H115.622V136.659H112.876V135.307Z" fill="#F89A0F"/>
</g>
<defs>
<clipPath id="clip0_762_690">
<rect width="498.947" height="152.667" fill="white"/>
</clipPath>
</defs>
</svg>
