<svg width="455" height="139" viewBox="0 0 455 139" fill="none" xmlns="http://www.w3.org/2000/svg">
<rect x="280" y="104" width="35" height="33" transform="rotate(-180 280 104)" fill="#FFA300"/>
<rect x="210" y="71" width="33" height="34" transform="rotate(90 210 71)" fill="white"/>
<rect x="140" y="71" width="33" height="36" transform="rotate(90 140 71)" fill="white"/>
<rect x="104" y="35" width="36" height="35" transform="rotate(90 104 35)" fill="#035EEB"/>
<rect x="35" y="71" width="35" height="36" transform="rotate(-180 35 71)" fill="#01CBA1"/>
<rect x="140" y="35" width="36" height="36" transform="rotate(90 140 35)" fill="white"/>
<rect x="69" y="35" width="36" height="34" transform="rotate(90 69 35)" fill="white"/>
<rect x="280" width="35" height="35" transform="rotate(90 280 0)" fill="#035EEB"/>
<rect x="210" width="35" height="34" transform="rotate(90 210 0)" fill="white"/>
<rect x="69" width="35" height="34" transform="rotate(90 69 0)" fill="white"/>
<rect x="421" y="138" width="35" height="35" transform="rotate(-180 421 138)" fill="#01CBA1"/>
<rect x="351" y="104" width="35" height="36" transform="rotate(90 351 104)" fill="#035EEB"/>
<rect x="245" y="104" width="35" height="35" transform="rotate(90 245 104)" fill="#035EEB"/>
<rect x="210" y="104" width="35" height="34" transform="rotate(90 210 104)" fill="#035EEB"/>
<rect x="176" y="139" width="36" height="34" transform="rotate(-180 176 139)" fill="#FFA300"/>
<rect x="69" y="139" width="34" height="34" transform="rotate(-180 69 139)" fill="#01CBA1"/>
<rect x="315" y="104" width="35" height="35" transform="rotate(90 315 104)" fill="white"/>
<rect x="420" y="34" width="35" height="33" transform="rotate(-180 420 34)" fill="#FFA300"/>
<rect x="350" y="1" width="33" height="34" transform="rotate(90 350 1)" fill="white"/>
<rect x="385" y="34" width="35" height="35" transform="rotate(90 385 34)" fill="#035EEB"/>
<rect x="350" y="34" width="35" height="34" transform="rotate(90 350 34)" fill="#035EEB"/>
<rect x="316" y="69" width="36" height="34" transform="rotate(-180 316 69)" fill="#FFA300"/>
<rect x="455" y="34" width="35" height="35" transform="rotate(90 455 34)" fill="white"/>
</svg>
