<svg width="457" height="139" viewBox="0 0 457 139" fill="none" xmlns="http://www.w3.org/2000/svg">
<rect x="422" y="139" width="34" height="33" transform="rotate(-180 422 139)" fill="#01CBA1"/>
<rect x="422" y="35" width="35" height="33" transform="rotate(-180 422 35)" fill="#FFA300"/>
<rect x="457" y="35" width="35" height="35" transform="rotate(90 457 35)" fill="white"/>
<rect x="142" y="71" width="33" height="35" transform="rotate(90 142 71)" fill="#035EEB"/>
<rect x="318" y="104" width="35" height="33" transform="rotate(-180 318 104)" fill="#FFA300"/>
<rect x="388" y="139" width="35" height="33" transform="rotate(-180 388 139)" fill="#FFA300"/>
<rect x="72" y="104" width="36" height="33" transform="rotate(-180 72 104)" fill="#FFA300"/>
<rect x="247" y="104" width="36" height="33" transform="rotate(-180 247 104)" fill="#01CBA1"/>
<rect x="37" y="139" width="36" height="33" transform="rotate(-180 37 139)" fill="#01CBA1"/>
<rect x="387" y="35" width="36" height="35" transform="rotate(90 387 35)" fill="#035EEB"/>
<rect x="352" y="35" width="36" height="34" transform="rotate(90 352 35)" fill="#035EEB"/>
<rect x="36" y="35" width="36" height="36" transform="rotate(90 36 35)" fill="#035EEB"/>
<rect x="211" y="35" width="36" height="34" transform="rotate(90 211 35)" fill="white"/>
<rect x="106" y="33" width="36" height="34" transform="rotate(90 106 33)" fill="white"/>
<rect x="352" width="35" height="34" transform="rotate(90 352 0)" fill="#035EEB"/>
<rect x="211" y="35" width="36" height="34" transform="rotate(90 211 35)" fill="white"/>
<rect x="247" width="35" height="36" transform="rotate(90 247 0)" fill="#035EEB"/>
<rect x="72" y="104" width="35" height="36" transform="rotate(90 72 104)" fill="#035EEB"/>
<rect x="211" width="35" height="34" transform="rotate(90 211 0)" fill="#035EEB"/>
<rect x="177" y="35" width="35" height="35" transform="rotate(-180 177 35)" fill="#FFA300"/>
<rect x="72" y="35" width="36" height="35" transform="rotate(-180 72 35)" fill="#01CBA1"/>
<rect x="318" y="104" width="35" height="35" transform="rotate(90 318 104)" fill="#035EEB"/>
<rect x="283" y="104" width="35" height="36" transform="rotate(90 283 104)" fill="white"/>
<rect x="107" y="104" width="35" height="35" transform="rotate(90 107 104)" fill="white"/>
<rect x="318" width="35" height="35" transform="rotate(90 318 0)" fill="white"/>
</svg>
