<svg width="93" height="93" viewBox="0 0 93 93" fill="none" xmlns="http://www.w3.org/2000/svg">
  <rect width="93" height="93" rx="17.4375" fill="#1E212A"/>
  <path d="M73.9999 54.1285C68.2239 54.1285 62.4483 54.1319 56.6731 54.1387C56.2055 54.1387 56.1005 54.0077 56.1773 53.5739C56.5937 51.1681 56.9984 48.7603 57.3915 46.3507C57.4366 46.0762 57.5044 45.9305 57.815 45.8662C58.7642 45.672 59.6195 45.1615 60.241 44.4181C60.2977 44.3452 60.3704 44.2862 60.4534 44.2457C60.5364 44.2052 60.6276 44.1842 60.7199 44.1843C61.133 44.1728 61.545 44.1351 61.9533 44.0714C64.586 43.6263 66.7511 42.3952 68.3482 40.2243C68.2795 40.1552 68.1976 40.1006 68.1073 40.064C68.0171 40.0273 67.9204 40.0092 67.823 40.0108C67.9204 40.0092 68.0171 40.0273 68.1073 40.064C68.1976 40.1006 68.2795 40.1552 68.3482 40.2243C69.4121 38.9084 69.9983 37.3835 70.2682 35.7322C70.5111 34.2582 70.3654 32.7661 70.3812 31.283C70.3701 31.0828 70.4051 30.8827 70.4834 30.698C70.5617 30.5134 70.6813 30.3491 70.8329 30.2179C71.7297 29.3742 72.2402 28.2876 72.1725 27.0688C72.1183 26.0816 71.6077 25.1735 71.3107 24.2259C71.3053 24.1979 71.2933 24.1717 71.2758 24.1494C71.2582 24.127 71.2355 24.1092 71.2097 24.0974C71.1838 24.0855 71.1555 24.0801 71.1271 24.0814C71.0987 24.0827 71.0711 24.0908 71.0464 24.105C70.5709 24.2722 69.9825 24.3309 69.6617 24.6539C69.4189 24.89 69.8266 25.4051 69.9317 25.7936C70.0367 26.1822 70.1654 26.547 70.2987 26.9231C70.3696 27.0974 70.388 27.2886 70.3518 27.4732C70.2727 27.9198 70.085 28.3401 69.8054 28.6972C69.5257 29.0543 69.1626 29.3372 68.748 29.521C67.4198 30.1501 65.3947 29.4306 65.0208 27.5703C64.8966 26.9469 65.2354 26.4408 65.406 25.8998C65.8352 24.5444 65.8465 24.5557 64.4629 24.1479C64.1636 24.0598 64.0608 24.1479 63.9784 24.4055C63.7683 25.0673 63.5627 25.7326 63.321 26.3832C63.1582 26.8442 63.1281 27.3416 63.2341 27.8188C63.4124 28.8075 63.9175 29.7076 64.6685 30.3749C64.8413 30.5319 64.9745 30.6663 64.9711 30.9329C64.9531 32.155 64.9949 33.3794 64.9486 34.5993C64.8672 36.7657 63.1166 38.5718 60.9594 38.7706C60.6804 38.7954 60.4014 38.8304 60.18 38.5729C58.9987 37.2017 57.4908 36.8346 55.7673 37.1452C55.5742 37.1802 55.4025 37.2186 55.2783 37.0063C55.154 36.7939 55.3212 36.7024 55.4353 36.5872C56.3603 35.6531 56.855 34.5428 56.8425 33.2145C56.8346 32.4589 56.8425 32.4295 57.6162 32.4589C59.0212 32.5142 60.5347 31.1746 60.4624 29.6441C60.4105 28.5361 60.4545 27.4246 60.4511 26.3155C60.4455 24.5534 59.3217 23.4013 57.5586 23.4341C56.9837 23.4442 56.8143 23.311 56.8222 22.7123C56.8527 20.381 55.5358 18.7037 53.2848 18.113C53.2103 18.0937 53.1391 18.0847 53.1131 18H38.7692C38.6981 18.1739 38.5185 18.1468 38.3863 18.1909C36.3488 18.8821 35.1731 20.5007 35.1674 22.6525C35.1674 23.4137 35.1674 23.4137 34.3938 23.4194C32.703 23.4307 31.5532 24.5738 31.5532 26.2579C31.5532 27.2925 31.5532 28.3271 31.5532 29.3617C31.5532 31.3949 32.5979 32.451 34.649 32.4419C35.0703 32.4419 35.2002 32.5413 35.1731 32.9683C35.1213 33.6273 35.2154 34.2896 35.4487 34.908C35.682 35.5265 36.0487 36.086 36.5228 36.5466C36.6413 36.6674 36.8616 36.7487 36.7306 36.9984C36.5996 37.248 36.3692 37.1972 36.1851 37.1621C35.6911 37.064 35.1864 37.0317 34.684 37.0661C33.0463 37.1791 31.9384 38.033 31.1828 39.4257C30.8931 39.8241 30.7316 40.3011 30.7197 40.7935C30.7084 41.4622 30.3808 41.9569 30.0511 42.4731C28.7929 44.4102 27.9051 46.4806 27.9514 48.8413C27.9819 50.5254 28.5602 52.0796 29.239 53.5909C29.4423 54.0427 29.3915 54.1364 28.8934 54.1342C25.2645 54.1172 21.6367 54.1251 18.0078 54.1251V55.9324C21.9609 55.9324 25.9037 55.938 29.8511 55.9222C30.2634 55.9222 30.5028 56.0284 30.6779 56.409C30.8789 56.8439 31.1511 57.2471 31.4346 57.7384C30.3763 57.7384 29.3881 57.7554 28.4021 57.7294C28.0248 57.7192 27.9345 57.8424 27.9356 58.2049C27.9469 63.4685 27.9495 68.7323 27.9435 73.9966H64.0642C64.0642 68.7478 64.0563 63.5001 64.0778 58.2512C64.0778 57.7463 63.8677 57.7317 63.4825 57.7317C55.9205 57.7392 48.3586 57.7437 40.7966 57.7452C39.9371 57.7452 39.0821 57.4707 38.218 57.7159C37.9922 57.778 37.8995 57.5521 37.7572 57.4414C37.2297 57.0342 36.7943 56.5199 36.4798 55.9324H73.9999V54.1285ZM61.2937 40.51C64.5499 40.0492 66.7636 37.5021 66.7749 34.1972C66.7749 33.4065 66.785 32.6159 66.7749 31.832C66.7692 31.5349 66.8381 31.4604 67.1544 31.5101C67.5203 31.5666 67.902 31.5248 68.2759 31.5101C68.425 31.5033 68.5854 31.4242 68.582 31.675C68.5537 33.5805 68.7706 35.5153 67.9879 37.3395C67.5543 38.3169 66.959 39.2143 66.2271 39.9938C66.4925 40.0006 66.7579 40.0029 67.0177 40.0108C66.7534 40.0029 66.488 40.0006 66.2271 39.9938C65.022 41.0748 63.6824 41.9027 62.0696 42.228C61.2485 42.3929 61.1977 42.3319 61.3287 41.5142C61.3818 41.19 61.3095 40.8455 61.2937 40.51ZM56.8403 27.925C56.8403 27.1739 56.8527 26.4228 56.8324 25.6728C56.8245 25.3542 56.8776 25.2153 57.2525 25.2153C58.3752 25.2153 58.644 25.4593 58.644 26.5933C58.644 27.6099 58.6553 28.6197 58.644 29.6328C58.6316 30.437 57.6603 31.0018 56.9555 30.6313C56.7748 30.5364 56.8482 30.3693 56.8425 30.2337C56.8358 29.4645 56.8403 28.6942 56.8403 27.925ZM35.1606 27.9589C35.1606 28.7292 35.1471 29.4984 35.1663 30.2676C35.1731 30.5602 35.0872 30.6449 34.7891 30.6516C33.637 30.681 33.3558 30.4257 33.3558 29.2612C33.3558 28.3045 33.3558 27.3411 33.3558 26.39C33.3558 25.4548 34.1272 24.9216 35.0082 25.2289C35.2273 25.3045 35.1561 25.4638 35.1573 25.5948C35.1674 26.3821 35.1606 27.1705 35.1606 27.9589ZM56.6494 38.8304C56.8064 38.6667 57.1147 38.7627 57.3519 38.8146C58.3176 39.0281 58.984 39.6053 59.3849 40.5032C59.8613 40.464 60.3396 40.4554 60.8171 40.4773C60.3399 40.4569 59.8619 40.4671 59.3861 40.5078C59.717 41.9761 59.3861 43.0006 58.3323 43.7291C58.1832 43.8319 58.0172 44.0149 57.8376 43.9403C57.6241 43.8511 57.7518 43.6094 57.7461 43.4388C57.7066 42.176 57.5202 40.9483 56.9555 39.7996C56.9103 39.6776 56.8572 39.559 56.8211 39.4347C56.7635 39.2235 56.48 39.0089 56.6494 38.8304ZM48.6744 19.8422C48.2396 20.4251 47.8511 20.9412 47.4682 21.462C47.3654 21.6031 47.2254 21.6144 47.0706 21.6144C46.7713 21.6144 46.472 21.6144 46.1671 21.6144C44.4729 21.6144 44.247 21.4721 43.3943 19.8434L48.6744 19.8422ZM36.9847 22.3272C36.9971 20.9717 38.1909 19.8648 39.5542 19.8061C39.9111 19.7914 40.2702 19.8219 40.6249 19.7959C40.9231 19.7745 41.1083 19.8852 41.2811 20.1224C41.9881 21.0915 42.7257 22.0425 43.427 23.0116C43.5163 23.1509 43.6421 23.263 43.7906 23.3357C43.9392 23.4084 44.1049 23.4389 44.2696 23.4239C45.4533 23.4002 46.6414 23.4036 47.824 23.4239C47.9605 23.436 48.0978 23.4107 48.2209 23.3506C48.3441 23.2905 48.4486 23.1979 48.5231 23.0828C49.2369 22.1013 49.9801 21.1412 50.6961 20.1608C50.8802 19.91 51.0767 19.8219 51.3919 19.7993C53.9659 19.5915 55.1484 20.9842 55.0603 23.4296C54.9473 26.66 54.9937 29.8983 55.0467 33.1321C55.0727 34.7235 53.8202 36.149 52.0729 36.088C50.006 36.0168 47.9358 36.071 45.861 36.071C43.7738 36.071 41.682 36.0541 39.5982 36.071C38.1763 36.0857 36.9745 34.7292 36.9711 33.5037C36.9666 29.7797 36.9497 26.0557 36.9847 22.3317V22.3272ZM29.9268 50.138C29.7917 49.6483 29.7308 49.1412 29.7461 48.6335C29.754 47.0521 30.3537 45.6369 31.0359 44.2521C31.1974 43.9234 31.3985 43.8737 31.6198 44.2408C31.7366 44.456 31.9016 44.6413 32.1021 44.7818C32.5731 45.0676 32.5878 45.3579 32.328 45.8266C31.3488 47.5695 31.394 49.3676 32.1145 51.1941C33.131 53.7682 34.2605 56.2769 36.1105 58.3823C36.2517 58.5427 36.2878 58.6353 36.0992 58.7753C35.9519 58.892 35.8171 59.0237 35.6971 59.1684C35.1573 59.7874 35.1155 59.8201 34.6434 59.1628C32.6431 56.3785 30.7897 53.5152 29.9268 50.138ZM33.3411 48.8469C33.3931 47.7457 33.759 46.9076 34.2051 46.0954C34.2481 46.0175 34.2944 45.9113 34.4107 45.9407C34.5711 45.9791 34.5711 46.1237 34.5925 46.2536C34.8937 48.0856 35.1972 49.9177 35.5029 51.7498C35.6158 52.4162 35.7288 53.0803 35.8327 53.749C35.8519 53.8733 35.9456 54.0664 35.7197 54.1161C35.5706 54.1466 35.4136 54.1489 35.3278 53.9817C34.4536 52.2976 33.6528 50.5875 33.3411 48.8469ZM37.5596 59.8145C38.3095 59.2949 39.7473 59.3073 40.5492 59.845C40.7854 60.0016 40.974 60.22 41.0947 60.4764C41.3647 61.0344 41.6674 61.5776 41.9181 62.1447C42.0593 62.4609 42.214 62.5479 42.5065 62.3457C42.5822 62.2938 42.6805 62.2712 42.7573 62.2192C43.1639 61.9413 43.3694 62.0114 43.287 62.5321C43.2045 63.0528 43.4157 63.1906 43.9251 63.1736C45.0986 63.1375 45.0749 63.1623 45.1088 61.9967C45.1223 61.5008 45.0116 61.2501 44.4752 61.354C43.7817 61.4873 43.3457 61.2264 43.1402 60.5351C43.0419 60.2019 42.7505 59.9478 42.6748 59.5479H43.1865C49.3389 59.5479 55.4917 59.5445 61.6449 59.5378C62.117 59.5378 62.2786 59.6179 62.2752 60.1409C62.2469 63.9812 62.2514 67.8216 62.2639 71.6619C62.2639 72.064 62.1927 72.2041 61.7488 72.203C51.2496 72.1894 40.7503 72.1894 30.251 72.203C29.8692 72.203 29.7405 72.1239 29.7416 71.7139C29.7559 67.8193 29.7559 63.9244 29.7416 60.0291C29.7416 59.6756 29.815 59.5005 30.2013 59.5524C30.3893 59.5649 30.578 59.5649 30.766 59.5524C32.799 59.5524 32.799 59.5524 34.0188 61.3597H33.3863C32.4568 61.3597 32.424 61.3597 32.476 62.3141C32.4918 62.5942 32.1134 63.1544 32.8148 63.1578C33.2914 63.1578 33.9307 63.3905 34.2018 63.0358C34.4276 62.741 34.2481 62.1379 34.2481 61.6533C34.6264 61.7392 34.6061 61.9922 34.6084 62.2373C34.6155 62.9741 34.8098 63.6971 35.1731 64.3382C35.5119 64.9594 35.9637 65.4677 36.6413 65.7568C37.2456 66.0144 37.8239 66.3329 38.4078 66.6356C38.6077 66.7384 38.7591 66.7644 38.8415 66.508C38.8491 66.4908 38.8586 66.4745 38.8697 66.4594C39.5779 65.1989 39.5881 65.1774 38.2779 64.5392C37.45 64.1371 36.6639 63.7576 36.4584 62.7207C36.2528 61.6838 36.7001 60.412 37.5596 59.8145ZM55.9085 44.0341C55.7809 45.2269 55.555 46.4061 55.3596 47.5932C55.0309 49.5879 54.6819 51.5792 54.3679 53.5796C54.3047 53.9862 54.1929 54.1443 53.7445 54.1443C48.5762 54.1278 43.4071 54.1278 38.2372 54.1443C37.8826 54.1443 37.7053 54.0788 37.642 53.6812C37.1507 50.574 36.6323 47.4689 36.1263 44.365C35.9287 43.1474 36.1907 41.9773 36.5103 40.8139H34.6852C34.3633 41.6486 34.2865 42.5217 34.2514 43.405C34.2447 43.5891 34.3847 43.8568 34.1385 43.9482C33.9375 44.0251 33.7376 43.8545 33.5941 43.7314C32.4071 42.699 32.0897 41.3323 32.9018 40.0198C32.9707 39.9069 33.0441 39.8007 33.1152 39.6911C33.6506 39.1569 34.2718 38.8124 35.0454 38.7773C35.4057 38.7604 35.4758 38.8643 35.3063 39.1941C35.0258 39.7024 34.8182 40.2477 34.6897 40.8139H36.5148C36.9087 39.8791 37.4294 39.003 38.0622 38.2103C38.2372 37.9844 38.401 37.8715 38.7105 37.8715C43.5761 37.8813 48.4418 37.8813 53.3074 37.8715C53.4269 37.8634 53.5464 37.8872 53.6538 37.9404C53.7611 37.9936 53.8524 38.0742 53.9184 38.1742C54.3505 38.7416 54.7491 39.3337 55.1122 39.9475C55.4804 39.8775 55.8577 39.9317 56.2304 39.9317C55.8577 39.9317 55.4804 39.8775 55.1122 39.9475C55.6804 41.2419 56.0621 42.5996 55.9085 44.0341Z" fill="#2FD5E0"/>
  <path d="M47.6038 63.1623C48.7107 63.1623 48.7107 63.1623 48.7107 62.4462C48.7107 61.354 48.7107 61.354 47.8071 61.354C46.9036 61.354 46.9036 61.354 46.9036 62.0419C46.9013 63.1612 46.9013 63.1612 47.6038 63.1623Z" fill="#2FD5E0"/>
  <path d="M51.2883 63.1623C52.324 63.1623 52.324 63.1623 52.324 62.2587C52.324 61.3551 52.324 61.3495 51.6361 61.3495C50.5157 61.3495 50.5157 61.3495 50.5157 62.0509C50.5146 63.1612 50.5146 63.1612 51.2883 63.1623Z" fill="#2FD5E0"/>
  <path d="M54.1286 62.235C54.1286 63.1623 54.1286 63.1623 55.0796 63.1623C55.9368 63.1623 55.9368 63.1623 55.9368 62.3084C55.9368 61.3539 55.9368 61.3539 54.9565 61.3539C54.8437 61.3625 54.7304 61.3625 54.6177 61.3539C54.2246 61.2941 54.0631 61.4477 54.123 61.8453C54.1343 61.9749 54.1362 62.1051 54.1286 62.235Z" fill="#2FD5E0"/>
  <path d="M58.4951 63.1623C59.55 63.1623 59.55 63.1623 59.5489 62.2813C59.5489 61.354 59.5489 61.354 58.8791 61.354C57.7418 61.354 57.7418 61.354 57.7418 62.0938C57.7407 63.1612 57.7407 63.1612 58.4951 63.1623Z" fill="#2FD5E0"/>
  <path d="M33.5007 66.7757C34.2608 66.7757 34.2608 66.7757 34.2596 65.88C34.2596 64.9662 34.2596 64.9662 33.5187 64.9662C32.4503 64.9662 32.4503 64.9662 32.4503 66.0031C32.4491 66.7757 32.4491 66.7757 33.5007 66.7757Z" fill="#2FD5E0"/>
  <path d="M40.7437 66.7757C41.4869 66.7757 41.4869 66.7757 41.4858 65.863C41.4847 64.9504 41.4858 64.9662 40.7833 64.9662C39.6753 64.9662 39.6753 64.9662 39.6753 66.02C39.6753 66.7757 39.6753 66.7757 40.7437 66.7757Z" fill="#2FD5E0"/>
  <path d="M43.9906 66.7757C45.0986 66.7757 45.0986 66.7757 45.0986 66.0596C45.0986 64.9662 45.0986 64.9662 44.195 64.9662C43.2914 64.9662 43.2858 64.9662 43.2847 65.7105C43.2881 66.7757 43.2881 66.7757 43.9906 66.7757Z" fill="#2FD5E0"/>
  <path d="M47.9755 66.7757C48.7119 66.7757 48.7119 66.7757 48.7119 65.8574C48.7119 64.9662 48.7119 64.9662 48.0037 64.9662C46.9014 64.9662 46.9014 64.9662 46.9014 66.0257C46.9014 66.7757 46.9014 66.7757 47.9755 66.7757Z" fill="#2FD5E0"/>
  <path d="M51.551 66.7757C52.3247 66.7757 52.3247 66.7757 52.3247 65.8935C52.3247 64.9662 52.3247 64.9662 51.5962 64.9662C50.5142 64.9662 50.5142 64.9662 50.5142 66.046C50.5142 66.7757 50.5142 66.7757 51.551 66.7757Z" fill="#2FD5E0"/>
  <path d="M55.3845 64.964C55.2909 64.9707 55.1969 64.9707 55.1033 64.964C54.1274 64.964 54.1274 64.964 54.1274 65.9252C54.1274 66.7734 54.1274 66.7734 54.9892 66.7734C55.9379 66.7734 55.9379 66.7734 55.9379 65.8416C55.9277 65.7289 55.9277 65.6155 55.9379 65.5027C56.017 65.0509 55.8148 64.8973 55.3845 64.964Z" fill="#2FD5E0"/>
  <path d="M58.4429 66.7757C59.5497 66.7757 59.5497 66.7757 59.5497 66.0596C59.5497 64.9662 59.5497 64.9662 58.6462 64.9662C57.7426 64.9662 57.7358 64.9662 57.7358 65.7105C57.7392 66.7757 57.7392 66.7757 58.4429 66.7757Z" fill="#2FD5E0"/>
  <path d="M33.3039 68.5773C32.4489 68.5773 32.4489 68.5773 32.4478 69.4368C32.4478 70.3913 32.4478 70.3913 33.3784 70.3913C34.2628 70.3913 34.2628 70.3913 34.2616 69.5599C34.2639 68.5773 34.2639 68.5773 33.3039 68.5773Z" fill="#2FD5E0"/>
  <path d="M37.0437 68.5773C36.0622 68.5773 36.0622 68.5773 36.061 69.5362C36.061 70.3913 36.061 70.3913 36.9205 70.3913C37.8761 70.3913 37.8761 70.3913 37.8749 69.4617C37.8783 68.5773 37.8783 68.5773 37.0437 68.5773Z" fill="#2FD5E0"/>
  <path d="M40.3968 70.3912C41.4878 70.3912 41.4878 70.3912 41.4878 69.7135C41.4878 68.584 41.4878 68.584 40.5673 68.584C39.6739 68.584 39.6739 68.584 39.6739 69.631C39.6728 70.3912 39.6728 70.3912 40.3968 70.3912Z" fill="#2FD5E0"/>
  <path d="M44.4438 70.3912C45.1011 70.3912 45.1011 70.3912 45.1011 69.5023C45.1011 68.5761 45.1011 68.5761 44.0282 68.5772C43.2861 68.5772 43.2861 68.5772 43.2861 69.7203C43.2861 70.3924 43.2861 70.3924 44.4438 70.3912Z" fill="#2FD5E0"/>
  <path d="M47.7968 70.3913C48.7128 70.3913 48.7128 70.3913 48.714 69.7621C48.714 68.5773 48.7139 68.5773 48.0137 68.5773C46.9001 68.5773 46.9001 68.5773 46.8989 69.6865C46.8989 70.3913 46.8989 70.3913 47.7968 70.3913Z" fill="#2FD5E0"/>
  <path d="M51.2407 70.3913C52.3261 70.3913 52.3261 70.3913 52.3272 69.7621C52.3272 68.5773 52.3272 68.5773 51.4011 68.5773C50.5133 68.5773 50.5133 68.5773 50.5122 69.63C50.5122 70.3913 50.5122 70.3913 51.2407 70.3913Z" fill="#2FD5E0"/>
  <path d="M54.8648 68.5772C54.125 68.5772 54.125 68.5772 54.125 69.7226C54.125 70.3924 54.125 70.3924 55.2838 70.3912C55.94 70.3912 55.94 70.3912 55.9389 69.5012C55.9377 68.5761 55.9377 68.5761 54.8648 68.5772Z" fill="#2FD5E0"/>
  <path d="M58.4239 70.4094C59.5534 70.3461 59.5534 70.3913 59.5534 69.7497C59.5534 68.5773 59.5534 68.5773 58.6713 68.5773C57.7395 68.5773 57.7677 68.5773 57.7282 69.6424C57.7079 70.1834 57.7711 70.4455 58.4239 70.4094Z" fill="#2FD5E0"/>
  <path d="M54.1344 42.5374C54.1471 41.9936 53.9972 41.4584 53.7041 41.0002C53.2071 40.1519 52.447 39.7012 51.4847 39.6956C47.8261 39.6737 44.1682 39.6737 40.5111 39.6956C39.5511 39.7024 38.7898 40.1474 38.294 40.999C37.971 41.4203 37.8716 41.9026 37.8716 42.4245C37.8716 43.5337 37.8716 44.6425 37.8716 45.7509C37.8716 47.5852 38.9886 48.708 40.8138 48.7091C44.2721 48.7091 47.7305 48.7091 51.1888 48.7091C51.433 48.7145 51.6772 48.6982 51.9185 48.6605C53.232 48.4222 54.0825 47.2723 54.122 45.9779C54.157 44.8315 54.1197 43.6839 54.1344 42.5374ZM52.3205 45.813C52.3205 46.5709 51.9817 46.8985 51.2103 46.8996C47.7324 46.8996 44.2556 46.8996 40.7799 46.8996C40.0074 46.8996 39.6843 46.58 39.6798 45.8175C39.673 44.7272 39.673 43.6353 39.6798 42.5419C39.6798 41.8066 40.013 41.4813 40.7539 41.4791C42.5204 41.4734 44.2868 41.4791 46.0533 41.4791C47.7632 41.4791 49.4736 41.4791 51.1843 41.4791C51.993 41.4791 52.3138 41.7976 52.3194 42.595C52.3262 43.6681 52.3266 44.7415 52.3205 45.8153V45.813Z" fill="#2FD5E0"/>
  <path d="M47.9944 50.5164C46.9033 50.5164 46.9033 50.5164 46.9033 51.2449C46.9033 52.3224 46.9033 52.3224 47.8148 52.3224C48.7093 52.3224 48.7093 52.3224 48.7093 51.621C48.7104 50.5164 48.7104 50.5164 47.9944 50.5164Z" fill="#2FD5E0"/>
  <path d="M51.4055 50.5164C50.5166 50.5164 50.5166 50.5164 50.5166 51.167C50.5166 52.3224 50.5166 52.3224 51.2372 52.3224C52.3226 52.3224 52.3226 52.3224 52.3226 51.5318C52.3226 50.5164 52.3226 50.5164 51.4055 50.5164Z" fill="#2FD5E0"/>
  <path d="M44.4042 50.5164C43.2905 50.5164 43.2905 50.5164 43.2905 51.2223C43.2905 52.3224 43.2905 52.3224 44.0111 52.3224C45.0965 52.3224 45.0965 52.3224 45.0965 51.4188C45.0965 50.5152 45.0965 50.5164 44.4042 50.5164Z" fill="#2FD5E0"/>
  <path d="M40.5573 50.5163C40.4269 50.5259 40.2959 50.5259 40.1654 50.5163C39.7667 50.4553 39.6154 50.6191 39.6752 51.011C39.6838 51.1238 39.6838 51.2371 39.6752 51.3499C39.6752 52.328 39.6752 52.328 40.6296 52.328C41.4812 52.328 41.4812 52.328 41.4812 51.4719C41.4835 50.5163 41.4835 50.5163 40.5573 50.5163Z" fill="#2FD5E0"/>
  <path d="M42.3883 31.1712C42.3883 31.0774 42.3883 30.9837 42.3883 30.8888C42.395 30.7318 42.3408 30.6403 42.1624 30.6448C41.6575 30.6573 41.0804 30.5229 40.6715 30.7262C40.3914 30.8662 40.6105 31.4897 40.5766 31.8941C40.5653 32.0251 40.5766 32.1584 40.5766 32.2894C40.5868 33.5048 41.3322 34.2525 42.5543 34.2582C43.7018 34.2638 44.8493 34.2582 45.9968 34.2582C47.1827 34.2582 48.3687 34.2694 49.5523 34.2582C50.6298 34.2457 51.391 33.4788 51.4159 32.4035C51.4261 31.9517 51.3978 31.4999 51.4238 31.0481C51.4419 30.7262 51.3346 30.6415 51.0149 30.6358C49.6269 30.6098 49.611 30.5985 49.6077 31.9619C49.6077 32.3594 49.4947 32.4645 49.1005 32.4588C47.2934 32.434 45.4863 32.4408 43.6792 32.4362C42.3962 32.4317 42.3962 32.4317 42.3883 31.1712Z" fill="#2FD5E0"/>
  <path d="M50.5278 28.8433C51.0629 28.8415 51.5854 28.6814 52.0296 28.3831C52.4739 28.0848 52.8199 27.6618 53.0241 27.1672C53.2284 26.6726 53.2817 26.1287 53.1773 25.6039C53.073 25.079 52.8157 24.5968 52.4378 24.218C52.06 23.8392 51.5784 23.5806 51.0539 23.475C50.5294 23.3693 49.9853 23.4213 49.4903 23.6243C48.9952 23.8273 48.5713 24.1723 48.272 24.6158C47.9726 25.0594 47.8112 25.5815 47.8081 26.1166C47.8084 26.8385 48.0948 27.5308 48.6046 28.0419C49.1144 28.553 49.806 28.8412 50.5278 28.8433ZM50.5278 25.2288C50.7069 25.2302 50.8816 25.2848 51.0296 25.3857C51.1777 25.4865 51.2924 25.6291 51.3592 25.7954C51.426 25.9616 51.4419 26.1439 51.4049 26.3192C51.3679 26.4944 51.2796 26.6548 51.1513 26.7797C51.023 26.9047 50.8604 26.9888 50.6842 27.0211C50.508 27.0535 50.3262 27.0328 50.1618 26.9616C49.9974 26.8904 49.8579 26.772 49.761 26.6213C49.6641 26.4707 49.6141 26.2946 49.6175 26.1155C49.6219 25.8776 49.72 25.6511 49.8904 25.4851C50.0609 25.3191 50.2899 25.227 50.5278 25.2288Z" fill="#2FD5E0"/>
  <path d="M41.4923 28.8433C42.0274 28.8412 42.5498 28.6809 42.994 28.3825C43.4381 28.084 43.7839 27.6608 43.9879 27.1662C44.192 26.6715 44.2451 26.1275 44.1405 25.6028C44.036 25.078 43.7784 24.5959 43.4004 24.2172C43.0224 23.8385 42.5408 23.5802 42.0162 23.4748C41.4916 23.3693 40.9476 23.4215 40.4526 23.6248C39.9576 23.828 39.5339 24.1731 39.2347 24.6168C38.9356 25.0604 38.7744 25.5827 38.7715 26.1178C38.7721 26.8396 39.0588 27.5319 39.5688 28.0427C40.0788 28.5536 40.7705 28.8415 41.4923 28.8433ZM41.5036 25.2345C41.6832 25.2368 41.858 25.2927 42.0057 25.3948C42.1534 25.497 42.2673 25.6409 42.3329 25.8081C42.3985 25.9753 42.4127 26.1582 42.3739 26.3336C42.335 26.5089 42.2448 26.6687 42.1147 26.7925C41.9846 26.9163 41.8206 26.9986 41.6435 27.0288C41.4665 27.0589 41.2845 27.0357 41.1207 26.9619C40.957 26.8882 40.8189 26.7673 40.7241 26.6147C40.6294 26.4622 40.5823 26.2848 40.5888 26.1053C40.5958 25.8678 40.6962 25.6427 40.868 25.4787C41.0399 25.3146 41.2694 25.2249 41.507 25.2288L41.5036 25.2345Z" fill="#2FD5E0"/>
  </svg>
  