<svg width="175" height="175" viewBox="0 0 175 175" fill="none" xmlns="http://www.w3.org/2000/svg">
<rect y="140" width="35" height="34" fill="#FFA300"/>
<rect x="105" y="175" width="35" height="35" transform="rotate(-90 105 175)" fill="#035EEB"/>
<rect x="35" y="174" width="34" height="34" transform="rotate(-90 35 174)" fill="white"/>
<rect x="105" y="71" width="35" height="35" transform="rotate(-90 105 71)" fill="white"/>
<rect x="35" y="140" width="36" height="34" transform="rotate(-90 35 140)" fill="#035EEB"/>
<rect x="105" y="104" width="33" height="35" transform="rotate(-90 105 104)" fill="#035EEB"/>
<rect x="69" y="104" width="36" height="36" fill="#FFA300"/>
<rect x="140" y="104" width="35" height="36" fill="#01CBA1"/>
<rect x="69" y="71" width="36" height="33" fill="#01CBA1"/>
<rect x="140" width="35" height="36" fill="#01CBA1"/>
<rect x="140" y="71" width="35" height="35" transform="rotate(-90 140 71)" fill="#035EEB"/>
</svg>
