<svg width="20" height="16" viewBox="0 0 20 16" fill="none" xmlns="http://www.w3.org/2000/svg">
  <path d="M6.2896 16C13.8368 16 17.9648 9.84384 17.9648 4.50525C17.9648 4.33039 17.9648 4.15633 17.9528 3.98305C18.7559 3.41115 19.4491 2.70305 20 1.89188C19.2511 2.21859 18.4567 2.43285 17.6432 2.5275C18.4998 2.02261 19.1409 1.22851 19.4472 0.292976C18.6417 0.763553 17.7605 1.09519 16.8416 1.27358C15.5697 -0.0579988 13.5486 -0.383908 11.9116 0.478606C10.2747 1.34112 9.42902 3.17755 9.8488 4.95814C6.54952 4.7953 3.47558 3.26104 1.392 0.737202C0.302898 2.58314 0.85919 4.94464 2.6624 6.13014C2.00939 6.11109 1.37062 5.93765 0.8 5.62448C0.8 5.64102 0.8 5.65835 0.8 5.67568C0.800535 7.59876 2.1774 9.25511 4.092 9.63591C3.4879 9.79811 2.85406 9.82182 2.2392 9.70522C2.77676 11.3509 4.31726 12.4783 6.0728 12.5108C4.61979 13.6351 2.82485 14.2454 0.9768 14.2436C0.650323 14.243 0.324163 14.2235 0 14.1853C1.87651 15.3709 4.05993 15.9998 6.2896 15.9968" fill="#E9ECF3"/>
  </svg>
  