<svg width="72" height="40" fill="none" xmlns="http://www.w3.org/2000/svg"><g clip-path="url(#clip0)"><path d="M3.099 21.1c-1.56 0-2.38.82-2.38 2.5 0 1.7.8 2.54 2.38 2.54 1.56 0 2.38-.84 2.38-2.54 0-1.68-.84-2.5-2.38-2.5zm.02-7.76c-1.56 0-2.4.8-2.4 2.48 0 1.7.8 2.54 2.4 2.54 1.58 0 2.4-.84 2.4-2.54 0-1.68-.84-2.48-2.4-2.48zm11.566 8.78c-.64 0-1.16 0-1.74-.04-.02-.9-.02-2.02-.02-3.54 0-1.3 0-2.62.04-3.84.56-.04 1.14-.06 1.76-.06 1.98 0 2.82.48 2.82 3.64 0 3.28-.86 3.84-2.86 3.84zM8.005 11c.04 1.96.06 4.34.06 7.52 0 3.18-.02 5.38-.06 7.48h6.98c5.48 0 7.48-1.9 7.48-7.9 0-5.6-2.26-7.1-7.38-7.1h-7.08zM30.05 23.24c-1.08 0-1.46-.34-1.46-1.2 0-.84.54-1.2 1.78-1.2.58 0 1.14.02 1.66.08 0 1.54-.76 2.32-1.98 2.32zm2-3.96c-.64-.1-1.48-.12-2.38-.12-3.72 0-5.44 1.04-5.44 3.64 0 2.54 1.36 3.38 3.9 3.38 2.06 0 3.4-.72 3.9-2.26h.12c-.02.38-.04.76-.04 1.06 0 .94.14 1.02.96 1.02h3.76c-.18-.54-.28-2.24-.28-3.62 0-1.52.06-2.7.06-4.38 0-2.98-1.72-4.68-6.04-4.68-4.44 0-6.12 1.9-5.96 5.28.54-.08 1.42-.08 2.28-.08.72 0 1.42 0 1.9.04-.08-1.3.48-1.8 1.68-1.8 1.14 0 1.58.52 1.58 1.52v1zm12.48-4.06c0-.92.4-1.26 1.56-1.26.74 0 1.34.12 1.8.28.08-1.1.22-2.7.34-3.62-1.04-.2-1.98-.32-3.4-.32-3.8 0-5 1.7-5 4 0 .48 0 1 .02 1.52h-1.2c.04 1.24.04 2.66 0 3.86l1.24-.02c0 1.9-.04 4.06-.14 6.34.92-.04 1.7-.04 2.44-.04.78 0 1.52 0 2.46.04-.1-1.96-.12-3.82-.12-6.38l3.42.06c-.04-1.28-.04-2.74-.02-3.98-1.12.04-2.26.06-3.4.08v-.56zm10.351 0c0-.92.4-1.26 1.56-1.26.74 0 1.34.12 1.8.28.08-1.1.22-2.7.34-3.62-1.04-.2-1.98-.32-3.4-.32-3.8 0-5 1.7-5 4 0 .48 0 1 .02 1.52h-1.2c.04 1.24.04 2.66 0 3.86l1.24-.02c0 1.9-.04 4.06-.14 6.34.92-.04 1.7-.04 2.44-.04.78 0 1.52 0 2.46.04-.1-1.96-.12-3.82-.12-6.38l3.42.06c-.04-1.28-.04-2.74-.02-3.98-1.12.04-2.26.06-3.4.08v-.56zm12.972-1.68c-.14.82-.7 3.12-1.16 5.1-.28 1.24-.52 2.34-.72 3.24h-.1c-.16-.9-.34-2-.64-3.22-.46-1.98-1.02-4.22-1.18-5.12h-5.1c.9 2.72 2.68 8.92 3.18 10.46.5-.04 1.68-.04 3.06-.02-.34.96-.88 1.28-2.06 1.28-1.16 0-2.44-.16-3.4-.52-.06.68-.48 3.06-.58 3.7 1.14.32 2.32.58 4.16.58 3.7 0 5.12-1.54 6.2-5.04.64-2 2.26-8.06 3.04-10.44h-4.7z" fill="#FDFDFD"/></g><defs><clipPath id="clip0"><path fill="#fff" d="M0 0h72v40H0z"/></clipPath></defs></svg>