<?xml version="1.0" encoding="utf-8"?>
<!-- Generator: Adobe Illustrator 22.0.0, SVG Export Plug-In . SVG Version: 6.00 Build 0)  -->
<svg version="1.1" id="Capa_1" xmlns="http://www.w3.org/2000/svg" xmlns:xlink="http://www.w3.org/1999/xlink" x="0px" y="0px"
	 viewBox="0 0 170 50" style="enable-background:new 0 0 170 50;" xml:space="preserve">
<style type="text/css">
	.st0{fill:#626467;}
	.st1{fill:#94CC00;}
	.st2{fill:#FFFFFF;}
	.st3{fill:none;stroke:#FFFFFF;stroke-width:0.7597;stroke-miterlimit:10;}
</style>
<g>
	<g>
		<polygon class="st0" points="18.8,34 21.4,38.2 24,34 21.4,30.9 		"/>
		<path class="st1" d="M42.8,25l-2,1.2l1.8,1.1l-1.8,1.1l1.4,0.8c-1.6,4.4-5.8,7.5-10.8,7.5c-2.8,0-5.4-1-7.4-2.7
			c-1-0.8-1.8-1.8-2.4-2.9l0,0c0,0-0.1-0.1-0.1-0.1c0,0,0,0,0,0c-0.7,1.2-1.5,2.2-2.5,3.1c-2,1.7-4.6,2.7-7.4,2.7
			c-3.1,0-5.8-1.2-7.9-3.2c-1.3-1.2-2.3-2.7-2.9-4.4L2,28.4l-1.8-1.1L2,26.2L0,25c0-0.1,0-0.1,0-0.2l0-11.7l11.5,0.8
			c4.3,0,8,2.4,9.9,5.8c2-3.5,5.7-5.8,9.9-5.8l11.5-0.8l0,11.7C42.8,24.8,42.8,24.9,42.8,25z"/>
		<circle class="st2" cx="11.5" cy="25.3" r="7.4"/>
		<path class="st0" d="M14.6,23.1c-0.4,0.4-1,0.5-1.5,0.2c-0.5-0.3-0.6-1-0.3-1.5c-0.4-0.2-0.9-0.3-1.4-0.3c-2.1,0-3.8,1.7-3.8,3.8
			s1.7,3.8,3.8,3.8c2.1,0,3.8-1.7,3.8-3.8C15.3,24.5,15.1,23.7,14.6,23.1z"/>
		<path class="st3" d="M3.1,25.9"/>
		<path class="st3" d="M39.7,25.9"/>
		<path class="st3" d="M39.7,27.9"/>
		<circle class="st2" cx="31.2" cy="25.3" r="7.4"/>
		<path class="st0" d="M34.3,23.1c-0.4,0.4-1,0.5-1.5,0.2c-0.5-0.3-0.6-1-0.3-1.5c-0.4-0.2-0.9-0.3-1.4-0.3c-2.1,0-3.8,1.7-3.8,3.8
			s1.7,3.8,3.8,3.8s3.8-1.7,3.8-3.8C35,24.5,34.8,23.7,34.3,23.1z"/>
	</g>
	<g>
		<path class="st1" d="M55,26.3c0.4,1.9,1.9,3.2,4.1,3.2c1.5,0,2.9-0.7,3.7-1.8l2.4,2c-1.3,1.8-3.7,3-6.5,3c-4.3,0-7.3-3.3-7.3-7.4
			c0-4.1,3-7.4,7.3-7.4c4.4,0,7,3.2,7,7.7c0,0.3,0,0.6,0,0.8H55z M55.1,23.9h7.1c-0.1-1.6-1-3.2-3.5-3.2
			C56.8,20.7,55.4,22.2,55.1,23.9z"/>
		<path class="st1" d="M69,32.4h-4l5.3-7.3l-5.2-7h4.1l3.1,4.2l3.1-4.2h4.1l-5.2,7l5.3,7.3h-4l-3.3-4.2L69,32.4z"/>
		<path class="st1" d="M84,21.1v5.1c0,2.6,0.4,3.3,2.3,3.3c0.6,0,1.2-0.1,1.7-0.1v2.7c-0.2,0.1-1.3,0.5-3.3,0.5
			c-2.4,0-4.3-1.5-4.3-4.5v-7h-3.1v-3h3.1v-5.6H84v5.6h4v3H84z"/>
		<path class="st1" d="M99.6,14.4c0-1.2,1-2.2,2.1-2.2s2.1,1,2.1,2.2s-0.9,2.1-2.1,2.1S99.6,15.6,99.6,14.4z M99.9,18.1h3.7v14.3
			h-3.7V18.1z"/>
		<path class="st1" d="M129,24.4v8h-3.7v-8c0-2.2-1.1-3.3-3.1-3.3c-1.2,0-2.1,0.4-2.9,1.1c0.1,0.4,0.2,0.9,0.2,2.2v8h-3.7v-8
			c0-2.2-1-3.3-2.9-3.3c-1.3,0-2.3,0.4-3.1,1.1v10.2h-3.7V18.1h3.7V19c1-0.7,2.3-1.2,3.7-1.2c2.2,0,3.8,0.6,4.8,1.8
			c1.2-1.1,2.8-1.8,4.5-1.8C127.1,17.8,129,19.8,129,24.4z"/>
		<path class="st1" d="M131.1,14.4c0-1.2,1-2.2,2.1-2.2c1.2,0,2.1,1,2.1,2.2s-0.9,2.1-2.1,2.1C132,16.5,131.1,15.6,131.1,14.4z
			 M131.4,18.1h3.7v14.3h-3.7V18.1z"/>
		<path class="st1" d="M151.8,18.1v14.3h-3.7v-1.1c-1.2,0.8-2.6,1.3-4.2,1.3c-4.5,0-7.1-3.6-7.1-7.4c0-3.8,2.6-7.4,7.1-7.4
			c1.5,0,3,0.5,4.2,1.2v-0.9H151.8z M148.1,22.4c-0.9-0.8-2.2-1.2-3.5-1.2c-2.6,0-4.3,2-4.3,4.1c0,2.2,1.7,4.1,4.3,4.1
			c1.4,0,2.6-0.4,3.5-1.2V22.4z"/>
		<path class="st1" d="M167.9,24.4v8h-3.7v-8c0-2.2-1.1-3.3-3.1-3.3c-1.3,0-2.4,0.4-3.2,1.1v10.2h-3.7V18.1h3.7V19
			c1.1-0.7,2.4-1.2,3.8-1.2C166,17.8,167.9,19.8,167.9,24.4z"/>
		<path class="st1" d="M98.1,17.8c-0.1,0-0.2,0-0.3,0c-2,0-3.5,0.9-4.5,2.3v-2h-3.7v14.3h3.7v-6.9c0-1.9,1-3.8,3.6-3.8
			c0.4,0,0.8,0,1.1,0.1V17.8z"/>
	</g>
</g>
</svg>
