<svg width="150" height="42" viewBox="0 0 150 42" fill="none" xmlns="http://www.w3.org/2000/svg">
  <g clip-path="url(#clip0_91_116)">
  <path d="M45.1998 40.8C44.5998 40.3 44.2998 39.5001 44.2998 38.5001C44.2998 38.3001 44.2998 37.9001 44.2998 37.5001C44.2998 37.0001 44.2998 36.7001 44.2998 36.4001C44.2998 35.4001 44.6998 34.6 45.1998 34.1C45.7998 33.5 46.5998 33.3 47.6998 33.3C48.3998 33.3 48.9998 33.4 49.4998 33.7C49.9998 33.9 50.3998 34.3 50.6998 34.7C50.9998 35.1 51.0998 35.6 51.1998 36.1C51.1998 36.2 51.1998 36.2 51.0998 36.3C50.9998 36.3 50.9998 36.4001 50.8998 36.4001H49.7998C49.6998 36.4001 49.5998 36.4 49.5998 36.3C49.5998 36.3 49.4998 36.2 49.4998 36.1C49.3998 35.6 49.1998 35.3 48.8998 35.1C48.5998 34.9 48.1998 34.8 47.7998 34.8C46.6998 34.8 46.0998 35.4 46.0998 36.7C46.0998 36.9 46.0998 37.2 46.0998 37.7C46.0998 38.1 46.0998 38.5 46.0998 38.7C46.0998 39.9 46.6998 40.6 47.7998 40.6C48.2998 40.6 48.5998 40.5 48.8998 40.3C49.1998 40.1 49.3998 39.8 49.4998 39.3C49.4998 39.2 49.5998 39.1 49.5998 39.1C49.5998 39.1 49.6998 39.0001 49.7998 39.0001H50.8998C50.9998 39.0001 50.9998 39 51.0998 39.1C51.1998 39.1 51.1998 39.2 51.1998 39.3C51.1998 39.8 50.9998 40.3 50.6998 40.7C50.3998 41.1 49.9998 41.4 49.4998 41.7C48.9998 41.9 48.3998 42.1 47.6998 42.1C46.5998 41.6 45.7998 41.3 45.1998 40.8Z" fill="#FF8000"/>
  <path d="M54.6996 41.4001C54.5996 41.3001 54.5996 41.3 54.5996 41.2V34.8H52.3996C52.2996 34.8 52.2996 34.8 52.1996 34.7C52.0996 34.6 52.0996 34.6001 52.0996 34.5001V33.6C52.0996 33.5 52.0996 33.4001 52.1996 33.4001C52.2996 33.3001 52.2996 33.3 52.3996 33.3H58.3996C58.4996 33.3 58.5996 33.3001 58.5996 33.4001C58.6996 33.5001 58.6996 33.5 58.6996 33.6V34.5001C58.6996 34.6001 58.6996 34.7 58.5996 34.7C58.4996 34.8 58.4996 34.8 58.3996 34.8H56.1996V41.2C56.1996 41.3 56.1996 41.3001 56.0996 41.4001C55.9996 41.5001 55.9996 41.5001 55.8996 41.5001H54.7996C54.7996 41.5001 54.6996 41.5001 54.6996 41.4001Z" fill="#FF8000"/>
  <path d="M60.1996 41.4001C60.0996 41.3001 60.0996 41.3 60.0996 41.2V33.6C60.0996 33.5 60.0996 33.4001 60.1996 33.4001C60.2996 33.3001 60.2996 33.3 60.3996 33.3H63.3996C64.3996 33.3 65.0996 33.5001 65.6996 34.0001C66.1996 34.4001 66.4996 35.1001 66.4996 35.9001C66.4996 36.5001 66.3996 36.9 66.0996 37.3C65.7996 37.7 65.3996 38 64.9996 38.1L66.6996 41.1V41.2C66.6996 41.3 66.6996 41.3001 66.5996 41.4001C66.4996 41.4001 66.4996 41.5001 66.3996 41.5001H65.2996C65.1996 41.5001 65.0996 41.5001 64.9996 41.4001C64.8996 41.3001 64.8996 41.3 64.7996 41.2L63.2996 38.4001H61.6996V41.2C61.6996 41.3 61.6996 41.3001 61.5996 41.4001C61.4996 41.5001 61.4996 41.5001 61.3996 41.5001H60.2996C60.2996 41.5001 60.1996 41.5001 60.1996 41.4001ZM63.3996 37.1C63.8996 37.1 64.1996 37 64.4996 36.8C64.6996 36.6 64.8996 36.3001 64.8996 35.9001C64.8996 35.5001 64.7996 35.2001 64.4996 35.0001C64.2996 34.8001 63.8996 34.7 63.3996 34.7H61.7996V37.2H63.3996V37.1Z" fill="#FF8000"/>
  <path d="M68.2997 41.4001C68.1997 41.3001 68.1997 41.3 68.1997 41.2V33.6C68.1997 33.5 68.1997 33.4001 68.2997 33.4001C68.3997 33.3001 68.3997 33.3 68.4997 33.3H69.5997C69.6997 33.3 69.7997 33.3001 69.7997 33.4001C69.8997 33.5001 69.8997 33.5 69.8997 33.6V40.1H73.5997C73.6997 40.1 73.7997 40.1 73.7997 40.2C73.8997 40.3 73.8997 40.3001 73.8997 40.4001V41.2C73.8997 41.3 73.8997 41.3001 73.7997 41.4001C73.6997 41.5001 73.6997 41.5001 73.5997 41.5001H68.4997C68.3997 41.5001 68.3997 41.5001 68.2997 41.4001Z" fill="#FF8000"/>
  <path d="M78.6 41.4C78.5 41.4 78.5 41.3 78.5 41.2V33.5C78.5 33.4 78.5 33.3 78.6 33.3C78.7 33.3 78.7 33.2 78.8 33.2H79.1C79.2 33.2 79.3 33.3 79.3 33.4L82 38.5999L84.7 33.4C84.8 33.3 84.8 33.2 84.9 33.2H85.2C85.3 33.2 85.4 33.2 85.4 33.3C85.4 33.3 85.5 33.4 85.5 33.5V41.2C85.5 41.3 85.5 41.3 85.4 41.4C85.3 41.4 85.3 41.5 85.2 41.5H85C84.9 41.5 84.9 41.5 84.8 41.4C84.8 41.4 84.7 41.3 84.7 41.2V34.9L82.5 39.3C82.4 39.5 82.3 39.5 82.1 39.5H81.8C81.6 39.5 81.5 39.4 81.4 39.3L79.2 34.9V41.2C79.2 41.3 79.2 41.3 79.1 41.4C79.1 41.4 79 41.5 78.9 41.5H78.7C78.7 41.5 78.6 41.5 78.6 41.4Z" fill="#FFE7E6"/>
  <path d="M87.1 41.4001C87.1 41.4001 87 41.3 87 41.2V41.1L90 33.5001C90.1 33.3001 90.2 33.3 90.3 33.3H90.7C90.9 33.3 91 33.4001 91 33.5001L94 41.1V41.2C94 41.3 94 41.3001 93.9 41.4001C93.9 41.4001 93.8 41.5001 93.7 41.5001H93.5C93.4 41.5001 93.4 41.5001 93.3 41.4001L93.2 41.3L92.5 39.4001H88.4L87.7 41.3C87.7 41.3 87.7 41.4001 87.6 41.4001C87.6 41.4001 87.5 41.5001 87.4 41.5001H87.2C87.2 41.5001 87.1 41.5001 87.1 41.4001ZM88.8 38.8H92.4L90.6 34.2L88.8 38.8Z" fill="#FFE7E6"/>
  <path d="M96.1002 40.8C95.6002 40.2 95.3002 39.5 95.2002 38.5C95.2002 38.3 95.2002 37.9 95.2002 37.4C95.2002 36.9 95.2002 36.5 95.2002 36.3C95.2002 35.4 95.5002 34.6 96.1002 34C96.6002 33.4 97.4002 33.2 98.4002 33.2C99.1002 33.2 99.6002 33.2999 100.1 33.5999C100.6 33.7999 100.9 34.1 101.1 34.5C101.3 34.8 101.4 35.1 101.5 35.4C101.5 35.5 101.5 35.4999 101.4 35.5999C101.4 35.5999 101.3 35.7 101.2 35.7H100.9C100.8 35.7 100.8 35.7 100.7 35.7C100.7 35.7 100.6 35.6 100.6 35.5C100.5 35.1 100.2 34.7 99.8002 34.5C99.4002 34.2 98.9002 34.0999 98.3002 34.0999C97.6002 34.0999 97.0002 34.3 96.6002 34.7C96.2002 35.1 96.0002 35.6999 95.9002 36.5999C95.9002 36.7999 95.9002 37.2 95.9002 37.7C95.9002 38.2 95.9002 38.5 95.9002 38.8C95.9002 39.6 96.2002 40.3 96.6002 40.7C97.0002 41.1 97.6002 41.3 98.3002 41.3C99.0002 41.3 99.6002 41.1 100.1 40.7C100.5 40.3 100.8 39.7 100.8 38.9V38.3H98.8002C98.7002 38.3 98.7002 38.3 98.6002 38.2C98.6002 38.1 98.5002 38.1 98.5002 38V37.8C98.5002 37.7 98.5002 37.6999 98.6002 37.5999C98.6002 37.4999 98.7002 37.5 98.8002 37.5H101.3C101.4 37.5 101.5 37.4999 101.5 37.5999C101.5 37.5999 101.6 37.7 101.6 37.8V38.8C101.6 39.4 101.5 40 101.2 40.4C101 40.9 100.6 41.2 100.1 41.5C99.6002 41.8 99.1002 41.9 98.4002 41.9C97.4002 41.6 96.6002 41.3 96.1002 40.8Z" fill="#FFE7E6"/>
  <path d="M103.8 41.4C103.8 41.4 103.7 41.3 103.7 41.2V33.5C103.7 33.4 103.7 33.4 103.8 33.3C103.8 33.3 103.9 33.2 104 33.2H104.2C104.3 33.2 104.3 33.2 104.4 33.3C104.4 33.3 104.5 33.4 104.5 33.5V41.2C104.5 41.3 104.5 41.3 104.4 41.4C104.4 41.4 104.3 41.5 104.2 41.5H104C103.9 41.5 103.9 41.5 103.8 41.4Z" fill="#FFE7E6"/>
  <path d="M107.7 40.8C107.2 40.2 106.9 39.5 106.9 38.5C106.9 38.3 106.9 37.9 106.9 37.5C106.9 37 106.9 36.7 106.9 36.4C106.9 35.4 107.2 34.6999 107.7 34.0999C108.2 33.4999 109 33.2 110 33.2C110.7 33.2 111.3 33.2999 111.7 33.5999C112.2 33.8999 112.5 34.1999 112.7 34.5999C112.9 34.9999 113 35.4 113.1 35.8C113.1 35.9 113.1 35.9 113 36C113 36 112.9 36.0999 112.8 36.0999H112.6C112.5 36.0999 112.4 36 112.3 35.9C112.2 35.2 111.9 34.8 111.5 34.5C111.1 34.2 110.6 34.0999 109.9 34.0999C109.2 34.0999 108.6 34.3 108.2 34.7C107.8 35.1 107.6 35.6999 107.5 36.5999C107.5 36.7999 107.5 37.0999 107.5 37.5999C107.5 37.9999 107.5 38.3999 107.5 38.5999C107.5 39.4999 107.7 40.1 108.2 40.5C108.6 40.9 109.2 41.0999 109.9 41.0999C110.6 41.0999 111.1 41 111.5 40.7C111.9 40.4 112.2 40 112.3 39.3C112.3 39.1 112.4 39.0999 112.6 39.0999H112.8C112.9 39.0999 112.9 39.1 113 39.2C113.1 39.2 113.1 39.3 113.1 39.4C113.1 39.8 113 40.1999 112.7 40.5999C112.5 40.9999 112.1 41.2999 111.7 41.5999C111.2 41.8999 110.7 42 110 42C108.9 41.6 108.2 41.3 107.7 40.8Z" fill="#FFE7E6"/>
  <path d="M114.7 5.20004C114.7 6.30004 113.8 7.10004 112.8 7.10004C111.7 7.10004 110.9 6.20004 110.9 5.20004C110.9 4.10004 111.8 3.30005 112.8 3.30005C113.9 3.30005 114.7 4.10004 114.7 5.20004Z" fill="#FFE7E6"/>
  <path d="M45.5999 25.7C45.1999 25.7 44.8999 25.6 44.6999 25.3C44.4999 25.1 44.3999 24.8001 44.3999 24.4001V5.10004C44.3999 4.70004 44.4999 4.40004 44.6999 4.20004C44.8999 3.90004 45.1999 3.80005 45.5999 3.80005H56.0999C56.4999 3.80005 56.7999 3.90004 56.9999 4.20004C57.1999 4.40004 57.3999 4.80004 57.3999 5.10004V6.20004C57.3999 6.60004 57.2999 6.90004 56.9999 7.10004C56.7999 7.30004 56.3999 7.50006 56.0999 7.50006H48.2999V13.2H53.0999C53.4999 13.2 53.7999 13.3 53.9999 13.6C54.1999 13.8 54.3999 14.2001 54.3999 14.5001V15.6C54.3999 16 54.2999 16.3001 53.9999 16.5001C53.7999 16.7001 53.3999 16.8 53.0999 16.8H48.2999V24.4001C48.2999 24.8001 48.1999 25.1 47.8999 25.3C47.6999 25.5 47.2999 25.6 46.9999 25.6H45.5999V25.7Z" fill="#FFE7E6"/>
  <path d="M76.1 26.0001C73.8 26.0001 71.9 25.3001 70.6 24.0001C69.3 22.7001 68.6 20.9 68.5 18.7V17.4001V16.1C68.6 13.9 69.3 12.1 70.6 10.8C71.9 9.50005 73.7 8.80005 76 8.80005C78.3 8.80005 80.1 9.50005 81.4 10.8C82.7 12.1 83.4 13.9 83.5 16.1C83.5 16.5 83.6 17.0001 83.6 17.4001C83.6 17.8001 83.6 18.3 83.5 18.7C83.4 20.9 82.7 22.6001 81.5 24.0001C80.3 25.3001 78.4 26.0001 76.1 26.0001ZM76.1 12.1C75 12.1 74.1 12.4 73.5 13.1C72.9 13.8 72.5 14.8 72.5 16.2V17.3V18.4001C72.6 19.7001 72.9 20.8001 73.5 21.5001C74.1 22.2001 75 22.5001 76.1 22.5001C77.2 22.5001 78.1 22.2001 78.7 21.5001C79.3 20.8001 79.7 19.8001 79.7 18.4001C79.7 18.2001 79.7 17.8 79.7 17.3C79.7 16.6 79.7 16.3 79.7 16.2C79.6 14.8 79.3 13.8 78.6 13.1C78.1 12.5 77.2 12.1 76.1 12.1Z" fill="#FFE7E6"/>
  <path d="M101.1 25.7001C100.3 25.7001 99.7997 25.3002 99.4997 24.5002L96.5997 18.5002L93.6997 24.5002C93.4997 25.2002 92.8997 25.6001 92.0997 25.6001H90.9997C90.5997 25.6001 90.1997 25.5001 89.9997 25.3001C89.7997 25.1001 89.5997 24.8002 89.4997 24.5002L85.2997 10.7001L85.1997 10.3001C85.1997 9.90014 85.2997 9.60014 85.4997 9.30014C85.6997 9.10014 85.9997 9.00015 86.3997 9.00015H87.5997C87.8997 9.00015 88.1997 9.10014 88.4997 9.30014C88.6997 9.50014 88.8997 9.70015 88.8997 9.90015L91.6997 19.4001L94.6997 13.5002C94.7997 13.3002 94.8997 13.0001 95.0997 12.8001C95.2997 12.6001 95.6997 12.4001 96.0997 12.4001H97.0997C97.4997 12.4001 97.7997 12.5001 98.0997 12.7001C98.2997 12.9001 98.4997 13.1001 98.4997 13.4001L101.5 19.3001L104.3 9.80014C104.3 9.60014 104.5 9.40013 104.7 9.20013C104.9 9.00013 105.2 8.90015 105.6 8.90015H106.8C107.1 8.90015 107.4 9.00013 107.7 9.20013C107.9 9.40013 108.1 9.70013 108.1 10.1001L108 10.5002L103.8 24.4001C103.7 24.8001 103.5 25.0001 103.3 25.2001C103.1 25.4001 102.7 25.5002 102.3 25.5002H101.1V25.7001Z" fill="#FFE7E6"/>
  <path d="M112.1 25.7C111.7 25.7 111.4 25.6 111.2 25.3C111 25.1 110.8 24.8 110.8 24.4V10.5C110.8 10.1 110.9 9.79995 111.2 9.59995C111.4 9.39995 111.8 9.19995 112.1 9.19995H113.4C113.8 9.19995 114.1 9.29995 114.3 9.59995C114.5 9.79995 114.7 10.2 114.7 10.5V24.4C114.7 24.8 114.6 25.1 114.3 25.3C114.1 25.5 113.7 25.7 113.4 25.7H112.1Z" fill="#FFE7E6"/>
  <path d="M125.9 26.0001C123.6 26.0001 121.8 25.3001 120.5 24.0001C119.2 22.7001 118.5 20.9 118.5 18.6V17.4001V16.2C118.6 13.9 119.3 12.1 120.5 10.8C121.8 9.50005 123.6 8.80005 125.9 8.80005C127.4 8.80005 128.7 9.10004 129.8 9.60004C130.9 10.2 131.7 10.9 132.2 11.7C132.7 12.5 133 13.4 133.1 14.2C133.1 14.5 133 14.9 132.7 15.1C132.4 15.3 132.1 15.5001 131.8 15.5001H130.5C130.2 15.5001 129.9 15.4 129.7 15.2C129.5 15.1 129.4 14.8001 129.3 14.5001C129 13.6001 128.6 13 128.1 12.7C127.6 12.4 126.9 12.2 126.1 12.2C125 12.2 124.2 12.5 123.6 13.2C123 13.9 122.6 14.9001 122.6 16.4001V17.4001V18.4001C122.7 19.8001 123 20.9 123.6 21.6C124.2 22.3 125.1 22.6 126.1 22.6C126.9 22.6 127.6 22.4 128.2 22.1C128.7 21.8 129.1 21.2 129.4 20.3C129.5 20 129.7 19.7 129.9 19.6C130.1 19.4 130.4 19.3 130.7 19.3H132C132.3 19.3 132.6 19.4 132.9 19.7C133.2 20 133.3 20.3 133.3 20.7C133.3 21.5 133 22.3 132.4 23.2C131.9 24 131 24.7 130 25.3C128.7 25.7 127.4 26.0001 125.9 26.0001Z" fill="#FFE7E6"/>
  <path d="M142.2 26C140.8 26 139.5 25.8 138.5 25.3C137.5 24.8 136.7 24.1999 136.2 23.5999C135.7 22.8999 135.4 22.3 135.4 21.8C135.4 21.4 135.6 21.1 135.8 20.9C136 20.7 136.3 20.5999 136.6 20.5999H137.8C138 20.5999 138.2 20.6 138.4 20.7C138.5 20.8 138.7 20.8999 138.8 21.0999C139.2 21.5999 139.7 22 140.2 22.3C140.7 22.6 141.3 22.7 142.2 22.7C143.2 22.7 143.9 22.5 144.5 22.2C145 21.9 145.2 21.5 145.2 21C145.2 20.7 145.1 20.4 144.9 20.2C144.7 20 144.3 19.7 143.7 19.5C143.1 19.3 142.1 19 140.9 18.7C139.1 18.3 137.7 17.7 137 16.9C136.2 16.1 135.8 15 135.8 13.7C135.8 12.9 136.1 12 136.5 11.3C137 10.5 137.7 9.89996 138.7 9.39996C139.6 8.89996 140.8 8.69995 142 8.69995C143.3 8.69995 144.5 8.89996 145.4 9.39996C146.4 9.89996 147.1 10.4 147.6 11C148.1 11.7 148.4 12.2 148.4 12.8C148.4 13.1 148.3 13.4 148 13.7C147.8 13.9 147.5 14 147.1 14H146C145.5 14 145.1 13.8 144.9 13.4C144.6 13.1 144.4 12.7999 144.1 12.5999C143.9 12.3999 143.7 12.3 143.3 12.2C142.9 12.1 142.4 12 141.9 12C141.1 12 140.4 12.2 140 12.5C139.6 12.8 139.5 13.2 139.5 13.7C139.5 14 139.6 14.2 139.7 14.4C139.8 14.5 140.1 14.8 140.7 15C141.3 15.2 142.2 15.5 143.3 15.7C145.3 16.1 146.7 16.7 147.6 17.5C148.5 18.3 149 19.4 149 20.8C149 21.8 148.7 22.7 148.2 23.5C147.6 24.3 146.8 24.9 145.8 25.3C144.8 25.7 143.6 26 142.2 26Z" fill="#FFE7E6"/>
  <path d="M65.1001 25.7H63.1001C61.2001 25.7 59.6001 24.1 59.6001 22.2V5.00006C59.6001 4.30006 60.1001 3.80005 60.8001 3.80005H62.0001C62.7001 3.80005 63.2001 4.30006 63.2001 5.00006V21.1C63.2001 21.7 63.7001 22.1 64.2001 22.1H65.1001C65.8001 22.1 66.3001 22.6 66.3001 23.3V24.5001C66.2001 25.1001 65.7001 25.7 65.1001 25.7Z" fill="#FFE7E6"/>
  <path d="M14.1001 10.8C12.7001 10.8 11.6001 11.9 11.6001 13.3V28.6C11.6001 30 12.7001 31.1 14.1001 31.1H24.8001C26.2001 31.1 27.3001 30 27.3001 28.6V13.3C27.3001 11.9 26.2001 10.8 24.8001 10.8H14.1001Z" fill="url(#paint0_linear_91_116)"/>
  <path d="M20.8998 0C19.4998 0 18.2998 1.1 18.2998 2.5V17.3C18.2998 18.7 19.4998 19.8 20.8998 19.8H31.2998C32.6998 19.8 33.8998 18.7 33.8998 17.3V2.5C33.8998 1.1 32.6998 0 31.2998 0H20.8998Z" fill="url(#paint1_radial_91_116)"/>
  <path d="M2.60001 21.8999C1.20001 21.8999 0 22.9999 0 24.3999V39.1999C0 40.5999 1.20001 41.6999 2.60001 41.6999H13C14.4 41.6999 15.6 40.5999 15.6 39.1999V24.3999C15.6 22.9999 14.4 21.8999 13 21.8999H2.60001Z" fill="url(#paint2_radial_91_116)"/>
  <path d="M3.8999 6.3999V23.2999C3.8999 24.6999 4.9999 25.7999 6.3999 25.7999H19.9999C20.9999 25.7999 21.8999 24.9999 21.8999 23.8999V6.3999C21.8999 4.9999 20.7999 3.8999 19.3999 3.8999H6.3999C4.9999 3.8999 3.8999 4.9999 3.8999 6.3999Z" fill="url(#paint3_linear_91_116)"/>
  </g>
  <defs>
  <linearGradient id="paint0_linear_91_116" x1="22.1021" y1="23.7339" x2="27.7225" y2="29.3544" gradientUnits="userSpaceOnUse">
  <stop stop-color="#6700A3"/>
  <stop offset="0.1396" stop-color="#6D04A7"/>
  <stop offset="0.3205" stop-color="#7D10B2"/>
  <stop offset="0.524" stop-color="#9825C4"/>
  <stop offset="0.7443" stop-color="#BD41DE"/>
  <stop offset="0.9755" stop-color="#EC64FE"/>
  <stop offset="0.9796" stop-color="#ED65FF"/>
  </linearGradient>
  <radialGradient id="paint1_radial_91_116" cx="0" cy="0" r="1" gradientUnits="userSpaceOnUse" gradientTransform="translate(11.4026 14.4667) scale(28.8003)">
  <stop offset="0.419" stop-color="#FF3022"/>
  <stop offset="0.4593" stop-color="#FF4A1D"/>
  <stop offset="0.5107" stop-color="#FF6318"/>
  <stop offset="0.5638" stop-color="#FF7615"/>
  <stop offset="0.6195" stop-color="#FF8013"/>
  <stop offset="0.6816" stop-color="#FF8412"/>
  </radialGradient>
  <radialGradient id="paint2_radial_91_116" cx="0" cy="0" r="1" gradientUnits="userSpaceOnUse" gradientTransform="translate(11.4028 14.4666) scale(28.8003)">
  <stop offset="0.419" stop-color="#FF3022"/>
  <stop offset="0.4593" stop-color="#FF4A1D"/>
  <stop offset="0.5107" stop-color="#FF6318"/>
  <stop offset="0.5638" stop-color="#FF7615"/>
  <stop offset="0.6195" stop-color="#FF8013"/>
  <stop offset="0.6816" stop-color="#FF8412"/>
  </radialGradient>
  <linearGradient id="paint3_linear_91_116" x1="21.8092" y1="23.8069" x2="3.74761" y2="5.7452" gradientUnits="userSpaceOnUse">
  <stop stop-color="#FF900B"/>
  <stop offset="1" stop-color="#FFD100"/>
  </linearGradient>
  <clipPath id="clip0_91_116">
  <rect width="149.2" height="41.8" fill="white"/>
  </clipPath>
  </defs>
  </svg>
  