<?xml version="1.0" encoding="utf-8"?>
<!-- Generator: Adobe Illustrator 19.0.0, SVG Export Plug-In . SVG Version: 6.00 Build 0)  -->
<svg version="1.1" id="Layer_1" xmlns="http://www.w3.org/2000/svg" xmlns:xlink="http://www.w3.org/1999/xlink" x="0px" y="0px"
	 width="356.1px" height="329.1px" viewBox="0 0 356.1 329.1" style="enable-background:new 0 0 356.1 329.1;" xml:space="preserve"
	>
<style type="text/css">
	.st0{fill:#FF8000;}
	.st1{fill:#FFE7E6;}
	.st2{fill:url(#XMLID_46_);}
	.st3{fill:url(#XMLID_47_);}
	.st4{fill:url(#XMLID_48_);}
	.st5{fill:url(#XMLID_49_);}
	.st6{fill:#66008E;}
	.st7{fill:url(#XMLID_50_);}
	.st8{fill:url(#XMLID_51_);}
	.st9{fill:url(#XMLID_52_);}
	.st10{fill:url(#XMLID_53_);}
</style>
<g id="XMLID_88_">
	<g id="XMLID_89_">
		<g id="XMLID_108_">
			<g id="XMLID_124_">
				<path id="XMLID_150_" class="st0" d="M88.6,288.7c-1.6-1.5-2.4-3.5-2.5-6.2c0-0.6,0-1.5,0-2.7c0-1.3,0-2.2,0-2.8
					c0.1-2.6,0.9-4.7,2.5-6.2c1.6-1.5,3.8-2.2,6.6-2.2c1.8,0,3.4,0.3,4.8,0.9c1.4,0.6,2.4,1.5,3.2,2.6c0.8,1.1,1.1,2.3,1.2,3.7v0.1
					c0,0.2-0.1,0.3-0.2,0.4s-0.3,0.2-0.4,0.2h-3c-0.2,0-0.4-0.1-0.6-0.2c-0.1-0.1-0.2-0.3-0.3-0.6c-0.3-1.3-0.8-2.2-1.6-2.7
					c-0.8-0.5-1.8-0.8-3-0.8c-2.9,0-4.5,1.6-4.6,4.9c0,0.6,0,1.4,0,2.6c0,1.2,0,2,0,2.6c0.1,3.3,1.7,4.9,4.6,4.9
					c1.2,0,2.2-0.3,3-0.8c0.8-0.5,1.3-1.4,1.6-2.7c0.1-0.3,0.2-0.5,0.3-0.6c0.1-0.1,0.3-0.2,0.6-0.2h3c0.2,0,0.3,0.1,0.5,0.2
					c0.1,0.1,0.2,0.3,0.2,0.5c0,1.4-0.4,2.6-1.2,3.7c-0.8,1.1-1.8,1.9-3.2,2.6c-1.4,0.6-3,0.9-4.8,0.9
					C92.4,290.9,90.2,290.2,88.6,288.7z"/>
				<path id="XMLID_148_" class="st0" d="M113.6,290.4c-0.1-0.1-0.2-0.3-0.2-0.5v-17h-5.7c-0.2,0-0.4-0.1-0.5-0.2
					c-0.1-0.1-0.2-0.3-0.2-0.6v-2.3c0-0.2,0.1-0.4,0.2-0.6c0.1-0.1,0.3-0.2,0.5-0.2h15.8c0.2,0,0.4,0.1,0.6,0.2
					c0.1,0.1,0.2,0.3,0.2,0.6v2.3c0,0.2-0.1,0.4-0.2,0.6c-0.1,0.1-0.3,0.2-0.6,0.2h-5.7v17c0,0.2-0.1,0.4-0.2,0.5
					c-0.1,0.1-0.3,0.2-0.5,0.2h-2.9C113.9,290.6,113.8,290.5,113.6,290.4z"/>
				<path id="XMLID_128_" class="st0" d="M128.2,290.4c-0.1-0.1-0.2-0.3-0.2-0.5v-20.1c0-0.2,0.1-0.4,0.2-0.6
					c0.1-0.1,0.3-0.2,0.5-0.2h8c2.5,0,4.5,0.6,5.9,1.8c1.4,1.2,2.1,2.8,2.1,5c0,1.5-0.4,2.8-1.1,3.8c-0.7,1-1.7,1.8-3,2.2l4.5,7.9
					c0.1,0.1,0.1,0.2,0.1,0.3c0,0.2-0.1,0.3-0.2,0.5c-0.1,0.1-0.3,0.2-0.4,0.2h-2.8c-0.3,0-0.6-0.1-0.8-0.2
					c-0.2-0.2-0.3-0.4-0.5-0.6l-3.9-7.3h-4.2v7.4c0,0.2-0.1,0.4-0.2,0.5c-0.1,0.1-0.3,0.2-0.6,0.2h-2.8
					C128.5,290.6,128.3,290.5,128.2,290.4z M136.6,278.9c1.2,0,2.2-0.3,2.8-0.8c0.6-0.5,0.9-1.3,0.9-2.4c0-1-0.3-1.9-0.9-2.4
					c-0.6-0.6-1.5-0.8-2.8-0.8h-4.3v6.5H136.6z"/>
				<g id="XMLID_125_">
					<path id="XMLID_126_" class="st0" d="M149.6,290.4c-0.1-0.1-0.2-0.3-0.2-0.5v-20.1c0-0.2,0.1-0.4,0.2-0.5
						c0.1-0.1,0.3-0.2,0.5-0.2h2.9c0.2,0,0.4,0.1,0.5,0.2c0.1,0.1,0.2,0.3,0.2,0.5v17.2h9.8c0.2,0,0.4,0.1,0.6,0.2
						c0.1,0.1,0.2,0.3,0.2,0.5v2.2c0,0.2-0.1,0.4-0.2,0.5c-0.1,0.1-0.3,0.2-0.6,0.2h-13.4C149.9,290.6,149.7,290.5,149.6,290.4z"/>
				</g>
			</g>
			<g id="XMLID_112_">
				<path id="XMLID_122_" class="st1" d="M176.7,290.4c-0.1-0.1-0.2-0.3-0.2-0.5v-20.2c0-0.2,0.1-0.4,0.2-0.5
					c0.1-0.1,0.3-0.2,0.5-0.2h0.8c0.3,0,0.5,0.1,0.6,0.4l7,13.6l7-13.6c0.1-0.3,0.4-0.4,0.6-0.4h0.7c0.2,0,0.4,0.1,0.5,0.2
					c0.1,0.1,0.2,0.3,0.2,0.5v20.2c0,0.2-0.1,0.4-0.2,0.5c-0.1,0.1-0.3,0.2-0.5,0.2h-0.6c-0.2,0-0.4-0.1-0.5-0.2
					c-0.1-0.1-0.2-0.3-0.2-0.5v-16.7l-5.9,11.6c-0.2,0.4-0.5,0.6-1,0.6h-0.7c-0.5,0-0.8-0.2-1-0.6l-5.9-11.6v16.7
					c0,0.2-0.1,0.4-0.2,0.5c-0.1,0.1-0.3,0.2-0.5,0.2h-0.6C177,290.6,176.8,290.5,176.7,290.4z"/>
				<path id="XMLID_119_" class="st1" d="M199.2,290.4c-0.1-0.1-0.2-0.3-0.2-0.4l0.1-0.3l7.8-20c0.2-0.4,0.5-0.6,0.9-0.6h1
					c0.4,0,0.7,0.2,0.9,0.6l7.8,20l0.1,0.3c0,0.2-0.1,0.3-0.2,0.4c-0.1,0.1-0.3,0.2-0.4,0.2h-0.6c-0.2,0-0.3-0.1-0.4-0.2
					c-0.1-0.1-0.2-0.2-0.2-0.3l-1.9-4.9h-10.9l-1.9,4.9c0,0.1-0.1,0.2-0.2,0.3c-0.1,0.1-0.3,0.2-0.4,0.2h-0.6
					C199.4,290.6,199.3,290.5,199.2,290.4z M203.5,283.4h9.4l-4.7-12.2L203.5,283.4z"/>
				<path id="XMLID_117_" class="st1" d="M222.9,288.7c-1.4-1.5-2.2-3.5-2.3-6c0-0.6,0-1.6,0-2.9c0-1.3,0-2.3,0-2.9
					c0.1-2.5,0.8-4.5,2.3-6c1.4-1.5,3.4-2.2,6-2.2c1.7,0,3.2,0.3,4.4,1c1.2,0.7,2.1,1.4,2.7,2.3c0.6,0.9,0.9,1.7,0.9,2.4v0.1
					c0,0.2-0.1,0.3-0.2,0.4c-0.1,0.1-0.3,0.2-0.5,0.2h-0.7c-0.2,0-0.3,0-0.4-0.1c-0.1-0.1-0.2-0.2-0.2-0.5c-0.4-1.1-1-2-2-2.7
					c-1-0.7-2.3-1.1-4-1.1c-1.9,0-3.4,0.5-4.5,1.6c-1.1,1-1.7,2.7-1.8,4.9c0,0.6,0,1.5,0,2.8c0,1.2,0,2.2,0,2.8
					c0.1,2.2,0.7,3.9,1.8,4.9c1.1,1,2.6,1.6,4.5,1.6c1.9,0,3.5-0.5,4.6-1.6c1.2-1.1,1.8-2.7,1.8-4.8V281h-5.4
					c-0.2,0-0.4-0.1-0.5-0.2c-0.1-0.1-0.2-0.3-0.2-0.5v-0.4c0-0.2,0.1-0.4,0.2-0.5c0.1-0.1,0.3-0.2,0.5-0.2h6.6
					c0.2,0,0.4,0.1,0.5,0.2c0.1,0.1,0.2,0.3,0.2,0.5v2.7c0,1.6-0.3,3.1-1,4.4c-0.7,1.3-1.6,2.2-2.9,2.9c-1.3,0.7-2.7,1-4.5,1
					C226.3,290.9,224.3,290.2,222.9,288.7z"/>
				<path id="XMLID_115_" class="st1" d="M243.3,290.4c-0.1-0.1-0.2-0.3-0.2-0.5v-20.2c0-0.2,0.1-0.4,0.2-0.5
					c0.1-0.1,0.3-0.2,0.5-0.2h0.6c0.2,0,0.4,0.1,0.5,0.2c0.1,0.1,0.2,0.3,0.2,0.5v20.2c0,0.2-0.1,0.4-0.2,0.5
					c-0.1,0.1-0.3,0.2-0.5,0.2h-0.6C243.6,290.6,243.5,290.5,243.3,290.4z"/>
				<path id="XMLID_113_" class="st1" d="M253.4,288.6c-1.3-1.5-2.1-3.5-2.2-6.1c0-0.6,0-1.5,0-2.7c0-1.3,0-2.2,0-2.8
					c0.1-2.6,0.8-4.6,2.2-6.1c1.3-1.5,3.3-2.3,6-2.3c1.8,0,3.4,0.3,4.6,1c1.2,0.7,2.1,1.5,2.7,2.5c0.6,1,0.9,2.1,1,3.1v0.1
					c0,0.2-0.1,0.3-0.2,0.4c-0.1,0.1-0.3,0.2-0.5,0.2h-0.6c-0.4,0-0.6-0.2-0.7-0.6c-0.4-1.7-1.1-3-2.1-3.7c-1-0.7-2.4-1.1-4.2-1.1
					c-1.9,0-3.4,0.5-4.5,1.6c-1.1,1.1-1.6,2.8-1.7,5c0,0.6,0,1.4,0,2.6c0,1.2,0,2,0,2.6c0.1,2.3,0.7,3.9,1.7,5
					c1.1,1.1,2.6,1.6,4.5,1.6c1.7,0,3.1-0.4,4.2-1.1c1-0.7,1.7-2,2.1-3.7c0.1-0.4,0.3-0.6,0.7-0.6h0.6c0.2,0,0.3,0.1,0.5,0.2
					c0.1,0.1,0.2,0.3,0.2,0.4c-0.1,1.1-0.4,2.1-1,3.1c-0.6,1-1.5,1.9-2.7,2.5c-1.2,0.7-2.7,1-4.6,1
					C256.8,290.9,254.8,290.2,253.4,288.6z"/>
			</g>
		</g>
		<g id="XMLID_96_">
			<path id="XMLID_107_" class="st1" d="M223.6,191.5c0,2.7-2.2,4.9-4.9,4.9c-2.7,0-4.9-2.2-4.9-4.9c0-2.7,2.2-4.9,4.9-4.9
				C221.4,186.5,223.6,188.7,223.6,191.5"/>
			<path id="XMLID_106_" class="st1" d="M47.2,243.7c-0.9,0-1.7-0.3-2.3-1c-0.6-0.6-0.8-1.4-0.8-2.3v-49.3c0-0.9,0.3-1.7,0.8-2.3
				c0.6-0.6,1.4-1,2.3-1H74c1,0,1.8,0.3,2.4,0.9c0.6,0.6,0.9,1.4,0.9,2.4v2.8c0,0.9-0.3,1.7-0.9,2.3c-0.6,0.6-1.4,0.9-2.4,0.9H54.1
				v14.6h12.4c1,0,1.8,0.3,2.4,0.9c0.6,0.6,0.9,1.4,0.9,2.3v2.9c0,0.9-0.3,1.7-1,2.4c-0.6,0.6-1.4,0.9-2.3,0.9H54.1v19.4
				c0,0.9-0.3,1.7-1,2.4c-0.6,0.6-1.4,0.9-2.3,0.9H47.2z"/>
			<path id="XMLID_102_" class="st1" d="M125,244.4c-6,0-10.7-1.7-13.9-5.2c-3.3-3.4-5-7.9-5.2-13.5l-0.1-3.3l0.1-3.3
				c0.2-5.6,2-10.1,5.3-13.5c3.3-3.4,8-5.2,13.9-5.2c5.9,0,10.5,1.7,13.9,5.2c3.3,3.4,5.1,7.9,5.3,13.5c0.1,1.1,0.2,2.2,0.2,3.3
				c0,1.1-0.1,2.2-0.2,3.4c-0.2,5.5-2,10-5.2,13.4C135.7,242.7,131,244.4,125,244.4 M125,209.1c-2.8,0-5,0.8-6.6,2.6
				c-1.6,1.8-2.5,4.4-2.7,7.9l-0.1,2.9l0.1,2.8c0.1,3.4,1,6.1,2.7,7.9c1.6,1.7,3.8,2.6,6.6,2.6c2.8,0,5-0.8,6.6-2.6
				c1.6-1.8,2.5-4.4,2.7-7.9c0.1-0.5,0.1-1.5,0.1-2.8c0-1.8,0-2.5-0.1-2.7c-0.1-3.5-1-6.2-2.7-8C130,210,127.9,209.1,125,209.1"/>
			<path id="XMLID_101_" class="st1" d="M188.9,243.7c-2,0-3.4-1-4-2.9l-7.5-15.4l-7.5,15.4c-0.6,1.9-2,2.9-4,2.9h-2.7
				c-1.1,0-1.9-0.3-2.6-0.8c-0.6-0.5-1-1.2-1.3-2.1l-10.8-35.2l-0.2-0.9c0-1.1,0.3-1.9,0.9-2.5c0.6-0.6,1.3-0.9,2.2-0.9h3.1
				c0.9,0,1.6,0.3,2.2,0.8c0.6,0.5,1,1,1.1,1.6l7.2,24.2l7.6-15c0.1-0.6,0.5-1.2,1.1-1.7c0.6-0.6,1.5-0.9,2.5-0.9h2.4
				c1,0,1.8,0.3,2.5,0.9c0.6,0.5,0.9,1.1,1.1,1.8l7.6,14.9l7.2-24.3c0.1-0.5,0.4-1,1-1.5c0.6-0.5,1.4-0.8,2.2-0.8h3.1
				c0.9,0,1.6,0.3,2.2,0.9c0.6,0.6,0.9,1.3,0.9,2.2l-0.2,1l-10.8,35.4c-0.3,0.9-0.7,1.6-1.3,2.1c-0.6,0.5-1.5,0.8-2.6,0.8H188.9z"/>
			<path id="XMLID_100_" class="st1" d="M217,243.7c-0.9,0-1.7-0.3-2.3-0.9c-0.6-0.6-0.9-1.4-0.9-2.3v-35.5c0-0.9,0.3-1.7,0.9-2.3
				c0.6-0.6,1.4-0.9,2.3-0.9h3.3c0.9,0,1.7,0.3,2.3,0.9c0.6,0.6,0.9,1.4,0.9,2.3v35.5c0,0.9-0.3,1.7-0.9,2.3
				c-0.6,0.6-1.4,0.9-2.3,0.9H217z"/>
			<path id="XMLID_99_" class="st1" d="M252,244.4c-5.8,0-10.4-1.7-13.7-5c-3.3-3.3-5.1-8-5.2-13.9l-0.1-3l0.1-3.1
				c0.2-5.9,1.9-10.6,5.2-13.9c3.3-3.3,7.9-5,13.7-5c3.9,0,7.2,0.7,9.9,2.1c2.7,1.4,4.8,3.2,6.2,5.3c1.4,2.1,2.1,4.3,2.2,6.5
				c0.1,0.8-0.2,1.7-1,2.4c-0.7,0.6-1.4,0.9-2.3,0.9h-3.3c-0.9,0-1.6-0.2-2.1-0.7c-0.4-0.4-0.8-1-1.1-1.8c-0.8-2.2-1.9-3.7-3.2-4.6
				c-1.3-0.9-3.1-1.3-5.2-1.3c-2.8,0-4.9,0.8-6.5,2.5c-1.6,1.7-2.5,4.4-2.6,8.1l-0.1,2.6l0.1,2.6c0.1,3.6,1,6.4,2.6,8
				c1.6,1.7,3.7,2.5,6.5,2.5c2.2,0,3.9-0.4,5.2-1.3c1.3-0.9,2.3-2.4,3.1-4.5c0.4-0.9,0.7-1.5,1.2-1.8c0.5-0.5,1.3-0.7,2.1-0.7h3.3
				c0.8,0,1.6,0.3,2.3,0.9c0.7,0.7,1.1,1.6,1,2.5c-0.1,2.1-0.9,4.2-2.2,6.3c-1.4,2.1-3.5,3.9-6.2,5.4
				C259.3,243.7,255.9,244.4,252,244.4"/>
			<path id="XMLID_98_" class="st1" d="M293.8,244.4c-3.7,0-6.9-0.6-9.5-1.9c-2.6-1.2-4.6-2.7-5.9-4.3c-1.4-1.8-2.1-3.3-2.1-4.6
				c0-1,0.4-1.8,1.1-2.4c0.6-0.5,1.3-0.7,2.1-0.7h3.2c0.6,0,1,0.1,1.5,0.3c0.3,0.2,0.7,0.5,1.1,1c1.1,1.3,2.2,2.3,3.5,3
				c1.2,0.7,2.9,1,5.1,1c2.4,0,4.4-0.4,5.8-1.3c1.2-0.7,1.8-1.7,1.8-3.1c0-0.9-0.2-1.5-0.7-2c-0.5-0.6-1.6-1.2-3-1.7
				c-1.6-0.6-4-1.2-7.1-1.9c-4.7-1-8.1-2.6-10.1-4.6c-2.1-2.1-3.2-4.8-3.2-8.1c0-2.2,0.6-4.2,1.9-6.2c1.3-2,3.1-3.6,5.6-4.8
				c2.4-1.2,5.3-1.8,8.5-1.8c3.4,0,6.4,0.6,8.8,1.7c2.4,1.2,4.3,2.5,5.6,4.1c1.4,1.7,2,3.2,2,4.5c0,0.9-0.3,1.6-1,2.2
				c-0.6,0.6-1.4,0.9-2.2,0.9h-2.9c-1.2,0-2.2-0.5-2.8-1.5c-0.7-0.8-1.4-1.5-1.9-2c-0.4-0.4-1.1-0.7-2-1.1c-1-0.3-2.2-0.5-3.7-0.5
				c-2.1,0-3.7,0.4-4.8,1.2c-1,0.8-1.4,1.7-1.4,3c0,0.7,0.2,1.3,0.5,1.8c0.3,0.4,0.9,0.9,2.6,1.6c1.5,0.6,3.7,1.2,6.7,1.9
				c5.1,1.1,8.7,2.6,10.9,4.7c2.3,2.2,3.5,5,3.5,8.3c0,2.5-0.7,4.8-2.1,6.8c-1.4,2-3.5,3.6-6.2,4.7
				C300.5,243.9,297.3,244.4,293.8,244.4"/>
			<path id="XMLID_97_" class="st1" d="M96.9,243.7h-5c-5,0-9-4-9-9v-43.9c0-1.7,1.4-3,3-3H89c1.7,0,3,1.4,3,3v41.1
				c0,1.4,1.2,2.6,2.6,2.6h2.3c1.7,0,3,1.4,3,3v3.2C99.9,242.3,98.5,243.7,96.9,243.7"/>
		</g>
		<g id="XMLID_90_">
			<g id="XMLID_92_">
				<linearGradient id="XMLID_46_" gradientUnits="userSpaceOnUse" x1="199.2812" y1="108.5407" x2="219.0673" y2="128.3268">
					<stop  offset="0" style="stop-color:#6700A3"/>
					<stop  offset="0.1396" style="stop-color:#6D04A7"/>
					<stop  offset="0.3205" style="stop-color:#7D10B2"/>
					<stop  offset="0.524" style="stop-color:#9825C4"/>
					<stop  offset="0.7443" style="stop-color:#BD41DE"/>
					<stop  offset="0.9755" style="stop-color:#EC64FE"/>
					<stop  offset="0.9796" style="stop-color:#ED65FF"/>
				</linearGradient>
				<path id="XMLID_95_" class="st2" d="M171,63.1c-4.9,0-8.9,4-8.9,9V126c0,4.9,4,9,8.9,9h37.5c4.9,0,8.9-4,8.9-9V72
					c0-4.9-4-9-8.9-9H171z"/>
				<radialGradient id="XMLID_47_" cx="161.6163" cy="75.9171" r="101.3872" gradientUnits="userSpaceOnUse">
					<stop  offset="0.419" style="stop-color:#FF3022"/>
					<stop  offset="0.4593" style="stop-color:#FF4A1D"/>
					<stop  offset="0.5107" style="stop-color:#FF6318"/>
					<stop  offset="0.5638" style="stop-color:#FF7615"/>
					<stop  offset="0.6195" style="stop-color:#FF8013"/>
					<stop  offset="0.6816" style="stop-color:#FF8412"/>
				</radialGradient>
				<path id="XMLID_94_" class="st3" d="M195.1,25.1c-5,0-9.1,4-9.1,9v52.1c0,4.9,4.1,8.9,9.1,8.9h36.7c5,0,9.1-4,9.1-8.9V34
					c0-4.9-4.1-9-9.1-9H195.1z"/>
				<radialGradient id="XMLID_48_" cx="161.6163" cy="75.9171" r="101.3872" gradientUnits="userSpaceOnUse">
					<stop  offset="0.419" style="stop-color:#FF3022"/>
					<stop  offset="0.4593" style="stop-color:#FF4A1D"/>
					<stop  offset="0.5107" style="stop-color:#FF6318"/>
					<stop  offset="0.5638" style="stop-color:#FF7615"/>
					<stop  offset="0.6195" style="stop-color:#FF8013"/>
					<stop  offset="0.6816" style="stop-color:#FF8412"/>
				</radialGradient>
				<path id="XMLID_93_" class="st4" d="M130.5,102.1c-5,0-9.1,4-9.1,9v52.1c0,4.9,4.1,9,9.1,9h36.7c5,0,9.1-4,9.1-9v-52.1
					c0-4.9-4.1-9-9.1-9H130.5z"/>
			</g>
			<linearGradient id="XMLID_49_" gradientUnits="userSpaceOnUse" x1="198.251" y1="108.798" x2="134.6676" y2="45.2146">
				<stop  offset="0" style="stop-color:#FF900B"/>
				<stop  offset="1" style="stop-color:#FFD100"/>
			</linearGradient>
			<path id="XMLID_91_" class="st5" d="M135,47.4V107c0,4.8,3.9,8.7,8.7,8.7h47.9c3.7,0,6.6-3,6.6-6.6V47.4c0-4.8-3.9-8.7-8.7-8.7
				h-45.8C138.9,38.7,135,42.6,135,47.4z"/>
		</g>
	</g>
</g>
</svg>
