<?xml version="1.0" encoding="UTF-8"?> <!-- Generator: Adobe Illustrator 19.0.0, SVG Export Plug-In . SVG Version: 6.00 Build 0) --> <svg xmlns="http://www.w3.org/2000/svg" xmlns:xlink="http://www.w3.org/1999/xlink" version="1.1" id="Layer_1" x="0px" y="0px" width="149.2px" height="41.8px" viewBox="-393 260.2 149.2 41.8" style="enable-background:new -393 260.2 149.2 41.8;" xml:space="preserve"> <style type="text/css"> .st0{fill:#FF8000;} .st1{fill:#FFE7E6;} .st2{fill:url(#XMLID_18_);} .st3{fill:url(#XMLID_19_);} .st4{fill:url(#XMLID_20_);} .st5{fill:url(#XMLID_21_);} </style> <title>icon-flowics</title> <desc>Created with Sketch.</desc> <g id="XMLID_1_"> <g id="XMLID_90_"> <g id="XMLID_117_"> <path id="XMLID_126_" class="st0" d="M-347.8,301c-0.6-0.5-0.9-1.3-0.9-2.3c0-0.2,0-0.6,0-1c0-0.5,0-0.8,0-1.1 c0-1,0.4-1.8,0.9-2.3c0.6-0.6,1.4-0.8,2.5-0.8c0.7,0,1.3,0.1,1.8,0.4c0.5,0.2,0.9,0.6,1.2,1c0.3,0.4,0.4,0.9,0.5,1.4v0 c0,0.1,0,0.1-0.1,0.2c-0.1,0-0.1,0.1-0.2,0.1h-1.1c-0.1,0-0.2,0-0.2-0.1c0,0-0.1-0.1-0.1-0.2c-0.1-0.5-0.3-0.8-0.6-1 c-0.3-0.2-0.7-0.3-1.1-0.3c-1.1,0-1.7,0.6-1.7,1.9c0,0.2,0,0.5,0,1c0,0.4,0,0.8,0,1c0,1.2,0.6,1.9,1.7,1.9c0.5,0,0.8-0.1,1.1-0.3 c0.3-0.2,0.5-0.5,0.6-1c0-0.1,0.1-0.2,0.1-0.2c0,0,0.1-0.1,0.2-0.1h1.1c0.1,0,0.1,0,0.2,0.1c0.1,0,0.1,0.1,0.1,0.2 c0,0.5-0.2,1-0.5,1.4c-0.3,0.4-0.7,0.7-1.2,1c-0.5,0.2-1.1,0.4-1.8,0.4C-346.4,301.8-347.2,301.5-347.8,301z"></path> <path id="XMLID_124_" class="st0" d="M-338.3,301.6c-0.1-0.1-0.1-0.1-0.1-0.2V295h-2.2c-0.1,0-0.1,0-0.2-0.1 c-0.1-0.1-0.1-0.1-0.1-0.2v-0.9c0-0.1,0-0.2,0.1-0.2c0.1-0.1,0.1-0.1,0.2-0.1h6c0.1,0,0.2,0,0.2,0.1c0.1,0.1,0.1,0.1,0.1,0.2v0.9 c0,0.1,0,0.2-0.1,0.2c-0.1,0.1-0.1,0.1-0.2,0.1h-2.2v6.4c0,0.1,0,0.1-0.1,0.2c-0.1,0.1-0.1,0.1-0.2,0.1h-1.1 C-338.2,301.7-338.3,301.7-338.3,301.6z"></path> <path id="XMLID_121_" class="st0" d="M-332.8,301.6c-0.1-0.1-0.1-0.1-0.1-0.2v-7.6c0-0.1,0-0.2,0.1-0.2c0.1-0.1,0.1-0.1,0.2-0.1 h3c1,0,1.7,0.2,2.3,0.7c0.5,0.4,0.8,1.1,0.8,1.9c0,0.6-0.1,1-0.4,1.4s-0.7,0.7-1.1,0.8l1.7,3c0,0,0,0.1,0,0.1 c0,0.1,0,0.1-0.1,0.2c-0.1,0-0.1,0.1-0.2,0.1h-1.1c-0.1,0-0.2,0-0.3-0.1c-0.1-0.1-0.1-0.1-0.2-0.2l-1.5-2.8h-1.6v2.8 c0,0.1,0,0.1-0.1,0.2c-0.1,0.1-0.1,0.1-0.2,0.1h-1.1C-332.7,301.7-332.8,301.7-332.8,301.6z M-329.6,297.3c0.5,0,0.8-0.1,1.1-0.3 c0.2-0.2,0.4-0.5,0.4-0.9c0-0.4-0.1-0.7-0.4-0.9c-0.2-0.2-0.6-0.3-1.1-0.3h-1.6v2.5H-329.6z"></path> <g id="XMLID_118_"> <path id="XMLID_119_" class="st0" d="M-324.7,301.6c-0.1-0.1-0.1-0.1-0.1-0.2v-7.6c0-0.1,0-0.2,0.1-0.2c0.1-0.1,0.1-0.1,0.2-0.1 h1.1c0.1,0,0.2,0,0.2,0.1c0.1,0.1,0.1,0.1,0.1,0.2v6.5h3.7c0.1,0,0.2,0,0.2,0.1c0.1,0.1,0.1,0.1,0.1,0.2v0.8 c0,0.1,0,0.1-0.1,0.2c-0.1,0.1-0.1,0.1-0.2,0.1h-5.1C-324.6,301.7-324.6,301.7-324.7,301.6z"></path> </g> </g> <g id="XMLID_91_"> <path id="XMLID_115_" class="st1" d="M-314.4,301.6c-0.1,0-0.1-0.1-0.1-0.2v-7.7c0-0.1,0-0.2,0.1-0.2c0.1,0,0.1-0.1,0.2-0.1h0.3 c0.1,0,0.2,0.1,0.2,0.2l2.7,5.2l2.7-5.2c0.1-0.1,0.1-0.2,0.2-0.2h0.3c0.1,0,0.2,0,0.2,0.1c0,0,0.1,0.1,0.1,0.2v7.7 c0,0.1,0,0.1-0.1,0.2c-0.1,0-0.1,0.1-0.2,0.1h-0.2c-0.1,0-0.1,0-0.2-0.1c0,0-0.1-0.1-0.1-0.2v-6.3l-2.2,4.4 c-0.1,0.2-0.2,0.2-0.4,0.2h-0.3c-0.2,0-0.3-0.1-0.4-0.2l-2.2-4.4v6.3c0,0.1,0,0.1-0.1,0.2c0,0-0.1,0.1-0.2,0.1h-0.2 C-314.3,301.7-314.4,301.7-314.4,301.6z"></path> <path id="XMLID_112_" class="st1" d="M-305.9,301.6c0,0-0.1-0.1-0.1-0.2l0-0.1l3-7.6c0.1-0.2,0.2-0.2,0.3-0.2h0.4 c0.2,0,0.3,0.1,0.3,0.2l3,7.6l0,0.1c0,0.1,0,0.1-0.1,0.2c0,0-0.1,0.1-0.2,0.1h-0.2c-0.1,0-0.1,0-0.2-0.1c0,0-0.1-0.1-0.1-0.1 l-0.7-1.9h-4.1l-0.7,1.9c0,0,0,0.1-0.1,0.1c0,0-0.1,0.1-0.2,0.1h-0.2C-305.8,301.7-305.9,301.7-305.9,301.6z M-304.2,299h3.6 l-1.8-4.6L-304.2,299z"></path> <path id="XMLID_96_" class="st1" d="M-296.9,301c-0.5-0.6-0.8-1.3-0.9-2.3c0-0.2,0-0.6,0-1.1c0-0.5,0-0.9,0-1.1 c0-0.9,0.3-1.7,0.9-2.3c0.5-0.6,1.3-0.8,2.3-0.8c0.7,0,1.2,0.1,1.7,0.4c0.5,0.2,0.8,0.5,1,0.9c0.2,0.3,0.3,0.6,0.4,0.9v0 c0,0.1,0,0.1-0.1,0.2c0,0-0.1,0.1-0.2,0.1h-0.3c-0.1,0-0.1,0-0.2,0c0,0-0.1-0.1-0.1-0.2c-0.1-0.4-0.4-0.8-0.8-1 c-0.4-0.3-0.9-0.4-1.5-0.4c-0.7,0-1.3,0.2-1.7,0.6c-0.4,0.4-0.6,1-0.7,1.9c0,0.2,0,0.6,0,1.1c0,0.5,0,0.8,0,1.1 c0,0.8,0.3,1.5,0.7,1.9c0.4,0.4,1,0.6,1.7,0.6c0.7,0,1.3-0.2,1.8-0.6c0.4-0.4,0.7-1,0.7-1.8v-0.6h-2c-0.1,0-0.1,0-0.2-0.1 c0-0.1-0.1-0.1-0.1-0.2v-0.2c0-0.1,0-0.1,0.1-0.2c0-0.1,0.1-0.1,0.2-0.1h2.5c0.1,0,0.2,0,0.2,0.1c0,0,0.1,0.1,0.1,0.2v1 c0,0.6-0.1,1.2-0.4,1.6c-0.2,0.5-0.6,0.8-1.1,1.1c-0.5,0.3-1,0.4-1.7,0.4C-295.6,301.8-296.4,301.5-296.9,301z"></path> <path id="XMLID_94_" class="st1" d="M-289.2,301.6c0,0-0.1-0.1-0.1-0.2v-7.7c0-0.1,0-0.1,0.1-0.2c0,0,0.1-0.1,0.2-0.1h0.2 c0.1,0,0.1,0,0.2,0.1c0,0,0.1,0.1,0.1,0.2v7.7c0,0.1,0,0.1-0.1,0.2c0,0-0.1,0.1-0.2,0.1h-0.2 C-289.1,301.7-289.1,301.7-289.2,301.6z"></path> <path id="XMLID_92_" class="st1" d="M-285.3,301c-0.5-0.6-0.8-1.3-0.8-2.3c0-0.2,0-0.6,0-1c0-0.5,0-0.8,0-1.1 c0-1,0.3-1.7,0.8-2.3c0.5-0.6,1.3-0.9,2.3-0.9c0.7,0,1.3,0.1,1.7,0.4c0.5,0.3,0.8,0.6,1,1c0.2,0.4,0.3,0.8,0.4,1.2v0 c0,0.1,0,0.1-0.1,0.2c0,0-0.1,0.1-0.2,0.1h-0.2c-0.1,0-0.2-0.1-0.3-0.2c-0.1-0.7-0.4-1.1-0.8-1.4c-0.4-0.3-0.9-0.4-1.6-0.4 c-0.7,0-1.3,0.2-1.7,0.6c-0.4,0.4-0.6,1-0.7,1.9c0,0.2,0,0.5,0,1c0,0.4,0,0.8,0,1c0,0.9,0.2,1.5,0.7,1.9c0.4,0.4,1,0.6,1.7,0.6 c0.7,0,1.2-0.1,1.6-0.4c0.4-0.3,0.7-0.7,0.8-1.4c0-0.2,0.1-0.2,0.3-0.2h0.2c0.1,0,0.1,0,0.2,0.1c0.1,0,0.1,0.1,0.1,0.2 c0,0.4-0.1,0.8-0.4,1.2c-0.2,0.4-0.6,0.7-1,1c-0.5,0.3-1,0.4-1.7,0.4C-284.1,301.8-284.8,301.5-285.3,301z"></path> </g> </g> <g id="XMLID_8_"> <path id="XMLID_16_" class="st1" d="M-278.3,265.4c0,1.1-0.9,1.9-1.9,1.9c-1.1,0-1.9-0.9-1.9-1.9c0-1.1,0.9-1.9,1.9-1.9 C-279.1,263.5-278.3,264.3-278.3,265.4"></path> <path id="XMLID_15_" class="st1" d="M-347.4,285.9c-0.4,0-0.7-0.1-0.9-0.4c-0.2-0.2-0.3-0.5-0.3-0.9v-19.3c0-0.4,0.1-0.7,0.3-0.9 c0.2-0.3,0.5-0.4,0.9-0.4h10.5c0.4,0,0.7,0.1,0.9,0.4c0.2,0.2,0.4,0.6,0.4,0.9v1.1c0,0.4-0.1,0.7-0.4,0.9 c-0.2,0.2-0.6,0.4-0.9,0.4h-7.8v5.7h4.8c0.4,0,0.7,0.1,0.9,0.4c0.2,0.2,0.4,0.6,0.4,0.9v1.1c0,0.4-0.1,0.7-0.4,0.9 c-0.2,0.2-0.6,0.3-0.9,0.3h-4.8v7.6c0,0.4-0.1,0.7-0.4,0.9c-0.2,0.2-0.6,0.3-0.9,0.3H-347.4z"></path> <path id="XMLID_14_" class="st1" d="M-316.9,286.2c-2.3,0-4.2-0.7-5.5-2c-1.3-1.3-2-3.1-2.1-5.3l0-1.3l0-1.3 c0.1-2.2,0.8-4,2.1-5.3c1.3-1.3,3.1-2,5.4-2c2.3,0,4.1,0.7,5.4,2c1.3,1.3,2,3.1,2.1,5.3c0,0.4,0.1,0.9,0.1,1.3 c0,0.4,0,0.9-0.1,1.3c-0.1,2.2-0.8,3.9-2,5.3C-312.7,285.5-314.6,286.2-316.9,286.2 M-316.9,272.3c-1.1,0-2,0.3-2.6,1 c-0.6,0.7-1,1.7-1,3.1l0,1.1l0,1.1c0.1,1.3,0.4,2.4,1,3.1c0.6,0.7,1.5,1,2.6,1c1.1,0,2-0.3,2.6-1c0.6-0.7,1-1.7,1-3.1 c0-0.2,0-0.6,0-1.1c0-0.7,0-1,0-1.1c-0.1-1.4-0.4-2.4-1.1-3.1C-314.9,272.7-315.8,272.3-316.9,272.3"></path> <path id="XMLID_13_" class="st1" d="M-291.9,285.9c-0.8,0-1.3-0.4-1.6-1.2l-2.9-6l-2.9,6c-0.2,0.7-0.8,1.1-1.6,1.1h-1.1 c-0.4,0-0.8-0.1-1-0.3c-0.2-0.2-0.4-0.5-0.5-0.8l-4.2-13.8l-0.1-0.4c0-0.4,0.1-0.7,0.3-1c0.2-0.2,0.5-0.3,0.9-0.3h1.2 c0.3,0,0.6,0.1,0.9,0.3c0.2,0.2,0.4,0.4,0.4,0.6l2.8,9.5l3-5.9c0.1-0.2,0.2-0.5,0.4-0.7c0.2-0.2,0.6-0.4,1-0.4h1 c0.4,0,0.7,0.1,1,0.3c0.2,0.2,0.4,0.4,0.4,0.7l3,5.9l2.8-9.5c0-0.2,0.2-0.4,0.4-0.6c0.2-0.2,0.5-0.3,0.9-0.3h1.2 c0.3,0,0.6,0.1,0.9,0.3c0.2,0.2,0.4,0.5,0.4,0.9l-0.1,0.4l-4.2,13.9c-0.1,0.4-0.3,0.6-0.5,0.8c-0.2,0.2-0.6,0.3-1,0.3H-291.9z"></path> <path id="XMLID_12_" class="st1" d="M-280.9,285.9c-0.4,0-0.7-0.1-0.9-0.4c-0.2-0.2-0.4-0.5-0.4-0.9v-13.9c0-0.4,0.1-0.7,0.4-0.9 c0.2-0.2,0.6-0.4,0.9-0.4h1.3c0.4,0,0.7,0.1,0.9,0.4c0.2,0.2,0.4,0.6,0.4,0.9v13.9c0,0.4-0.1,0.7-0.4,0.9 c-0.2,0.2-0.6,0.4-0.9,0.4H-280.9z"></path> <path id="XMLID_11_" class="st1" d="M-267.1,286.2c-2.3,0-4.1-0.7-5.4-2c-1.3-1.3-2-3.1-2-5.4l0-1.2l0-1.2c0.1-2.3,0.8-4.1,2-5.4 c1.3-1.3,3.1-2,5.4-2c1.5,0,2.8,0.3,3.9,0.8c1.1,0.6,1.9,1.3,2.4,2.1c0.5,0.8,0.8,1.7,0.9,2.5c0,0.3-0.1,0.7-0.4,0.9 c-0.3,0.2-0.6,0.4-0.9,0.4h-1.3c-0.3,0-0.6-0.1-0.8-0.3c-0.2-0.1-0.3-0.4-0.4-0.7c-0.3-0.9-0.7-1.5-1.2-1.8 c-0.5-0.3-1.2-0.5-2-0.5c-1.1,0-1.9,0.3-2.5,1c-0.6,0.7-1,1.7-1,3.2l0,1l0,1c0.1,1.4,0.4,2.5,1,3.2c0.6,0.7,1.5,1,2.5,1 c0.8,0,1.5-0.2,2.1-0.5c0.5-0.3,0.9-0.9,1.2-1.8c0.1-0.3,0.3-0.6,0.5-0.7c0.2-0.2,0.5-0.3,0.8-0.3h1.3c0.3,0,0.6,0.1,0.9,0.4 c0.3,0.3,0.4,0.6,0.4,1c0,0.8-0.3,1.6-0.9,2.5c-0.5,0.8-1.4,1.5-2.4,2.1C-264.3,285.9-265.6,286.2-267.1,286.2"></path> <path id="XMLID_10_" class="st1" d="M-250.8,286.2c-1.4,0-2.7-0.2-3.7-0.7c-1-0.5-1.8-1.1-2.3-1.7c-0.5-0.7-0.8-1.3-0.8-1.8 c0-0.4,0.2-0.7,0.4-0.9c0.2-0.2,0.5-0.3,0.8-0.3h1.2c0.2,0,0.4,0,0.6,0.1c0.1,0.1,0.3,0.2,0.4,0.4c0.4,0.5,0.9,0.9,1.4,1.2 c0.5,0.3,1.1,0.4,2,0.4c1,0,1.7-0.2,2.3-0.5c0.5-0.3,0.7-0.7,0.7-1.2c0-0.3-0.1-0.6-0.3-0.8c-0.2-0.2-0.6-0.5-1.2-0.7 c-0.6-0.2-1.6-0.5-2.8-0.8c-1.8-0.4-3.2-1-3.9-1.8c-0.8-0.8-1.2-1.9-1.2-3.2c0-0.8,0.3-1.7,0.7-2.4c0.5-0.8,1.2-1.4,2.2-1.9 c0.9-0.5,2.1-0.7,3.3-0.7c1.3,0,2.5,0.2,3.4,0.7c1,0.5,1.7,1,2.2,1.6c0.5,0.7,0.8,1.2,0.8,1.8c0,0.3-0.1,0.6-0.4,0.9 c-0.2,0.2-0.5,0.3-0.9,0.3h-1.1c-0.5,0-0.9-0.2-1.1-0.6c-0.3-0.3-0.5-0.6-0.8-0.8c-0.2-0.2-0.4-0.3-0.8-0.4 c-0.4-0.1-0.9-0.2-1.4-0.2c-0.8,0-1.5,0.2-1.9,0.5c-0.4,0.3-0.5,0.7-0.5,1.2c0,0.3,0.1,0.5,0.2,0.7c0.1,0.1,0.4,0.4,1,0.6 c0.6,0.2,1.5,0.5,2.6,0.7c2,0.4,3.4,1,4.3,1.8c0.9,0.8,1.4,1.9,1.4,3.3c0,1-0.3,1.9-0.8,2.7c-0.6,0.8-1.4,1.4-2.4,1.8 C-248.2,285.9-249.4,286.2-250.8,286.2"></path> <path id="XMLID_9_" class="st1" d="M-327.9,285.9h-2c-1.9,0-3.5-1.6-3.5-3.5v-17.2c0-0.7,0.5-1.2,1.2-1.2h1.2 c0.7,0,1.2,0.5,1.2,1.2v16.1c0,0.6,0.5,1,1,1h0.9c0.7,0,1.2,0.5,1.2,1.2v1.2C-326.8,285.3-327.3,285.9-327.9,285.9"></path> </g> <g id="XMLID_2_"> <g id="XMLID_4_"> <linearGradient id="XMLID_18_" gradientUnits="userSpaceOnUse" x1="-370.898" y1="283.9339" x2="-365.2776" y2="289.5544"> <stop offset="0" style="stop-color:#6700A3"></stop> <stop offset="0.1396" style="stop-color:#6D04A7"></stop> <stop offset="0.3205" style="stop-color:#7D10B2"></stop> <stop offset="0.524" style="stop-color:#9825C4"></stop> <stop offset="0.7443" style="stop-color:#BD41DE"></stop> <stop offset="0.9755" style="stop-color:#EC64FE"></stop> <stop offset="0.9796" style="stop-color:#ED65FF"></stop> </linearGradient> <path id="XMLID_7_" class="st2" d="M-378.9,271c-1.4,0-2.5,1.1-2.5,2.5v15.3c0,1.4,1.1,2.5,2.5,2.5h10.7c1.4,0,2.5-1.1,2.5-2.5 v-15.3c0-1.4-1.1-2.5-2.5-2.5H-378.9z"></path> <radialGradient id="XMLID_19_" cx="-381.5972" cy="274.6667" r="28.8003" gradientUnits="userSpaceOnUse"> <stop offset="0.419" style="stop-color:#FF3022"></stop> <stop offset="0.4593" style="stop-color:#FF4A1D"></stop> <stop offset="0.5107" style="stop-color:#FF6318"></stop> <stop offset="0.5638" style="stop-color:#FF7615"></stop> <stop offset="0.6195" style="stop-color:#FF8013"></stop> <stop offset="0.6816" style="stop-color:#FF8412"></stop> </radialGradient> <path id="XMLID_6_" class="st3" d="M-372.1,260.2c-1.4,0-2.6,1.1-2.6,2.5v14.8c0,1.4,1.2,2.5,2.6,2.5h10.4c1.4,0,2.6-1.1,2.6-2.5 v-14.8c0-1.4-1.2-2.5-2.6-2.5H-372.1z"></path> <radialGradient id="XMLID_20_" cx="-381.5972" cy="274.6667" r="28.8003" gradientUnits="userSpaceOnUse"> <stop offset="0.419" style="stop-color:#FF3022"></stop> <stop offset="0.4593" style="stop-color:#FF4A1D"></stop> <stop offset="0.5107" style="stop-color:#FF6318"></stop> <stop offset="0.5638" style="stop-color:#FF7615"></stop> <stop offset="0.6195" style="stop-color:#FF8013"></stop> <stop offset="0.6816" style="stop-color:#FF8412"></stop> </radialGradient> <path id="XMLID_5_" class="st4" d="M-390.4,282.1c-1.4,0-2.6,1.1-2.6,2.5v14.8c0,1.4,1.2,2.5,2.6,2.5h10.4c1.4,0,2.6-1.1,2.6-2.5 v-14.8c0-1.4-1.2-2.5-2.6-2.5H-390.4z"></path> </g> <linearGradient id="XMLID_21_" gradientUnits="userSpaceOnUse" x1="-371.1907" y1="284.007" x2="-389.2523" y2="265.9453"> <stop offset="0" style="stop-color:#FF900B"></stop> <stop offset="1" style="stop-color:#FFD100"></stop> </linearGradient> <path id="XMLID_3_" class="st5" d="M-389.1,266.6v16.9c0,1.4,1.1,2.5,2.5,2.5h13.6c1,0,1.9-0.8,1.9-1.9v-17.5 c0-1.4-1.1-2.5-2.5-2.5h-13C-388,264.1-389.1,265.2-389.1,266.6z"></path> </g> </g> </svg> 