<?xml version="1.0" encoding="UTF-8"?>
<svg width="158px" height="113px" viewBox="0 0 158 113" version="1.1" xmlns="http://www.w3.org/2000/svg" xmlns:xlink="http://www.w3.org/1999/xlink">
    <title>nest-logo</title>
    <g id="Page-1" stroke="none" stroke-width="1" fill="none" fill-rule="evenodd">
        <path d="M88.1449477,0.409407666 C94.6,0.409407666 98.4292683,4.45749129 101.492683,7.73972125 C102.805575,9.27142857 104.884321,12.2254355 107.72892,14.9606272 C110.245296,17.3675958 119.326132,22.6191638 129.610453,37.9362369 C148.97561,66.710453 157.4,87.7167247 157.4,92.0930314 C157.4,93.187108 156.962369,93.515331 156.305923,93.515331 C154.11777,93.515331 149.085017,90.233101 145.583972,87.6073171 L145.583972,87.6073171 L145.474564,87.7167247 C146.568641,90.4519164 149.960279,99.9703833 150.944948,102.814983 C151.273171,103.690244 151.491986,104.34669 151.491986,105.221951 C151.491986,106.097213 151.273171,106.644251 150.83554,107.081882 C150.288502,107.519512 149.850871,107.738328 148.866202,107.738328 L148.866202,107.738328 L144.818118,107.738328 C143.177003,107.738328 142.520557,108.066551 141.535889,109.05122 C140.113589,110.364111 139.894774,110.582927 138.691289,111.786411 C138.034843,112.442857 137.26899,112.77108 136.503136,112.77108 C134.862021,112.77108 134.096167,111.677003 133.658537,109.707666 C131.470383,98.110453 129.501045,85.4191638 128.954007,81.9181185 C128.954007,81.6993031 128.844599,81.3710801 128.844599,81.1522648 C128.844599,80.8240418 128.954007,80.6052265 129.391638,80.6052265 C129.829268,80.6052265 129.938676,81.0428571 130.157491,81.8087108 C130.923345,85.2003484 134.205575,97.3445993 136.284321,107.191289 C136.393728,107.957143 136.831359,108.285366 137.26899,108.285366 C137.597213,108.285366 137.816028,108.175958 138.253659,107.738328 L138.253659,107.738328 L140.113589,105.878397 C140.55122,105.440767 140.660627,105.221951 140.660627,104.674913 C140.660627,104.127875 140.441812,103.362021 140.222997,102.596167 C139.894774,100.955052 139.019512,96.2505226 138.144251,92.202439 C138.034843,91.4365854 137.925436,91.21777 137.925436,90.9989547 C137.925436,90.7801394 138.144251,90.561324 138.363066,90.561324 C138.581882,90.561324 138.800697,90.6707317 138.910105,90.9989547 C139.566551,92.858885 142.629965,101.830314 143.177003,103.471429 C143.395819,103.909059 143.614634,104.237282 143.833449,104.456098 C144.052265,104.674913 144.380488,104.784321 145.146341,104.784321 L145.146341,104.784321 L147.034937,104.78402 C147.38312,104.781619 147.577623,104.760008 147.772125,104.565505 C147.881533,104.456098 147.990941,104.237282 147.990941,103.909059 C147.990941,103.471429 147.772125,103.033798 147.662718,102.596167 L147.662718,102.596167 L141.754704,85.5285714 C133.98676,79.9487805 124.687108,72.2902439 116.481533,63.3188153 C108.275958,54.3473868 100.508014,43.5160279 97.6634146,31.4811847 C97.3351916,30.1682927 97.225784,29.5118467 97.225784,29.1836237 C97.225784,28.9648084 97.3351916,28.745993 97.6634146,28.745993 C97.9916376,28.745993 98.1010453,28.8554007 98.210453,29.1836237 C98.538676,29.9494774 98.7574913,30.6059233 99.195122,31.371777 C104.44669,42.9689895 110.573519,52.1592334 117.466202,60.0365854 C127.312892,71.0867596 139.457143,80.0581882 153.461324,89.5766551 L153.461324,89.5766551 L153.570732,89.4672474 C148.647387,76.0101045 139.894774,58.7236934 126.547038,39.2491289 C122.827178,33.7787456 119.326132,29.730662 116.262718,26.5578397 C111.01115,21.0874564 107.510105,19.2275261 105.759582,17.5864111 C103.133798,15.1794425 100.945645,11.8972125 99.5233449,10.3655052 C96.4599303,6.9738676 93.3965157,3.69163763 88.2543554,3.69163763 C84.0968641,3.69163763 80.9240418,5.98919861 79.5017422,9.59965157 C79.0641115,10.8031359 78.9547038,11.5689895 78.5170732,12.2254355 C78.0794425,12.9912892 77.3135889,14.3041812 76.4383275,15.7264808 L76.4383275,15.7264808 L80.2675958,15.7264808 L78.0794425,19.5557491 C78.9547038,19.3369338 80.8146341,18.8993031 82.8933798,18.8993031 C85.4097561,18.8993031 88.1449477,19.5557491 89.4578397,22.0721254 C91.4271777,25.9013937 91.0989547,34.5445993 93.287108,40.6714286 C95.584669,47.0170732 99.8515679,52.8156794 104.993728,57.9578397 C105.103136,58.1766551 105.212544,58.1766551 105.212544,58.3954704 C105.212544,58.6142857 104.993728,58.833101 104.665505,58.833101 C104.665505,58.833101 104.556098,58.833101 104.44669,58.7236934 C98.210453,54.0191638 92.630662,48.0017422 90.4425087,41.8749129 C87.9261324,35.310453 87.9261324,26.5578397 86.5038328,23.7132404 C85.7379791,22.1815331 83.8780488,21.6344948 81.4710801,21.6344948 C78.7358885,21.6344948 76.5477352,22.0721254 73.7031359,22.7285714 L73.7031359,22.7285714 L76.2195122,18.0240418 L71.0773519,18.0240418 C72.2808362,16.1641115 74.9066202,11.4595819 75.5630662,10.4749129 C75.8912892,10.0372822 76.1101045,8.83379791 76.5477352,7.84912892 C77.8606272,4.45749129 81.9087108,0.409407666 88.1449477,0.409407666 Z M114.183972,69.1174216 C114.949826,69.6644599 115.825087,70.2114983 116.919164,70.8679443 C113.199303,79.2923345 106.634843,86.6226481 98.9763066,90.889547 C95.4752613,92.858885 92.302439,94.2811847 85.6285714,94.2811847 L85.6285714,94.2811847 L72.6090592,94.2811847 C68.1233449,94.2811847 66.0445993,94.7188153 63.9658537,95.2658537 C61.230662,96.0317073 59.3707317,96.6881533 56.4167247,96.6881533 C51.1651568,96.6881533 46.7888502,93.9529617 45.0383275,91.9836237 L45.0383275,91.9836237 L32.784669,101.502091 C29.0648084,104.456098 25.6731707,105.003136 21.9533101,105.003136 L21.9533101,105.003136 L21.2968641,105.003136 L21.2968641,104.018467 C21.2968641,103.362021 21.5156794,102.814983 21.8439024,102.48676 C22.1721254,102.267944 22.5003484,102.049129 23.3756098,102.049129 C25.3449477,102.049129 27.6425087,101.502091 29.502439,100.408014 C31.3623693,99.3139373 32.5658537,98.0010453 32.5658537,94.5 C32.5658537,90.0142857 31.143554,88.4825784 25.2355401,86.5132404 L25.2355401,86.5132404 L28.0801394,84.7627178 C32.3470383,86.5132404 35.1916376,87.9355401 35.1916376,94.0623693 C35.1916376,94.6094077 35.1916376,95.0470383 35.08223,95.5940767 L35.08223,95.5940767 L35.1916376,95.7034843 C37.4891986,93.9529617 48.3205575,85.9662021 49.1958188,85.3097561 L49.1958188,85.3097561 L50.7275261,87.2790941 L47.6641115,89.6860627 C49.3052265,91.4365854 52.6968641,93.187108 56.3073171,93.187108 C58.8236934,93.187108 60.3554007,92.530662 62.7623693,91.874216 C65.169338,91.21777 68.0139373,90.6707317 72.6090592,90.6707317 L72.6090592,90.6707317 L85.5191638,90.6707317 C91.5365854,90.6707317 94.271777,89.5766551 97.3351916,87.8261324 C103.790244,84.2156794 110.026481,77.8700348 114.183972,69.1174216 Z M26.8766551,42.9689895 L25.6731707,45.4853659 C24.4696864,45.4853659 13.0912892,46.6888502 13.0912892,49.8616725 C13.0912892,52.5968641 20.2027875,55.3320557 23.0473868,55.3320557 C24.2508711,55.3320557 25.3449477,54.8944251 26.5484321,54.3473868 C27.7519164,53.9097561 28.845993,53.4721254 30.487108,53.4721254 C33.8787456,53.4721254 40.6620209,56.0979094 44.9289199,58.504878 L44.9289199,58.504878 L44.3818815,59.3801394 C44.0536585,60.0365854 43.6160279,60.2554007 42.9595819,60.2554007 C42.7407666,60.2554007 42.5219512,60.2554007 42.3031359,60.145993 C38.4738676,58.6142857 33.9881533,56.8637631 30.487108,56.8637631 C28.9554007,56.8637631 27.861324,57.3013937 26.7672474,57.7390244 C25.6731707,58.1766551 24.3602787,58.7236934 22.9379791,58.7236934 C20.2027875,58.7236934 15.1700348,56.6449477 12.9818815,54.6756098 C12.7630662,55.2226481 12.5442509,55.7696864 12.5442509,56.4261324 C12.5442509,59.5989547 18.4522648,64.5222997 24.0320557,65.9445993 L24.0320557,65.9445993 L24.5790941,68.5703833 C20.7498258,68.1327526 17.4675958,66.9292683 14.9512195,64.9599303 C14.6229965,65.5069686 14.5135889,66.054007 14.5135889,66.4916376 C14.5135889,67.5857143 15.0606272,68.5703833 15.3888502,69.0080139 C15.9358885,69.9926829 18.9993031,73.3843206 19.4369338,73.9313589 C20.7498258,75.3536585 21.6250871,75.5724739 22.6097561,75.5724739 C23.4850174,75.5724739 24.1414634,75.3536585 24.9073171,75.1348432 C25.5637631,75.0254355 26.3296167,74.8066202 27.204878,74.8066202 C29.174216,74.8066202 31.6905923,75.7912892 34.5351916,77.4324042 C37.3797909,79.0735192 40.1149826,81.1522648 42.1937282,83.5592334 L42.1937282,83.5592334 L39.7867596,85.3097561 C37.9268293,83.3404181 35.5198606,81.4804878 33.3317073,80.1675958 C30.5965157,78.5264808 28.51777,77.7606272 26.6578397,77.7606272 C25.0167247,77.7606272 23.5944251,78.4170732 21.9533101,79.0735192 C16.4829268,81.3710801 9.04320557,84.3250871 7.62090592,84.9815331 C3.9010453,86.6226481 3.79163763,88.7013937 3.79163763,90.9989547 L3.79163763,93.7341463 C3.79163763,94.9376307 3.5728223,96.141115 1.49407666,96.141115 L1.49407666,96.141115 L0.509407666,96.141115 C0.4,94.6094077 0.4,92.7494774 0.4,91.1083624 C0.4,86.9508711 1.71289199,84.3250871 6.85505226,82.1369338 C8.38675958,81.4804878 14.7324042,78.7452962 18.2334495,77.4324042 L18.2334495,77.4324042 L17.3581882,76.5571429 C13.2006969,72.1808362 11.1219512,69.8832753 11.1219512,66.1634146 C11.1219512,64.412892 11.6689895,63.5376307 11.6689895,62.771777 C11.6689895,61.787108 10.7937282,61.0212544 10.0278746,59.81777 C9.37142857,58.6142857 8.71498258,57.3013937 8.71498258,56.3167247 C8.71498258,54.6756098 9.37142857,53.8003484 9.37142857,52.3780488 C9.37142857,51.2839721 8.71498258,50.7369338 8.71498258,49.6428571 C8.71498258,45.8135889 18.6710801,42.9689895 26.8766551,42.9689895 L26.8766551,42.9689895 Z M104.556098,63.8658537 C105.103136,64.3034843 106.197213,65.069338 106.963066,65.5069686 C99.6327526,69.4456446 96.569338,74.1501742 93.287108,79.5111498 C93.615331,79.6205575 94.1623693,79.7299652 94.7094077,79.6205575 C98.1010453,79.6205575 100.945645,77.6512195 104.227875,75.0254355 L104.227875,75.0254355 L104.337282,76.1195122 C104.44669,76.4477352 104.44669,76.6665505 104.44669,76.9947735 C104.44669,77.6512195 104.337282,78.1982578 103.462021,78.8547038 C101.16446,80.7146341 97.4445993,82.6839721 93.8341463,82.6839721 C92.8494774,82.6839721 92.0836237,82.4651568 91.2083624,82.2463415 C84.9721254,86.0756098 75.2348432,87.7167247 64.841115,87.7167247 L64.841115,87.7167247 L62.871777,87.7167247 L63.0905923,86.7320557 C63.2,86.0756098 63.528223,85.6379791 63.7470383,85.4191638 C63.9658537,85.0909408 64.2940767,84.9815331 65.169338,84.9815331 C67.0292683,84.9815331 73.1560976,84.7627178 76.8759582,83.8874564 C75.8912892,81.3710801 74.0313589,78.0888502 71.1867596,78.0888502 C69.3268293,78.0888502 66.7010453,79.0735192 63.856446,80.2770035 C60.4648084,81.6993031 57.1825784,83.3404181 55.9790941,83.9968641 L55.9790941,83.9968641 L54.4473868,81.9181185 C55.5414634,81.1522648 59.0425087,79.2923345 62.9811847,77.5418118 C66.3728223,76.1195122 69.2174216,74.8066202 71.7337979,74.8066202 C75.3442509,74.8066202 78.7358885,78.9641115 80.0487805,83.1216028 C82.3463415,82.6839721 84.2062718,82.0275261 85.6285714,81.4804878 C91.4271777,79.1829268 90.989547,75.9006969 96.4599303,70.1020906 C98.866899,67.5857143 101.711498,65.069338 104.556098,63.8658537 Z M31.3623693,60.3648084 C33.9881533,60.3648084 35.410453,61.6777003 36.7233449,63.9752613 C37.8174216,65.9445993 38.6926829,68.1327526 39.8961672,69.8832753 C42.7407666,74.0407666 46.0229965,75.6818815 49.7428571,75.6818815 C53.0250871,75.6818815 56.8543554,74.3689895 60.4648084,72.2902439 L60.4648084,72.2902439 L61.0118467,74.8066202 C57.2919861,76.8853659 53.3533101,78.3076655 49.5240418,78.3076655 C45.0383275,78.3076655 40.3337979,76.3383275 36.9421603,71.3055749 C35.6292683,71.5243902 33.3317073,71.9620209 30.158885,71.9620209 C28.9554007,71.9620209 28.2989547,71.9620209 27.7519164,71.7432056 C27.3142857,71.5243902 27.204878,71.1961672 27.0954704,70.6491289 L27.0954704,70.6491289 L26.8766551,69.4456446 L28.0801394,69.4456446 C30.5965157,69.4456446 33.9881533,69.2268293 35.410453,68.6797909 L35.410453,68.6797909 L34.8634146,67.5857143 C33.441115,64.5222997 32.456446,63.3188153 30.3777003,63.3188153 C29.0648084,63.3188153 28.0801394,63.6470383 26.7672474,64.084669 C26.5484321,64.084669 26.3296167,64.3034843 25.8919861,64.3034843 C25.1261324,64.3034843 24.7979094,63.756446 24.5790941,62.8811847 L24.5790941,62.8811847 L24.4696864,62.3341463 C26.7672474,61.3494774 29.0648084,60.3648084 31.3623693,60.3648084 Z M97.3351916,59.2707317 C97.88223,59.7083624 98.6480836,60.2554007 99.4139373,60.802439 L97.9916376,62.5529617 C92.630662,69.3362369 88.1449477,75.1348432 84.5344948,75.1348432 C81.0334495,75.1348432 79.8299652,71.0867596 79.7205575,68.0233449 C74.3595819,68.5703833 69.3268293,70.4303136 64.184669,73.4937282 L63.528223,70.9773519 C69.2174216,67.9139373 74.3595819,65.5069686 82.7839721,64.6317073 C83.0027875,67.8045296 82.6745645,71.8526132 85.0815331,71.8526132 C87.2696864,71.8526132 91.974216,66.2728223 97.3351916,59.2707317 Z M119.544948,47.5641115 C119.654355,47.5641115 119.873171,47.7829268 120.091986,48.0017422 C122.936585,51.6121951 126.218815,55.2226481 129.391638,58.6142857 C133.439721,62.9905923 137.816028,67.4763066 141.864111,71.0867596 C141.973519,71.3055749 142.082927,71.4149826 142.082927,71.5243902 C142.082927,71.8526132 141.864111,72.0714286 141.645296,72.0714286 C141.426481,72.0714286 141.317073,71.9620209 141.098258,71.8526132 L141.098258,71.8526132 L139.785366,70.8679443 C135.518467,67.8045296 131.470383,64.3034843 127.969338,60.6930314 C124.687108,57.3013937 122.061324,53.6909408 119.982578,50.0804878 C119.216725,48.8770035 118.997909,48.4393728 118.997909,48.0017422 C118.997909,47.7829268 119.216725,47.5641115 119.544948,47.5641115 Z M57.8390244,56.9731707 L59.4801394,59.0519164 C55.6508711,60.5836237 47.9923345,63.8658537 47.9923345,66.710453 C47.9923345,67.695122 48.5393728,68.4609756 50.8369338,68.4609756 C54.8850174,68.4609756 59.261324,66.4916376 63.3094077,64.5222997 C63.6376307,64.412892 63.9658537,64.3034843 64.2940767,64.3034843 C64.841115,64.3034843 65.169338,64.5222997 65.497561,64.9599303 L66.154007,65.8351916 C61.4494774,68.4609756 55.5414634,71.1961672 50.1804878,71.1961672 C46.4606272,71.1961672 44.8195122,69.4456446 44.8195122,67.1480836 C44.8195122,63.2094077 51.7121951,59.3801394 57.8390244,56.9731707 Z M93.0682927,55.3320557 C93.5059233,55.8790941 94.3811847,56.6449477 95.0376307,57.3013937 C94.1623693,57.8484321 89.1296167,60.5836237 83.9874564,60.5836237 C81.6898955,60.5836237 79.5017422,60.3648084 77.6418118,60.0365854 C76.0006969,59.81777 74.1407666,59.5989547 72.4996516,59.5989547 C70.5303136,59.5989547 66.7010453,60.145993 64.4034843,61.2400697 L62.7623693,59.161324 C66.2634146,56.7543554 69.8738676,56.4261324 72.7184669,56.4261324 C74.4689895,56.4261324 76.5477352,56.6449477 78.6264808,56.9731707 C80.3770035,57.1919861 81.9087108,57.4108014 83.7686411,57.4108014 C87.5979094,57.4108014 91.4271777,55.9885017 93.0682927,55.3320557 Z M72.8278746,28.089547 L70.7491289,33.1222997 L75.4536585,35.2010453 C72.0620209,37.2797909 68.6703833,41.4372822 67.466899,45.8135889 C66.7010453,48.4393728 66.5916376,51.3933798 66.48223,53.2533101 L66.48223,53.2533101 L66.48223,53.9097561 C66.3728223,54.1285714 66.154007,54.3473868 65.9351916,54.3473868 C65.7163763,54.3473868 65.6069686,54.1285714 65.497561,53.9097561 C64.9505226,52.1592334 64.6222997,50.0804878 64.6222997,47.8923345 C64.6222997,41.7655052 68.7797909,36.7327526 70.7491289,35.5292683 L70.7491289,35.5292683 L67.6857143,34.325784 L68.9986063,31.2623693 L68.4515679,31.4811847 C67.795122,31.8094077 67.0292683,32.028223 66.0445993,32.028223 C64.6222997,32.028223 63.6376307,31.5905923 61.9965157,31.5905923 C60.245993,31.5905923 58.604878,32.1376307 57.4013937,33.341115 C55.7602787,34.98223 55.3226481,36.7327526 55.2132404,38.3738676 C55.1038328,38.9209059 55.1038328,39.4679443 55.1038328,40.0149826 C54.9944251,43.1878049 54.4473868,44.2818815 52.8062718,46.6888502 C51.1651568,49.3146341 48.5393728,52.9250871 46.5700348,55.7696864 C45.9135889,55.4414634 44.2724739,54.4567944 43.7254355,54.2379791 C45.3665505,51.2839721 47.4452962,48.4393728 49.0864111,46.3606272 C51.0557491,43.7348432 51.7121951,42.8595819 52.1498258,39.1397213 C52.3686411,36.4045296 52.4780488,33.4505226 55.4320557,30.6059233 C56.9637631,29.074216 59.3707317,28.1989547 61.558885,28.1989547 C62.7623693,28.1989547 63.6376307,28.41777 64.4034843,28.6365854 C65.497561,28.9648084 66.3728223,29.074216 67.138676,29.074216 C68.2327526,29.074216 69.3268293,28.745993 70.6397213,28.5271777 L70.6397213,28.5271777 L72.8278746,28.089547 Z M55.4320557,10.9125436 C57.5108014,10.9125436 58.604878,11.3501742 60.7930314,12.3348432 C62.3247387,13.1006969 63.6376307,13.1006969 65.497561,13.1006969 L68.4515679,13.1006969 L65.2787456,17.6958188 L69.4362369,20.8686411 C63.528223,22.7285714 62.3247387,24.0414634 60.6836237,26.0108014 C60.245993,26.6672474 60.0271777,26.8860627 59.589547,26.8860627 C59.261324,26.8860627 59.1519164,26.6672474 59.1519164,26.4484321 C59.1519164,26.3390244 59.261324,26.1202091 59.3707317,25.7919861 C59.91777,24.3696864 61.6682927,21.1968641 64.9505226,20.2121951 L64.9505226,20.2121951 L62.3247387,18.3522648 L64.2940767,15.7264808 C63.9658537,15.8358885 63.6376307,15.8358885 63.0905923,15.8358885 C61.6682927,15.8358885 61.1212544,15.7264808 59.8083624,15.1794425 C58.2766551,14.5229965 57.2919861,14.1947735 55.8696864,14.1947735 C54.2285714,14.1947735 52.6968641,14.7418118 51.3839721,15.9452962 C49.9616725,17.3675958 49.6334495,19.2275261 49.0864111,21.3062718 C47.6641115,27.2142857 45.3665505,29.730662 41.6466899,34.1069686 L41.6466899,34.1069686 L40.4432056,35.5292683 C36.8327526,39.7961672 34.3163763,45.3759582 32.3470383,49.4240418 L32.3470383,49.4240418 L31.9094077,50.2993031 L31.9094077,50.2993031 L30.1995565,50.2994532 C29.4443584,50.3006538 28.785211,50.3114595 28.2989547,50.4087108 C31.6905923,42.0937282 33.6599303,38.3738676 37.5986063,33.7787456 C40.5526132,30.2777003 41.4278746,29.402439 42.7407666,27.5425087 C44.2724739,25.2449477 45.0383275,22.9473868 45.4759582,20.6498258 C46.2418118,17.9146341 46.8982578,15.3982578 48.9770035,13.4289199 C50.8369338,11.7878049 53.0250871,10.9125436 55.4320557,10.9125436 Z M85.6285714,43.6254355 L86.7226481,46.0324042 L72.4996516,46.0324042 L73.9219512,43.6254355 L85.6285714,43.6254355 Z M38.3644599,0.3 C40.2243902,0.3 41.8655052,0.956445993 43.0689895,2.15993031 C44.3818815,3.36341463 45.1477352,5.11393728 45.1477352,6.86445993 C45.1477352,8.83379791 44.2724739,10.1466899 43.3972125,10.9125436 C43.6160279,11.3501742 43.7254355,11.8972125 43.7254355,12.5536585 C43.7254355,14.9606272 41.9749129,17.9146341 39.0209059,18.8993031 C38.6926829,21.7439024 35.6292683,23.4944251 32.5658537,23.4944251 C31.8,23.4944251 31.5811847,23.3850174 31.5811847,22.9473868 C31.5811847,22.4003484 33.2222997,22.4003484 34.8634146,20.7592334 C35.8480836,19.8839721 36.5045296,18.5710801 36.8327526,17.1487805 C39.3491289,16.2735192 40.7714286,14.6324042 40.7714286,12.3348432 C40.7714286,11.6783972 40.6620209,11.0219512 40.4432056,10.3655052 C41.3184669,9.59965157 41.8655052,8.50557491 41.8655052,7.30209059 C41.8655052,5.22334495 40.2243902,3.58222997 38.1456446,3.58222997 C36.6139373,3.58222997 35.3010453,4.45749129 34.754007,5.77038328 C30.815331,5.77038328 28.0801394,8.94320557 28.189547,12.5536585 C27.204878,13.5383275 26.6578397,14.6324042 26.3296167,16.0547038 C26.1108014,16.8205575 26.1108014,17.3675958 25.5637631,17.3675958 C25.1261324,17.3675958 25.0167247,16.7111498 24.9073171,16.0547038 C24.6885017,14.6324042 23.7038328,11.3501742 19.7651568,10.9125436 C19.2181185,7.08327526 15.8264808,5.11393728 12.7630662,5.11393728 C12.1066202,5.11393728 11.4501742,5.11393728 10.9031359,5.33275261 C10.1372822,4.45749129 9.04320557,3.8010453 7.83972125,3.8010453 C5.76097561,3.8010453 4.11986063,5.44216028 4.11986063,7.52090592 C4.11986063,9.16202091 4.99512195,10.4749129 6.4174216,11.0219512 L6.4174216,11.0219512 L6.4174216,11.2407666 C6.4174216,15.0700348 9.48083624,18.3522648 13.6383275,18.3522648 C14.6229965,20.9780488 16.7017422,22.0721254 18.4522648,22.4003484 C18.7804878,22.4003484 19.1087108,22.5097561 19.3275261,22.6191638 C19.5463415,22.7285714 19.6557491,22.9473868 19.6557491,23.1662021 C19.6557491,23.3850174 19.5463415,23.6038328 19.3275261,23.7132404 C19.1087108,23.8226481 18.8898955,23.8226481 18.4522648,23.9320557 C16.4829268,24.1508711 15.1700348,25.1355401 14.6229965,26.0108014 C14.1853659,25.9013937 13.6383275,25.9013937 13.2006969,25.9013937 C9.48083624,25.9013937 6.52682927,27.761324 6.30801394,30.4965157 C4.88571429,31.043554 3.9010453,32.4658537 3.9010453,33.997561 C3.9010453,36.1857143 5.43275261,37.7174216 7.62090592,37.7174216 C8.60557491,37.7174216 9.48083624,37.3891986 10.3560976,36.5139373 C11.3407666,37.1703833 12.3254355,37.4986063 13.5289199,37.4986063 C15.2794425,37.4986063 16.7017422,36.6233449 17.9052265,34.8728223 C20.3121951,34.8728223 22.7191638,34.325784 24.2508711,32.9034843 C25.0167247,32.356446 25.0167247,31.9188153 25.4543554,31.9188153 C25.7825784,31.9188153 25.8919861,32.1376307 25.8919861,32.4658537 C25.8919861,32.684669 25.6731707,33.1222997 25.4543554,33.669338 C24.4696864,35.7480836 22.2815331,37.3891986 19.8745645,37.3891986 L19.8745645,37.3891986 L19.2181185,37.3891986 C17.7958188,39.5773519 15.7170732,40.2337979 13.7477352,40.2337979 C12.8724739,40.2337979 11.8878049,40.0149826 11.2313589,39.7961672 C10.3560976,40.4526132 8.93379791,40.9996516 7.62090592,40.9996516 C3.68222997,40.9996516 0.618815331,38.0456446 0.618815331,33.997561 C0.618815331,31.9188153 1.82229965,29.730662 3.9010453,28.8554007 C3.9010453,26.6672474 6.7456446,23.3850174 13.5289199,23.3850174 L13.5289199,23.3850174 L13.9665505,23.3850174 L13.9665505,22.9473868 C12.8724739,22.7285714 11.8878049,21.6344948 11.8878049,20.8686411 C6.96445993,20.8686411 3.68222997,16.1641115 3.68222997,13.1006969 L3.68222997,13.1006969 L3.68222997,12.6630662 C1.60348432,11.2407666 0.509407666,9.59965157 0.509407666,7.19268293 C0.509407666,3.36341463 3.5728223,0.3 7.40209059,0.3 C9.37142857,0.3 10.7937282,0.956445993 12.1066202,2.15993031 C12.6536585,2.05052265 13.2006969,2.05052265 13.7477352,2.05052265 C18.0146341,2.05052265 20.6404181,5.00452962 21.8439024,8.50557491 C23.3756098,8.61498258 25.1261324,9.70905923 25.3449477,11.3501742 L25.3449477,11.3501742 L25.8919861,11.3501742 C25.8919861,6.53623693 29.7212544,3.25400697 32.784669,3.25400697 C33.769338,1.72229965 35.6292683,0.3 38.3644599,0.3 Z M62.9811847,33.8881533 C63.528223,33.8881533 64.0752613,33.997561 64.6222997,34.325784 C65.0599303,34.5445993 65.169338,34.98223 65.169338,35.310453 C65.169338,36.5139373 63.2,37.8268293 62.1059233,37.8268293 C61.4494774,37.9362369 61.0118467,37.2797909 61.0118467,36.295122 C61.0118467,36.0763066 61.0118467,35.638676 61.1212544,35.310453 C61.3400697,34.654007 61.7777003,33.8881533 62.9811847,33.8881533 Z M26.1108014,22.5097561 C27.6425087,24.1508711 31.143554,28.3083624 33.2222997,32.5752613 C32.6752613,33.012892 31.471777,34.7634146 31.0341463,35.4198606 C28.7365854,30.058885 26.2202091,25.7919861 24.7979094,23.7132404 L24.7979094,23.7132404 Z M157.4,19.5557491 L157.4,22.9473868 C154.008362,24.1508711 147.990941,26.5578397 144.708711,27.9801394 C144.27108,28.1989547 144.161672,28.3083624 143.942857,28.5271777 C143.942857,28.8554007 144.380488,29.074216 145.583972,29.074216 C147.772125,29.074216 150.944948,28.41777 154.008362,27.8707317 L154.008362,27.8707317 L154.008362,30.387108 C149.017109,31.6094557 145.827765,31.6937556 142.23291,31.6995693 L141.426481,31.7 C138.581882,31.7 135.518467,32.684669 132.017422,34.1069686 C131.798606,33.8881533 130.376307,31.8094077 130.157491,31.5905923 C138.472474,27.104878 150.507317,22.0721254 157.4,19.5557491 L157.4,19.5557491 Z M21.2968641,27.5425087 L21.8439024,29.1836237 L11.6689895,32.5752613 C11.2313589,32.684669 11.1219512,32.7940767 11.0125436,32.7940767 C10.6843206,32.7940767 10.5749129,32.5752613 10.5749129,32.356446 C10.5749129,32.1376307 10.6843206,32.028223 10.7937282,31.9188153 C14.1853659,29.2930314 17.2487805,28.1989547 21.2968641,27.5425087 Z M138.253659,3.69163763 C136.831359,6.53623693 134.643206,11.5689895 134.643206,15.0700348 C134.643206,16.7111498 135.190244,17.9146341 137.378397,17.9146341 C139.347735,17.9146341 142.739373,16.9299652 146.349826,15.9452962 C149.632056,14.7418118 152.804878,13.5383275 154.336585,13.1006969 L154.336585,13.1006969 L154.336585,16.3829268 C152.914286,16.7111498 150.288502,17.8052265 147.225087,18.7898955 C143.614634,19.9933798 139.785366,21.1968641 137.378397,21.1968641 C133.439721,21.1968641 131.798606,18.8993031 131.798606,15.7264808 L131.798606,15.7264808 L131.798606,15.0700348 L131.360976,15.0700348 C128.954007,18.7898955 126.765854,22.5097561 124.796516,24.6979094 L124.796516,24.6979094 L122.71777,22.4003484 C126.437631,17.9146341 133.220906,7.08327526 134.971429,3.69163763 L134.971429,3.69163763 Z M56.6355401,16.7111498 C57.2919861,16.7111498 57.9484321,16.9299652 58.4954704,17.4770035 C58.8236934,17.6958188 58.933101,18.0240418 58.933101,18.3522648 C58.933101,19.0087108 58.2766551,19.6651568 57.5108014,20.1027875 C56.9637631,20.4310105 56.3073171,20.6498258 55.7602787,20.6498258 C54.8850174,20.6498258 54.5567944,20.1027875 54.5567944,19.2275261 C54.5567944,18.0240418 55.2132404,16.7111498 56.6355401,16.7111498 Z M36.2857143,9.59965157 C36.5045296,9.59965157 36.7233449,9.8184669 36.7233449,10.0372822 C36.7233449,10.1466899 36.6139373,10.2560976 36.5045296,10.4749129 C34.754007,12.9912892 31.471777,18.2428571 30.3777003,19.7745645 L28.9554007,18.8993031 C29.9400697,16.6017422 31.143554,14.5229965 32.5658537,12.9912892 C33.5505226,11.7878049 34.5351916,10.9125436 35.6292683,10.0372822 C35.8480836,9.8184669 36.066899,9.59965157 36.2857143,9.59965157 Z M11.3407666,9.59965157 C13.4195122,10.4749129 15.1700348,11.3501742 16.7017422,12.6630662 C18.0146341,13.6477352 19.2181185,14.8512195 20.5310105,16.2735192 L19.3275261,17.5864111 C17.9052265,16.3829268 13.2006969,12.5536585 10.7937282,10.4749129 C10.5749129,10.2560976 10.4655052,10.0372822 10.4655052,9.92787456 C10.4655052,9.70905923 10.5749129,9.4902439 10.9031359,9.4902439 C11.0125436,9.4902439 11.1219512,9.4902439 11.3407666,9.59965157 Z M84.8627178,8.39616725 C85.5191638,8.39616725 86.0662021,8.50557491 86.5038328,8.83379791 C87.1602787,9.16202091 87.5979094,9.59965157 87.5979094,10.0372822 C87.5979094,10.5843206 87.0508711,11.0219512 86.3944251,11.6783972 C85.6285714,12.3348432 84.6439024,12.8818815 83.8780488,12.8818815 C82.8933798,12.8818815 82.5651568,11.8972125 82.5651568,11.1313589 C82.5651568,10.1466899 83.1121951,8.39616725 84.8627178,8.39616725 Z" id="nest-logo" fill="#FFFFFF" fill-rule="nonzero"></path>
    </g>
</svg>